STARTFONT 2.1
COMMENT
COMMENT Converted from OpenType font "UbuntuMono-Regular.ttf" by "otf2bdf 3.0".
COMMENT
FONT -FreeType-Ubuntu Mono-Medium-R-Normal--44-320-100-100-P-186-ISO10646-1
SIZE 32 100 100
FONTBOUNDINGBOX 44 45 -14 -8
STARTPROPERTIES 19
FOUNDRY "FreeType"
FAMILY_NAME "Ubuntu Mono"
WEIGHT_NAME "Medium"
SLANT "R"
SETWIDTH_NAME "Normal"
ADD_STYLE_NAME ""
PIXEL_SIZE 44
POINT_SIZE 320
RESOLUTION_X 100
RESOLUTION_Y 100
SPACING "P"
AVERAGE_WIDTH 186
CHARSET_REGISTRY "ISO10646"
CHARSET_ENCODING "1"
FONT_ASCENT 36
FONT_DESCENT 7
COPYRIGHT "Copyright 2011 Canonical Ltd.  Licensed under the Ubuntu Font Licence 1.0"
_OTF_FONTFILE "UbuntuMono-Regular.ttf"
_OTF_PSNAME "UbuntuMono-Regular"
ENDPROPERTIES
CHARS 1224
STARTCHAR 0000
ENCODING 0
SWIDTH 495 0
DWIDTH 22 0
BBX 0 0 0 0
BITMAP
ENDCHAR
STARTCHAR 0008
ENCODING 8
SWIDTH 495 0
DWIDTH 22 0
BBX 0 0 0 0
BITMAP
ENDCHAR
STARTCHAR 0009
ENCODING 9
SWIDTH 495 0
DWIDTH 22 0
BBX 0 0 0 0
BITMAP
ENDCHAR
STARTCHAR 000D
ENCODING 13
SWIDTH 495 0
DWIDTH 22 0
BBX 0 0 0 0
BITMAP
ENDCHAR
STARTCHAR 001D
ENCODING 29
SWIDTH 495 0
DWIDTH 22 0
BBX 0 0 0 0
BITMAP
ENDCHAR
STARTCHAR 0020
ENCODING 32
SWIDTH 495 0
DWIDTH 22 0
BBX 0 0 0 0
BITMAP
ENDCHAR
STARTCHAR 0021
ENCODING 33
SWIDTH 495 0
DWIDTH 22 0
BBX 6 29 8 -1
BITMAP
78
78
78
78
78
78
78
78
78
78
78
78
78
78
78
78
38
30
30
00
00
00
00
78
FC
FC
FC
78
30
ENDCHAR
STARTCHAR 0022
ENCODING 34
SWIDTH 495 0
DWIDTH 22 0
BBX 10 11 6 19
BITMAP
E1C0
E1C0
E1C0
E1C0
E1C0
E1C0
E1C0
E1C0
E1C0
E0C0
C0C0
ENDCHAR
STARTCHAR 0023
ENCODING 35
SWIDTH 495 0
DWIDTH 22 0
BBX 20 28 1 0
BITMAP
01C1E0
01C1C0
01C1C0
03C1C0
03C3C0
0383C0
038380
038380
FFFFF0
FFFFF0
FFFFF0
070700
070700
0F0700
0F0F00
0E0F00
0E0E00
0E0E00
FFFFF0
FFFFF0
FFFFF0
1C1E00
1C1C00
1C1C00
3C1C00
383C00
383C00
383800
ENDCHAR
STARTCHAR 0024
ENCODING 36
SWIDTH 495 0
DWIDTH 22 0
BBX 18 35 2 -4
BITMAP
00E000
00E000
00E000
00E000
00E000
07FF00
1FFF00
3FFF00
3C0100
780000
780000
780000
780000
7C0000
3E0000
3FC000
1FF000
07FC00
01FF00
003F80
000F80
0007C0
0003C0
0003C0
0003C0
0007C0
700F80
7FFF00
FFFE00
3FFC00
00E000
00E000
00E000
00E000
00E000
ENDCHAR
STARTCHAR 0025
ENCODING 37
SWIDTH 495 0
DWIDTH 22 0
BBX 20 29 1 -1
BITMAP
3E0070
7F00E0
7780E0
E381C0
E383C0
E18380
E18700
E18700
E18E00
E39E00
E39C00
7F3800
3F3800
0C7000
00F000
00E7C0
01CFE0
01DE70
039C70
071C70
071C30
0E1830
1E1C30
1C1C30
381C70
381C70
700FE0
F007E0
000180
ENDCHAR
STARTCHAR 0026
ENCODING 38
SWIDTH 495 0
DWIDTH 22 0
BBX 20 28 1 0
BITMAP
03F000
0FF800
0FFC00
1E1E00
1C0E00
3C0E00
3C0E00
3C1E00
1C1C00
1E3C00
1E7800
0FF000
0FE000
0FC1C0
1FC1C0
3DE1C0
3CF1C0
78F9C0
707FC0
703F80
F01F80
F00F80
F00780
780F80
7C1FC0
3FFDE0
1FF9E0
0FE0F0
ENDCHAR
STARTCHAR 0027
ENCODING 39
SWIDTH 495 0
DWIDTH 22 0
BBX 4 12 9 18
BITMAP
F0
F0
F0
F0
F0
F0
F0
F0
70
70
60
60
ENDCHAR
STARTCHAR 0028
ENCODING 40
SWIDTH 495 0
DWIDTH 22 0
BBX 12 38 5 -7
BITMAP
0060
00E0
01F0
03E0
07C0
0F80
0F00
1E00
1E00
3C00
3800
7800
7800
7000
F000
F000
F000
F000
F000
F000
F000
F000
F000
F000
7000
7800
7800
3800
3C00
3C00
1E00
0F00
0F80
07C0
03E0
01F0
00F0
0060
ENDCHAR
STARTCHAR 0029
ENCODING 41
SWIDTH 495 0
DWIDTH 22 0
BBX 12 38 5 -7
BITMAP
2000
7000
F800
7C00
3E00
1F00
0F00
0780
07C0
03C0
01C0
01E0
00E0
00E0
00F0
00F0
00F0
0070
0070
0070
0070
00F0
00F0
00F0
00F0
00E0
01E0
01E0
03C0
03C0
0780
0F80
0F00
1E00
3C00
F800
7000
6000
ENDCHAR
STARTCHAR 002A
ENCODING 42
SWIDTH 495 0
DWIDTH 22 0
BBX 16 17 3 11
BITMAP
03C0
03C0
03C0
03C0
01C0
E1C7
F99F
FFFF
7FFF
03C0
07E0
0F70
1E78
3E7C
3C3E
1C18
0810
ENDCHAR
STARTCHAR 002B
ENCODING 43
SWIDTH 495 0
DWIDTH 22 0
BBX 18 19 2 2
BITMAP
00E000
00E000
00E000
00E000
00E000
00E000
00E000
00E000
FFFFC0
FFFFC0
FFFFC0
00E000
00E000
00E000
00E000
00E000
00E000
00E000
00E000
ENDCHAR
STARTCHAR 002C
ENCODING 44
SWIDTH 495 0
DWIDTH 22 0
BBX 9 12 7 -6
BITMAP
1E00
3F00
3F00
3F80
3F80
1F00
0700
0F00
1E00
FC00
F800
F000
ENDCHAR
STARTCHAR 002D
ENCODING 45
SWIDTH 495 0
DWIDTH 22 0
BBX 10 3 6 10
BITMAP
FFC0
FFC0
FFC0
ENDCHAR
STARTCHAR 002E
ENCODING 46
SWIDTH 495 0
DWIDTH 22 0
BBX 6 6 8 -1
BITMAP
78
FC
FC
FC
FC
7C
ENDCHAR
STARTCHAR 002F
ENCODING 47
SWIDTH 495 0
DWIDTH 22 0
BBX 16 38 3 -7
BITMAP
000F
000F
000E
001E
001E
001C
003C
003C
0038
0078
0078
0070
00F0
00F0
00E0
01E0
01E0
01E0
03C0
03C0
03C0
0780
0780
0780
0700
0F00
0F00
0E00
1E00
1E00
1C00
3C00
3C00
3800
7800
7800
7000
F000
ENDCHAR
STARTCHAR 0030
ENCODING 48
SWIDTH 495 0
DWIDTH 22 0
BBX 18 29 2 -1
BITMAP
03F000
0FFC00
1FFE00
3E1F00
3C0F00
780780
780780
780380
7003C0
F003C0
F003C0
F0E3C0
F1E3C0
F1F3C0
F1F3C0
F1E3C0
F0C3C0
F003C0
F003C0
F003C0
7003C0
780780
780780
3C0F80
3E0F00
1FFE00
0FFC00
07F800
00C000
ENDCHAR
STARTCHAR 0031
ENCODING 49
SWIDTH 495 0
DWIDTH 22 0
BBX 16 28 3 0
BITMAP
0060
00E0
01E0
07E0
0FE0
3FE0
FCE0
78E0
60E0
00E0
00E0
00E0
00E0
00E0
00E0
00E0
00E0
00E0
00E0
00E0
00E0
00E0
00E0
00E0
00E0
3FFF
3FFF
3FFF
ENDCHAR
STARTCHAR 0032
ENCODING 50
SWIDTH 495 0
DWIDTH 22 0
BBX 17 28 3 0
BITMAP
0FE000
3FF800
FFFC00
F87E00
E01E00
401E00
000F00
000F00
000F00
000E00
001E00
003E00
003C00
007800
00F000
01F000
03E000
07C000
0F8000
1F0000
3E0000
3C0000
780000
780000
F00000
FFFF80
FFFF80
FFFF80
ENDCHAR
STARTCHAR 0033
ENCODING 51
SWIDTH 495 0
DWIDTH 22 0
BBX 17 29 3 -1
BITMAP
1FE000
7FF800
FFFC00
707E00
401E00
001E00
000E00
000E00
000E00
001E00
003C00
00FC00
07F000
07F800
07FC00
003E00
001F00
000F00
000700
000780
000780
000780
000F00
000F00
C01F00
FFFE00
FFFC00
7FF000
070000
ENDCHAR
STARTCHAR 0034
ENCODING 52
SWIDTH 495 0
DWIDTH 22 0
BBX 19 28 2 0
BITMAP
000E00
001E00
003E00
007E00
00FE00
00EE00
01CE00
03CE00
078E00
070E00
0E0E00
1E0E00
1C0E00
3C0E00
380E00
700E00
700E00
E00E00
FFFFE0
FFFFE0
FFFFE0
000E00
000E00
000E00
000E00
000E00
000E00
000E00
ENDCHAR
STARTCHAR 0035
ENCODING 53
SWIDTH 495 0
DWIDTH 22 0
BBX 17 29 3 -1
BITMAP
1FFF00
1FFF00
1FFF00
3FFF00
3C0000
3C0000
3C0000
3C0000
380000
380000
380000
3F8000
3FF000
3FFC00
01FE00
003E00
000F00
000F00
000780
000780
000780
000780
000F00
000F00
401F00
FFFE00
FFFC00
7FF000
038000
ENDCHAR
STARTCHAR 0036
ENCODING 54
SWIDTH 495 0
DWIDTH 22 0
BBX 18 29 2 -1
BITMAP
000300
003F00
01FF00
03FF00
07E000
0F8000
1E0000
1E0000
3C0000
380000
780000
79F800
7FFE00
7FFF00
FC1F80
F00780
F003C0
F003C0
F003C0
7003C0
7003C0
7803C0
7803C0
3C0780
3C0F80
1FBF00
0FFE00
07FC00
004000
ENDCHAR
STARTCHAR 0037
ENCODING 55
SWIDTH 495 0
DWIDTH 22 0
BBX 17 28 3 0
BITMAP
FFFF80
FFFF80
FFFF80
FFFF80
000F00
000F00
001E00
001C00
003C00
007800
007800
00F000
00F000
00E000
01E000
01E000
03C000
03C000
03C000
078000
078000
078000
070000
0F0000
0F0000
0F0000
0F0000
0F0000
ENDCHAR
STARTCHAR 0038
ENCODING 56
SWIDTH 495 0
DWIDTH 22 0
BBX 18 29 2 -1
BITMAP
03F800
0FFE00
1FFF00
3E1F00
780780
780780
780380
700380
780380
780780
7C0700
3E0F00
1F9E00
0FFC00
0FFE00
1E7F00
3C1F80
780780
7003C0
F003C0
F003C0
F003C0
F003C0
7803C0
780780
3FFF80
3FFF00
0FFC00
00C000
ENDCHAR
STARTCHAR 0039
ENCODING 57
SWIDTH 495 0
DWIDTH 22 0
BBX 18 28 2 0
BITMAP
07F000
0FFC00
1FFE00
3E1F00
780F00
780780
700780
F00380
F003C0
F003C0
F003C0
7003C0
7803C0
7C07C0
3FFFC0
1FFFC0
07FB80
000780
000780
000780
000F00
001F00
003E00
007C00
03F800
3FF000
3FC000
3E0000
ENDCHAR
STARTCHAR 003A
ENCODING 58
SWIDTH 495 0
DWIDTH 22 0
BBX 6 21 8 -1
BITMAP
10
7C
FC
FC
FC
FC
78
00
00
00
00
00
00
00
00
78
FC
FC
FC
FC
7C
ENDCHAR
STARTCHAR 003B
ENCODING 59
SWIDTH 495 0
DWIDTH 22 0
BBX 9 27 6 -6
BITMAP
0400
1F00
3F00
3F00
3F00
3F00
1E00
0000
0000
0000
0000
0000
0000
0000
0000
1E00
3F00
3F00
3F80
3F00
1F00
0700
0F00
1E00
FC00
F800
E000
ENDCHAR
STARTCHAR 003C
ENCODING 60
SWIDTH 495 0
DWIDTH 22 0
BBX 18 17 2 2
BITMAP
0000C0
0007C0
001FC0
007F80
03FC00
0FF000
3FC000
FE0000
F80000
FC0000
7F8000
1FE000
07FC00
00FF00
003FC0
000FC0
0001C0
ENDCHAR
STARTCHAR 003D
ENCODING 61
SWIDTH 495 0
DWIDTH 22 0
BBX 18 11 2 6
BITMAP
FFFFC0
FFFFC0
FFFFC0
000000
000000
000000
000000
000000
FFFFC0
FFFFC0
FFFFC0
ENDCHAR
STARTCHAR 003E
ENCODING 62
SWIDTH 495 0
DWIDTH 22 0
BBX 18 17 2 2
BITMAP
600000
780000
FE0000
3FC000
0FF000
03FE00
007F80
001FC0
0003C0
000FC0
003FC0
01FE00
07F800
1FE000
FF0000
7C0000
700000
ENDCHAR
STARTCHAR 003F
ENCODING 63
SWIDTH 495 0
DWIDTH 22 0
BBX 14 28 4 -1
BITMAP
3FC0
FFF0
FFF8
607C
003C
003C
003C
003C
003C
0078
0078
00F0
01E0
03C0
0780
0700
0F00
0E00
0E00
0000
0000
0000
0200
0F00
1F80
1F80
1F80
0F00
ENDCHAR
STARTCHAR 0040
ENCODING 64
SWIDTH 495 0
DWIDTH 22 0
BBX 19 34 2 -6
BITMAP
01FC00
07FE00
0FFF80
1F0780
3E03C0
3C01C0
7801C0
7801E0
7001E0
701FE0
F07FE0
F0FFE0
F1F1E0
E1E1E0
E1C1E0
E3C1E0
E3C1E0
E3C1E0
E3C1E0
F3C1E0
F1C1E0
F1E1E0
F1E1E0
70FFE0
787FE0
783FC0
380000
3C0000
1E0000
1F0000
0FC000
07FF00
01FF80
007F00
ENDCHAR
STARTCHAR 0041
ENCODING 65
SWIDTH 495 0
DWIDTH 22 0
BBX 21 28 1 0
BITMAP
00F000
00F800
01F800
01FC00
03FC00
039C00
039E00
079E00
070E00
070F00
0F0F00
0E0700
0E0780
1E0780
1E0380
1C0380
1C03C0
3C03C0
3FFFC0
3FFFE0
7FFFE0
7801E0
7000E0
7000F0
F000F0
F000F0
E00070
E00078
ENDCHAR
STARTCHAR 0042
ENCODING 66
SWIDTH 495 0
DWIDTH 22 0
BBX 18 28 2 0
BITMAP
1FC000
FFF800
FFFE00
F07F00
F00F00
F00F80
F00780
F00780
F00780
F00700
F00F00
F03E00
FFFC00
FFF800
FFFE00
F01F00
F00780
F003C0
F003C0
F003C0
F003C0
F003C0
F003C0
F00780
F01F80
FFFF00
FFFE00
FFF800
ENDCHAR
STARTCHAR 0043
ENCODING 67
SWIDTH 495 0
DWIDTH 22 0
BBX 18 29 2 -1
BITMAP
00FE00
03FFC0
0FFFC0
1F83C0
1E0000
3C0000
3C0000
780000
780000
700000
F00000
F00000
F00000
F00000
F00000
F00000
F00000
F00000
F00000
700000
780000
780000
3C0000
3E0000
1F00C0
0FFFC0
07FFC0
03FF80
003000
ENDCHAR
STARTCHAR 0044
ENCODING 68
SWIDTH 495 0
DWIDTH 22 0
BBX 18 28 2 0
BITMAP
3F8000
FFF000
FFFC00
F0FE00
F01F00
F00F00
F00780
F00780
F003C0
F003C0
F003C0
F001C0
F001C0
F001C0
F001C0
F001C0
F001C0
F003C0
F003C0
F003C0
F003C0
F00780
F00780
F00F00
F03E00
FFFC00
FFF800
FFE000
ENDCHAR
STARTCHAR 0045
ENCODING 69
SWIDTH 495 0
DWIDTH 22 0
BBX 16 28 4 0
BITMAP
FFFE
FFFE
FFFE
FFFE
F000
F000
F000
F000
F000
F000
F000
F000
FFFC
FFFC
FFFC
F000
F000
F000
F000
F000
F000
F000
F000
F000
F000
FFFF
FFFF
FFFF
ENDCHAR
STARTCHAR 0046
ENCODING 70
SWIDTH 495 0
DWIDTH 22 0
BBX 16 28 4 0
BITMAP
FFFF
FFFF
FFFF
FFFF
F000
F000
F000
F000
F000
F000
F000
F000
FFFC
FFFC
FFFC
F000
F000
F000
F000
F000
F000
F000
F000
F000
F000
F000
F000
F000
ENDCHAR
STARTCHAR 0047
ENCODING 71
SWIDTH 495 0
DWIDTH 22 0
BBX 18 29 2 -1
BITMAP
00FF00
03FFC0
0FFFC0
1F8380
1E0080
3C0000
3C0000
780000
780000
700000
F00000
F00000
F00000
F00000
F001C0
F001C0
F001C0
F001C0
F001C0
7001C0
7801C0
7801C0
3C01C0
3E01C0
1F01C0
0FFFC0
07FFC0
03FFC0
003000
ENDCHAR
STARTCHAR 0048
ENCODING 72
SWIDTH 495 0
DWIDTH 22 0
BBX 18 28 2 0
BITMAP
F001C0
F001C0
F001C0
F001C0
F001C0
F001C0
F001C0
F001C0
F001C0
F001C0
F001C0
F001C0
FFFFC0
FFFFC0
FFFFC0
F001C0
F001C0
F001C0
F001C0
F001C0
F001C0
F001C0
F001C0
F001C0
F001C0
F001C0
F001C0
F001C0
ENDCHAR
STARTCHAR 0049
ENCODING 73
SWIDTH 495 0
DWIDTH 22 0
BBX 14 28 4 0
BITMAP
FFFC
FFFC
FFFC
FFFC
0780
0780
0780
0780
0780
0780
0780
0780
0780
0780
0780
0780
0780
0780
0780
0780
0780
0780
0780
0780
0780
FFFC
FFFC
FFFC
ENDCHAR
STARTCHAR 004A
ENCODING 74
SWIDTH 495 0
DWIDTH 22 0
BBX 16 29 3 -1
BITMAP
1FFF
1FFF
1FFF
1FFF
000F
000F
000F
000F
000F
000F
000F
000F
000F
000F
000F
000F
000F
000F
000F
000F
000F
000E
001E
001E
E03E
FFFC
FFF8
7FF0
0300
ENDCHAR
STARTCHAR 004B
ENCODING 75
SWIDTH 495 0
DWIDTH 22 0
BBX 19 28 3 0
BITMAP
E003C0
E00780
E00F00
E01F00
E01E00
E03C00
E07800
E0F800
E1F000
E3E000
E3C000
E78000
EF0000
FF0000
FF8000
EFC000
E3E000
E1F000
E0F800
E07C00
E03C00
E03E00
E01F00
E00F00
E00780
E007C0
E003C0
E003E0
ENDCHAR
STARTCHAR 004C
ENCODING 76
SWIDTH 495 0
DWIDTH 22 0
BBX 16 28 4 0
BITMAP
F000
F000
F000
F000
F000
F000
F000
F000
F000
F000
F000
F000
F000
F000
F000
F000
F000
F000
F000
F000
F000
F000
F000
F000
F000
FFFF
FFFF
FFFF
ENDCHAR
STARTCHAR 004D
ENCODING 77
SWIDTH 495 0
DWIDTH 22 0
BBX 20 28 1 0
BITMAP
3C03C0
3C03C0
3C03C0
3E07C0
3E07C0
3607C0
3706E0
370EE0
330EE0
738CE0
739CE0
719CE0
71D8E0
71F8E0
70F8E0
70F0E0
70F0E0
7070E0
7000E0
7000E0
7000E0
7000E0
7000F0
7000F0
7000F0
F000F0
F000F0
F000F0
ENDCHAR
STARTCHAR 004E
ENCODING 78
SWIDTH 495 0
DWIDTH 22 0
BBX 18 28 2 0
BITMAP
F003C0
F803C0
F803C0
FC03C0
FC03C0
FE03C0
FE03C0
F703C0
F783C0
F383C0
F3C3C0
F1C3C0
F1C3C0
F0E3C0
F0E3C0
F073C0
F073C0
F07BC0
F03BC0
F03FC0
F01FC0
F01FC0
F00FC0
F00FC0
F007C0
F007C0
F007C0
F003C0
ENDCHAR
STARTCHAR 004F
ENCODING 79
SWIDTH 495 0
DWIDTH 22 0
BBX 20 29 1 -1
BITMAP
01FC00
07FE00
0FFF80
1F0F80
3E03C0
3C03C0
7801E0
7801E0
7800E0
7000F0
F000F0
F000F0
F000F0
F000F0
F000F0
F000F0
F000F0
F000F0
7000F0
7000E0
7801E0
7801E0
3801E0
3C03C0
1E07C0
1FFF80
0FFF00
03FE00
007000
ENDCHAR
STARTCHAR 0050
ENCODING 80
SWIDTH 495 0
DWIDTH 22 0
BBX 17 28 3 0
BITMAP
1FC000
FFF800
FFFE00
F07F00
F00F00
F00780
F00780
F00780
F00780
F00780
F00780
F00780
F00780
F00F00
F0FE00
FFFE00
FFF800
FFC000
F00000
F00000
F00000
F00000
F00000
F00000
F00000
F00000
F00000
F00000
ENDCHAR
STARTCHAR 0051
ENCODING 81
SWIDTH 495 0
DWIDTH 22 0
BBX 20 35 1 -7
BITMAP
01F800
07FE00
0FFF00
1F0F80
3C03C0
3C03C0
7801E0
7801E0
7800E0
7000F0
F000F0
F000F0
F000F0
F000F0
F000F0
F000F0
F000F0
F000F0
7000F0
7000F0
7801E0
7801E0
3801E0
3C03C0
1E07C0
1FFF80
0FFF00
03FE00
00F000
00F000
007800
007E00
001FE0
000FE0
0003C0
ENDCHAR
STARTCHAR 0052
ENCODING 82
SWIDTH 495 0
DWIDTH 22 0
BBX 18 28 2 0
BITMAP
1FC000
FFF800
FFFE00
F07F00
F00F00
F00780
F00780
F00780
F00780
F00780
F00780
F00780
F00F00
F01F00
FFFE00
FFFC00
FFF000
F07800
F03C00
F03C00
F01E00
F00E00
F00F00
F00700
F00780
F00380
F003C0
F003C0
ENDCHAR
STARTCHAR 0053
ENCODING 83
SWIDTH 495 0
DWIDTH 22 0
BBX 18 29 2 -1
BITMAP
03FC00
0FFF80
1FFF00
3E0700
3C0100
780000
780000
780000
780000
7C0000
3C0000
3F0000
1FC000
0FF000
03FC00
007F00
001F00
000F80
000780
0003C0
0003C0
0003C0
0003C0
000780
600F80
7FFF80
FFFF00
3FFC00
038000
ENDCHAR
STARTCHAR 0054
ENCODING 84
SWIDTH 495 0
DWIDTH 22 0
BBX 18 28 2 0
BITMAP
FFFFC0
FFFFC0
FFFFC0
FFFFC0
01E000
01E000
01E000
01E000
01E000
01E000
01E000
01E000
01E000
01E000
01E000
01E000
01E000
01E000
01E000
01E000
01E000
01E000
01E000
01E000
01E000
01E000
01E000
01E000
ENDCHAR
STARTCHAR 0055
ENCODING 85
SWIDTH 495 0
DWIDTH 22 0
BBX 18 29 2 -1
BITMAP
F003C0
F003C0
F003C0
F003C0
F003C0
F003C0
F003C0
F003C0
F003C0
F003C0
F003C0
F003C0
F003C0
F003C0
F003C0
F003C0
F003C0
F003C0
F003C0
F003C0
F003C0
F003C0
7003C0
780780
7C0F80
3FFF00
1FFE00
0FFC00
00C000
ENDCHAR
STARTCHAR 0056
ENCODING 86
SWIDTH 495 0
DWIDTH 22 0
BBX 21 28 1 0
BITMAP
F00078
F00070
F000F0
F000F0
7000F0
7800E0
7801E0
7801E0
3801E0
3C01C0
3C03C0
1C03C0
1C0380
1E0380
1E0780
0E0780
0F0700
0F0F00
070F00
070E00
078E00
039E00
039C00
03DC00
01FC00
01F800
01F800
00F800
ENDCHAR
STARTCHAR 0057
ENCODING 87
SWIDTH 495 0
DWIDTH 22 0
BBX 20 28 1 0
BITMAP
F000F0
F000F0
F000F0
7000F0
7000F0
7000F0
7000F0
7000E0
7000E0
7000E0
7000E0
70F0E0
70F0E0
70F8E0
71F8E0
71F8E0
7198E0
739CE0
739CE0
730CE0
370EE0
370EC0
3706C0
3E07C0
3E07C0
3E03C0
3C03C0
3C03C0
ENDCHAR
STARTCHAR 0058
ENCODING 88
SWIDTH 495 0
DWIDTH 22 0
BBX 20 28 1 0
BITMAP
7800F0
7801E0
3C01E0
3C03C0
1E0380
1E0780
0F0F00
0F0F00
079E00
039E00
03FC00
01F800
01F800
00F800
01F800
03FC00
03FC00
079E00
078E00
0F0F00
0F0780
1E0780
1E03C0
3C03C0
3C01E0
7801E0
7801E0
F000F0
ENDCHAR
STARTCHAR 0059
ENCODING 89
SWIDTH 495 0
DWIDTH 22 0
BBX 21 28 1 0
BITMAP
F00078
F000F0
F000F0
7800E0
7801E0
3C01E0
3C03C0
1E03C0
1E0780
0F0780
0F0F00
078E00
079E00
03DC00
03FC00
01F800
00F800
00F000
00F000
00F000
00F000
00F000
00F000
00F000
00F000
00F000
00F000
00F000
ENDCHAR
STARTCHAR 005A
ENCODING 90
SWIDTH 495 0
DWIDTH 22 0
BBX 18 28 2 0
BITMAP
7FFFC0
7FFFC0
7FFFC0
7FFFC0
000780
000F00
000F00
001E00
003C00
003C00
007800
00F000
00F000
01E000
01E000
03C000
078000
078000
0F0000
0F0000
1E0000
1C0000
3C0000
780000
780000
FFFFC0
FFFFC0
FFFFC0
ENDCHAR
STARTCHAR 005B
ENCODING 91
SWIDTH 495 0
DWIDTH 22 0
BBX 11 38 6 -7
BITMAP
FFE0
FFE0
FFE0
F000
F000
F000
F000
F000
F000
F000
F000
F000
F000
F000
F000
F000
F000
F000
F000
F000
F000
F000
F000
F000
F000
F000
F000
F000
F000
F000
F000
F000
F000
F000
F000
FFE0
FFE0
FFE0
ENDCHAR
STARTCHAR 005C
ENCODING 92
SWIDTH 495 0
DWIDTH 22 0
BBX 16 38 3 -7
BITMAP
F000
7000
7800
7800
3800
3C00
3C00
1C00
1E00
1E00
1E00
0F00
0F00
0F00
0700
0780
0780
0380
03C0
03C0
01C0
01E0
01E0
00E0
00F0
00F0
0070
0078
0078
0038
003C
003C
001C
001E
001E
001E
000F
000F
ENDCHAR
STARTCHAR 005D
ENCODING 93
SWIDTH 495 0
DWIDTH 22 0
BBX 11 38 5 -7
BITMAP
FFE0
FFE0
FFE0
01E0
01E0
01E0
01E0
01E0
01E0
01E0
01E0
01E0
01E0
01E0
01E0
01E0
01E0
01E0
01E0
01E0
01E0
01E0
01E0
01E0
01E0
01E0
01E0
01E0
01E0
01E0
01E0
01E0
01E0
01E0
01E0
FFE0
FFE0
FFE0
ENDCHAR
STARTCHAR 005E
ENCODING 94
SWIDTH 495 0
DWIDTH 22 0
BBX 18 16 2 12
BITMAP
01E000
01E000
03F000
03F000
07F800
073C00
0F3C00
1E1E00
1E1E00
3C0F00
3C0700
780780
7003C0
F003C0
600180
000100
ENDCHAR
STARTCHAR 005F
ENCODING 95
SWIDTH 495 0
DWIDTH 22 0
BBX 22 3 0 -7
BITMAP
FFFFFC
FFFFFC
FFFFFC
ENDCHAR
STARTCHAR 0060
ENCODING 96
SWIDTH 495 0
DWIDTH 22 0
BBX 8 8 7 23
BITMAP
20
70
F8
78
3C
1E
0F
04
ENDCHAR
STARTCHAR 0061
ENCODING 97
SWIDTH 495 0
DWIDTH 22 0
BBX 16 21 3 0
BITMAP
1FF0
3FFC
3FFE
203E
000F
000F
000F
0007
00C7
1FFF
3FFF
7F7F
F807
F007
E007
E007
F007
F807
7FFF
7FFF
1FFF
ENDCHAR
STARTCHAR 0062
ENCODING 98
SWIDTH 495 0
DWIDTH 22 0
BBX 17 31 3 0
BITMAP
300000
F00000
F00000
F00000
F00000
F00000
F00000
F00000
F00000
F00000
F7F000
FFFC00
FFFE00
FC3F00
F00F00
F00F80
F00780
F00780
F00780
F00380
F00380
F00380
F00380
F00780
F00780
F00780
F00F00
F03F00
FFFE00
FFFC00
FFF000
ENDCHAR
STARTCHAR 0063
ENCODING 99
SWIDTH 495 0
DWIDTH 22 0
BBX 18 21 2 0
BITMAP
01FF80
07FFC0
0FFF80
1F8180
3E0000
7C0000
780000
F00000
F00000
F00000
F00000
F00000
F00000
F00000
780000
780000
7C0000
3F0040
1FFFC0
0FFFC0
03FFC0
ENDCHAR
STARTCHAR 0064
ENCODING 100
SWIDTH 495 0
DWIDTH 22 0
BBX 17 31 2 0
BITMAP
000180
000780
000780
000780
000780
000780
000780
000780
000780
000780
07F780
0FFF80
3FFF80
3E1F80
7C0780
780780
F00780
F00780
F00780
F00780
F00780
F00780
F00780
F00780
F00780
780780
780780
3E0780
3FFF80
1FFF80
07FF80
ENDCHAR
STARTCHAR 0065
ENCODING 101
SWIDTH 495 0
DWIDTH 22 0
BBX 18 21 2 0
BITMAP
03F800
0FFE00
1FFF00
3E0F80
7C0780
7803C0
F003C0
F003C0
F003C0
FFFFC0
FFFFC0
FFFFC0
F00000
F00000
F00000
780000
7C0000
3E0000
1FFF80
0FFF80
07FF00
ENDCHAR
STARTCHAR 0066
ENCODING 102
SWIDTH 495 0
DWIDTH 22 0
BBX 18 31 3 0
BITMAP
003E00
01FFC0
03FFC0
07E7C0
078000
0F0000
0F0000
0F0000
0F0000
0F0000
FFFF00
FFFF00
FFFF00
0F0000
0F0000
0F0000
0F0000
0F0000
0F0000
0F0000
0F0000
0F0000
0F0000
0F0000
0F0000
0F0000
0F0000
0F0000
0F0000
0F0000
0F0000
ENDCHAR
STARTCHAR 0067
ENCODING 103
SWIDTH 495 0
DWIDTH 22 0
BBX 17 28 2 -7
BITMAP
03FE00
0FFF80
1FFF80
3F0780
7C0780
780780
F00780
F00780
F00780
F00780
F00780
F00780
F00780
F00780
F00780
780780
7E0F80
3FFF80
1FFF80
07F780
000780
000780
000780
000F00
401F00
7FFE00
7FFC00
7FF800
ENDCHAR
STARTCHAR 0068
ENCODING 104
SWIDTH 495 0
DWIDTH 22 0
BBX 16 31 3 0
BITMAP
3000
F000
F000
F000
F000
F000
F000
F000
F000
F000
FFF0
FFF8
FFFC
F87E
F01E
F00F
F00F
F00F
F00F
F007
F007
F007
F007
F007
F007
F007
F007
F007
F007
F007
F007
ENDCHAR
STARTCHAR 0069
ENCODING 105
SWIDTH 495 0
DWIDTH 22 0
BBX 18 30 2 0
BITMAP
038000
07C000
0FC000
0FC000
07C000
078000
000000
000000
000000
FFC000
FFC000
FFC000
03C000
03C000
03C000
03C000
03C000
03C000
03C000
03C000
03C000
03C000
03C000
03C000
03C000
01C000
01E040
01FFC0
00FFC0
007FC0
ENDCHAR
STARTCHAR 006A
ENCODING 106
SWIDTH 495 0
DWIDTH 22 0
BBX 14 38 3 -8
BITMAP
0070
00F8
00F8
00FC
00F8
0078
0000
0000
0000
3FFC
3FFC
3FFC
003C
003C
003C
003C
003C
003C
003C
003C
003C
003C
003C
003C
003C
003C
003C
003C
003C
003C
003C
003C
003C
6078
7FF8
FFF0
7FE0
0200
ENDCHAR
STARTCHAR 006B
ENCODING 107
SWIDTH 495 0
DWIDTH 22 0
BBX 18 31 3 0
BITMAP
300000
F00000
F00000
F00000
F00000
F00000
F00000
F00000
F00000
F00000
F00780
F00F00
F01F00
F03C00
F07800
F0F000
F1E000
F3C000
FF8000
FF0000
FF8000
FFC000
F3E000
F1F000
F0F800
F07C00
F03E00
F01F00
F00F80
F00780
F003C0
ENDCHAR
STARTCHAR 006C
ENCODING 108
SWIDTH 495 0
DWIDTH 22 0
BBX 18 31 2 0
BITMAP
FFC000
FFC000
FFC000
FFC000
03C000
03C000
03C000
03C000
03C000
03C000
03C000
03C000
03C000
03C000
03C000
03C000
03C000
03C000
03C000
03C000
03C000
03C000
03C000
03C000
03C000
03C000
01C000
01E040
01FFC0
00FFC0
007FC0
ENDCHAR
STARTCHAR 006D
ENCODING 109
SWIDTH 495 0
DWIDTH 22 0
BBX 19 21 2 0
BITMAP
7F1F00
FFFF80
FFFFC0
E1E3C0
E1E1C0
E0E1E0
E0E1E0
E0E1E0
E0E1E0
E0E1E0
E0E1E0
E0E1E0
E0E1E0
E001E0
E001E0
E001E0
E001E0
E001E0
E001E0
E001E0
E001E0
ENDCHAR
STARTCHAR 006E
ENCODING 110
SWIDTH 495 0
DWIDTH 22 0
BBX 16 21 3 0
BITMAP
3FF0
FFF8
FFFC
F03E
F01F
F00F
F00F
F00F
F007
F007
F007
F007
F007
F007
F007
F007
F007
F007
F007
F007
F007
ENDCHAR
STARTCHAR 006F
ENCODING 111
SWIDTH 495 0
DWIDTH 22 0
BBX 18 21 2 0
BITMAP
03F000
0FFC00
1FFE00
3E1F00
7C0780
780780
F003C0
F003C0
F003C0
F001C0
F001C0
F001C0
F001C0
F003C0
F003C0
7803C0
780780
3C0F80
3FFF00
1FFE00
07F800
ENDCHAR
STARTCHAR 0070
ENCODING 112
SWIDTH 495 0
DWIDTH 22 0
BBX 17 28 3 -7
BITMAP
3FE000
FFF800
FFFC00
F07E00
F01F00
F00F00
F00780
F00780
F00780
F00380
F00380
F00380
F00380
F00780
F00780
F00780
F00F00
F81F00
FFFE00
FFFC00
FFF800
F00000
F00000
F00000
F00000
F00000
F00000
F00000
ENDCHAR
STARTCHAR 0071
ENCODING 113
SWIDTH 495 0
DWIDTH 22 0
BBX 17 28 2 -7
BITMAP
03FE00
0FFF80
1FFF80
3F0780
7C0780
780780
F00780
F00780
F00780
F00780
F00780
F00780
F00780
F00780
F00780
780780
780780
7C0F80
3FFF80
1FFF80
07FF80
000780
000780
000780
000780
000780
000780
000780
ENDCHAR
STARTCHAR 0072
ENCODING 114
SWIDTH 495 0
DWIDTH 22 0
BBX 14 21 5 0
BITMAP
1FFC
FFFC
FFFC
F804
E000
E000
E000
E000
E000
E000
E000
E000
E000
E000
E000
E000
E000
E000
E000
E000
E000
ENDCHAR
STARTCHAR 0073
ENCODING 115
SWIDTH 495 0
DWIDTH 22 0
BBX 16 21 3 0
BITMAP
0FFC
3FFE
7FFE
7C06
F000
F000
F000
7800
7E00
3FC0
0FF0
03FC
007E
001F
000F
0007
000F
E00F
FFFF
FFFE
7FF8
ENDCHAR
STARTCHAR 0074
ENCODING 116
SWIDTH 495 0
DWIDTH 22 0
BBX 17 27 3 0
BITMAP
070000
0F0000
0F0000
0F0000
0F0000
0F0000
FFFF80
FFFF80
FFFF80
0F0000
0F0000
0F0000
0F0000
0F0000
0F0000
0F0000
0F0000
0F0000
0F0000
0F0000
0F0000
0F0000
0F0000
078080
07FF80
03FF80
01FF80
ENDCHAR
STARTCHAR 0075
ENCODING 117
SWIDTH 495 0
DWIDTH 22 0
BBX 16 21 3 0
BITMAP
F00F
F00F
F00F
F00F
F00F
F00F
F00F
F00F
F00F
F00F
F00F
F00F
F00F
F00F
F00F
F00F
780F
7C0F
3FFF
3FFF
0FFF
ENDCHAR
STARTCHAR 0076
ENCODING 118
SWIDTH 495 0
DWIDTH 22 0
BBX 20 21 1 0
BITMAP
F000F0
7800F0
7801E0
7801E0
3C01E0
3C03C0
3C03C0
1E03C0
1E0780
1E0780
0F0700
0F0F00
0F0F00
079E00
079E00
03DC00
03FC00
01F800
01F800
00F000
00F000
ENDCHAR
STARTCHAR 0077
ENCODING 119
SWIDTH 495 0
DWIDTH 22 0
BBX 20 21 1 0
BITMAP
E00070
E00070
E00070
F00070
F00070
F07070
70F0F0
70F0F0
70F8E0
71F8E0
71F8E0
79D8E0
7B9CE0
3B9DE0
3B8FC0
3F0FC0
3F0FC0
3E07C0
1E07C0
1E0380
1C0380
ENDCHAR
STARTCHAR 0078
ENCODING 120
SWIDTH 495 0
DWIDTH 22 0
BBX 19 21 2 0
BITMAP
F003C0
F803C0
780780
3C0F00
1E1E00
1F1E00
0F3C00
07F800
03F800
01F000
01F000
03F800
07F800
0F3C00
0F1E00
1E1F00
3C0F00
780780
7807C0
F003C0
E001E0
ENDCHAR
STARTCHAR 0079
ENCODING 121
SWIDTH 495 0
DWIDTH 22 0
BBX 18 28 2 -7
BITMAP
F001C0
F003C0
7803C0
7803C0
780380
3C0780
3C0780
3C0780
1E0700
1E0F00
1E0F00
0F0E00
0F1E00
071E00
079C00
03BC00
03FC00
03F800
01F800
01F000
00F000
00F000
00E000
01E000
03C000
FF8000
FF0000
FE0000
ENDCHAR
STARTCHAR 007A
ENCODING 122
SWIDTH 495 0
DWIDTH 22 0
BBX 16 21 3 0
BITMAP
7FFF
7FFF
7FFF
001E
003E
007C
00F8
00F0
01E0
03C0
07C0
0780
0F00
1F00
1E00
3C00
7800
7800
FFFF
FFFF
FFFF
ENDCHAR
STARTCHAR 007B
ENCODING 123
SWIDTH 495 0
DWIDTH 22 0
BBX 15 38 4 -7
BITMAP
00FE
03FE
07FE
0780
0700
0F00
0F00
0F00
0F00
0F00
0F00
0F00
0F00
0F00
0F00
0F00
0E00
3E00
FC00
F800
FC00
1E00
0E00
0F00
0F00
0F00
0F00
0F00
0F00
0F00
0F00
0F00
0F00
0F00
0780
07FE
03FE
01FE
ENDCHAR
STARTCHAR 007C
ENCODING 124
SWIDTH 495 0
DWIDTH 22 0
BBX 4 38 9 -7
BITMAP
F0
F0
F0
F0
F0
F0
F0
F0
F0
F0
F0
F0
F0
F0
F0
F0
F0
F0
F0
F0
F0
F0
F0
F0
F0
F0
F0
F0
F0
F0
F0
F0
F0
F0
F0
F0
F0
F0
ENDCHAR
STARTCHAR 007D
ENCODING 125
SWIDTH 495 0
DWIDTH 22 0
BBX 16 38 3 -7
BITMAP
FF00
FF80
FFC0
03C0
01E0
01E0
01E0
01E0
01E0
01E0
01E0
01E0
01E0
01E0
00E0
00E0
00F0
0078
007F
003F
007F
00F0
00E0
00E0
01E0
01E0
01E0
01E0
01E0
01E0
01E0
01E0
01E0
01E0
01E0
FFC0
FF80
FF00
ENDCHAR
STARTCHAR 007E
ENCODING 126
SWIDTH 495 0
DWIDTH 22 0
BBX 18 7 2 8
BITMAP
1E0080
3F80C0
7FE1C0
F3FFC0
E0FF80
C03F00
000400
ENDCHAR
STARTCHAR 00A0
ENCODING 160
SWIDTH 495 0
DWIDTH 22 0
BBX 0 0 0 0
BITMAP
ENDCHAR
STARTCHAR 00A1
ENCODING 161
SWIDTH 495 0
DWIDTH 22 0
BBX 6 28 8 -7
BITMAP
30
78
FC
FC
FC
78
00
00
00
00
30
30
38
78
78
78
78
78
78
78
78
78
78
78
78
78
78
78
ENDCHAR
STARTCHAR 00A2
ENCODING 162
SWIDTH 495 0
DWIDTH 22 0
BBX 18 32 2 -4
BITMAP
007000
007000
007000
007000
007000
007000
01FF00
07FF80
1FFF80
3F8180
3E0000
780000
780000
F00000
F00000
F00000
F00000
F00000
F00000
F00000
780000
7C0000
3E0000
1FE3C0
0FFFC0
07FFC0
00FE00
007000
007000
007000
007000
007000
ENDCHAR
STARTCHAR 00A3
ENCODING 163
SWIDTH 495 0
DWIDTH 22 0
BBX 18 28 2 0
BITMAP
007F00
01FF80
03FF80
07E380
0F8000
0F0000
0F0000
0E0000
0E0000
0E0000
0E0000
0E0000
0E0000
FFFE00
FFFE00
FFFE00
0E0000
0E0000
0E0000
0E0000
1E0000
1E0000
1E0000
1E0000
1E0000
1FFFC0
1FFFC0
1FFFC0
ENDCHAR
STARTCHAR 00A4
ENCODING 164
SWIDTH 495 0
DWIDTH 22 0
BBX 18 18 2 4
BITMAP
600080
F001C0
FFFBC0
7FFF80
3F3F00
3C0F00
380700
380380
700380
700380
380380
380700
3C0700
1E1F00
3FFF80
7FFFC0
F3F3C0
600180
ENDCHAR
STARTCHAR 00A5
ENCODING 165
SWIDTH 495 0
DWIDTH 22 0
BBX 21 28 1 0
BITMAP
F00078
F000F0
7800F0
7801E0
3C01E0
3C03C0
1E0380
1E0780
0F0700
070F00
079E00
03DC00
03FC00
01F800
3FFFC0
3FFFC0
3FFFC0
00F000
00F000
00F000
00F000
3FFFC0
3FFFC0
3FFFC0
00F000
00F000
00F000
00F000
ENDCHAR
STARTCHAR 00A6
ENCODING 166
SWIDTH 495 0
DWIDTH 22 0
BBX 4 38 9 -7
BITMAP
F0
F0
F0
F0
F0
F0
F0
F0
F0
F0
F0
F0
F0
F0
F0
00
00
00
00
00
00
00
00
F0
F0
F0
F0
F0
F0
F0
F0
F0
F0
F0
F0
F0
F0
F0
ENDCHAR
STARTCHAR 00A7
ENCODING 167
SWIDTH 495 0
DWIDTH 22 0
BBX 16 32 3 -4
BITMAP
07FC
1FFE
3FFE
3C06
3800
7800
7800
3C00
3E00
1FC0
1FF8
3FFC
787E
F01F
E00F
E007
F007
F007
780F
7F1E
3FFC
0FF8
03FC
007C
001E
000E
000E
000E
401E
7FFE
FFFC
7FF0
ENDCHAR
STARTCHAR 00A8
ENCODING 168
SWIDTH 495 0
DWIDTH 22 0
BBX 12 5 5 24
BITMAP
70E0
F8F0
F8F0
F0F0
2000
ENDCHAR
STARTCHAR 00A9
ENCODING 169
SWIDTH 495 0
DWIDTH 22 0
BBX 19 21 2 0
BITMAP
03F800
0FFC00
1F1F00
380780
700380
60F1C0
E3F1C0
E7F0C0
C700E0
CE00E0
CE00E0
CE00E0
C700E0
C790C0
E7F1C0
E3F1C0
700380
780780
3C0F00
1FFE00
07F800
ENDCHAR
STARTCHAR 00AA
ENCODING 170
SWIDTH 495 0
DWIDTH 22 0
BBX 12 15 5 13
BITMAP
3F80
3FE0
3FE0
0070
0070
0070
1FF0
7FF0
7870
E070
E070
E070
7FF0
7FF0
1FE0
ENDCHAR
STARTCHAR 00AB
ENCODING 171
SWIDTH 495 0
DWIDTH 22 0
BBX 15 15 3 4
BITMAP
0404
0E0E
1E1E
1C1C
3838
7878
7070
F0F0
F0F0
7878
3838
3C3C
1C1C
0E0E
0E0E
ENDCHAR
STARTCHAR 00AC
ENCODING 172
SWIDTH 495 0
DWIDTH 22 0
BBX 18 13 2 2
BITMAP
FFFFC0
FFFFC0
FFFFC0
0001C0
0001C0
0001C0
0001C0
0001C0
0001C0
0001C0
0001C0
0001C0
0001C0
ENDCHAR
STARTCHAR 00AD
ENCODING 173
SWIDTH 495 0
DWIDTH 22 0
BBX 10 3 6 10
BITMAP
FFC0
FFC0
FFC0
ENDCHAR
STARTCHAR 00AE
ENCODING 174
SWIDTH 495 0
DWIDTH 22 0
BBX 19 21 2 0
BITMAP
03F800
0FFC00
1F1F00
380780
700380
67E1C0
E7F9C0
E778C0
C718E0
C718E0
C7F8E0
C7F0E0
C7F0E0
C730C0
E739C0
E71DC0
700380
780780
3C0F00
1FFE00
07F800
ENDCHAR
STARTCHAR 00AF
ENCODING 175
SWIDTH 495 0
DWIDTH 22 0
BBX 12 3 5 25
BITMAP
FFF0
FFF0
FFF0
ENDCHAR
STARTCHAR 00B0
ENCODING 176
SWIDTH 495 0
DWIDTH 22 0
BBX 11 11 6 20
BITMAP
1E00
7F80
FFC0
E1C0
C0E0
C0E0
C0E0
E0C0
F3C0
7F80
3F00
ENDCHAR
STARTCHAR 00B1
ENCODING 177
SWIDTH 495 0
DWIDTH 22 0
BBX 18 25 2 0
BITMAP
00E000
00E000
00E000
00E000
00E000
00E000
00E000
00E000
FFFFC0
FFFFC0
FFFFC0
00E000
00E000
00E000
00E000
00E000
00E000
00E000
00E000
000000
000000
000000
FFFFC0
FFFFC0
FFFFC0
ENDCHAR
STARTCHAR 00B2
ENCODING 178
SWIDTH 495 0
DWIDTH 22 0
BBX 11 16 6 12
BITMAP
3F00
FF80
F3C0
01C0
01C0
01C0
0380
0780
0F00
1E00
3C00
7000
7000
FFE0
FFE0
FFE0
ENDCHAR
STARTCHAR 00B3
ENCODING 179
SWIDTH 495 0
DWIDTH 22 0
BBX 11 16 6 12
BITMAP
7F00
FF80
E7C0
01C0
01C0
0380
1F80
1F00
1FC0
01C0
00E0
00E0
01C0
FFC0
FF80
7E00
ENDCHAR
STARTCHAR 00B4
ENCODING 180
SWIDTH 495 0
DWIDTH 22 0
BBX 7 8 8 23
BITMAP
08
0C
1E
3C
78
F0
E0
40
ENDCHAR
STARTCHAR 00B5
ENCODING 181
SWIDTH 495 0
DWIDTH 22 0
BBX 16 28 3 -7
BITMAP
F00F
F00F
F00F
F00F
F00F
F00F
F00F
F00F
F00F
F00F
F00F
F00F
F00F
F00F
F00F
F00F
F80F
FC0F
FFFF
FFFF
FFFF
F000
F000
F000
F000
F000
F000
F000
ENDCHAR
STARTCHAR 00B6
ENCODING 182
SWIDTH 495 0
DWIDTH 22 0
BBX 19 35 1 -7
BITMAP
007F80
07FFE0
1FFFE0
3FF0E0
7FF0E0
7FF0E0
7FF0E0
FFF0E0
FFF0E0
FFF0E0
FFF0E0
FFF0E0
7FF0E0
7FF0E0
3FF0E0
1FF0E0
07F0E0
00F0E0
0070E0
0070E0
0070E0
0070E0
0070E0
0070E0
0070E0
0070E0
0070E0
0070E0
0070E0
0070E0
0070E0
0070E0
0070E0
0070E0
0070E0
ENDCHAR
STARTCHAR 00B7
ENCODING 183
SWIDTH 495 0
DWIDTH 22 0
BBX 6 7 8 8
BITMAP
78
FC
FC
FC
FC
FC
38
ENDCHAR
STARTCHAR 00B8
ENCODING 184
SWIDTH 495 0
DWIDTH 22 0
BBX 7 8 7 -8
BITMAP
0C
1C
18
3E
0E
0E
FE
FC
ENDCHAR
STARTCHAR 00B9
ENCODING 185
SWIDTH 495 0
DWIDTH 22 0
BBX 11 16 6 12
BITMAP
0600
1E00
3E00
FE00
EE00
0E00
0E00
0E00
0E00
0E00
0E00
0E00
0E00
FFE0
FFE0
FFE0
ENDCHAR
STARTCHAR 00BA
ENCODING 186
SWIDTH 495 0
DWIDTH 22 0
BBX 14 15 4 13
BITMAP
0FC0
3FF0
7FF8
7038
F01C
E01C
E01C
E01C
E01C
E01C
F01C
7838
3FF8
1FF0
0FC0
ENDCHAR
STARTCHAR 00BB
ENCODING 187
SWIDTH 495 0
DWIDTH 22 0
BBX 15 15 4 4
BITMAP
6060
E0E0
7070
7878
3838
3C3C
1E1E
1E1E
1E1E
3C3C
383C
7878
7070
E0E0
E0E0
ENDCHAR
STARTCHAR 00BC
ENCODING 188
SWIDTH 495 0
DWIDTH 22 0
BBX 20 28 1 0
BITMAP
0C0000
1C00F0
7C00E0
FC01C0
CC01C0
0C0380
0C0780
0C0700
0C0E00
0C0E00
0C1C00
003800
003800
007000
00F000
00E000
01C000
01C3E0
0383E0
0786E0
070EE0
0E0CE0
0E1CE0
1C18E0
383FF0
383FF0
7000E0
7000E0
ENDCHAR
STARTCHAR 00BD
ENCODING 189
SWIDTH 495 0
DWIDTH 22 0
BBX 20 28 1 0
BITMAP
0E0070
1E00E0
7E01C0
FE01C0
6E0380
0E0380
0E0700
0E0E00
0E0E00
0E1C00
0E3C00
003800
007000
007000
00E000
01E000
01C000
038FE0
038FF0
070470
0E0070
0E0070
1C00E0
3C03C0
380780
700E00
700FF0
E00FF0
ENDCHAR
STARTCHAR 00BE
ENCODING 190
SWIDTH 495 0
DWIDTH 22 0
BBX 20 28 1 0
BITMAP
7E0070
FF0070
4700E0
0701C0
3E01C0
3E0380
3F0780
030700
030E00
FF0E00
FE1C00
783C00
003800
007000
007000
00E000
01C000
01C3E0
0383E0
0386E0
070EE0
0E0CE0
0E1CE0
1C18E0
3C3FF0
383FF0
7000E0
7000E0
ENDCHAR
STARTCHAR 00BF
ENCODING 191
SWIDTH 495 0
DWIDTH 22 0
BBX 14 29 4 -8
BITMAP
0180
03E0
07E0
07E0
07E0
03C0
0000
0000
0000
0000
01C0
01C0
03C0
03C0
0780
0F00
1E00
3C00
7800
7800
F000
F000
F000
F000
F808
7FFC
3FFC
1FF8
0100
ENDCHAR
STARTCHAR 00C0
ENCODING 192
SWIDTH 495 0
DWIDTH 22 0
BBX 21 37 1 0
BITMAP
008000
01C000
03E000
01F000
00F000
003800
001C00
000000
000000
00F000
00F800
01F800
01FC00
03FC00
039C00
039E00
079E00
070E00
070F00
0F0F00
0E0700
0E0780
1E0780
1E0380
1C0380
1C03C0
3C03C0
3FFFC0
3FFFE0
7FFFE0
7801E0
7000E0
7000F0
F000F0
F000F0
E00070
E00078
ENDCHAR
STARTCHAR 00C1
ENCODING 193
SWIDTH 495 0
DWIDTH 22 0
BBX 21 37 1 0
BITMAP
001000
003800
007C00
007800
00F000
01E000
01C000
008000
000000
00F000
00F800
01F800
01FC00
03FC00
039C00
039E00
079E00
070E00
070F00
0F0F00
0E0700
0E0780
1E0780
1E0380
1C0380
1C03C0
3C03C0
3FFFC0
3FFFE0
7FFFE0
7801E0
7000E0
7000F0
F000F0
F000F0
E00070
E00078
ENDCHAR
STARTCHAR 00C2
ENCODING 194
SWIDTH 495 0
DWIDTH 22 0
BBX 21 36 1 1
BITMAP
006000
00F000
01F800
03FC00
079E00
070600
020000
000000
00F000
00F800
01F800
01FC00
03FC00
039C00
039E00
079E00
070E00
070F00
0F0F00
0E0700
0E0780
1E0780
1E0380
1C0380
1C03C0
3C03C0
3FFFC0
3FFFE0
7FFFE0
7801E0
7000E0
7000F0
F000F0
F000F0
E00070
E00078
ENDCHAR
STARTCHAR 00C3
ENCODING 195
SWIDTH 495 0
DWIDTH 22 0
BBX 21 35 1 0
BITMAP
03C300
07FF00
0FFE00
0E3C00
000000
000000
000000
00F000
00F800
01F800
01FC00
03FC00
039C00
039E00
079E00
070E00
070F00
0F0F00
0E0700
0E0780
1E0780
1E0380
1C0380
1C03C0
3C03C0
3FFFC0
3FFFE0
7FFFE0
7801E0
7000E0
7000F0
F000F0
F000F0
E00070
E00078
ENDCHAR
STARTCHAR 00C4
ENCODING 196
SWIDTH 495 0
DWIDTH 22 0
BBX 21 35 1 0
BITMAP
070F00
0F8F00
0F8F00
070F00
000000
000000
000000
00F000
00F800
01F800
01FC00
03FC00
039C00
039E00
079E00
070E00
070F00
0F0F00
0E0700
0E0780
1E0780
1E0380
1C0380
1C03C0
3C03C0
3FFFC0
3FFFE0
7FFFE0
7801E0
7000E0
7000F0
F000F0
F000F0
E00070
E00078
ENDCHAR
STARTCHAR 00C5
ENCODING 197
SWIDTH 495 0
DWIDTH 22 0
BBX 21 33 1 0
BITMAP
00F800
01FC00
030C00
030C00
030C00
039C00
01F800
01F800
01F800
01FC00
039C00
039E00
079E00
070E00
070F00
0F0F00
0E0700
0E0700
1E0780
1E0380
1C0380
1C03C0
3C03C0
3FFFC0
3FFFE0
7FFFE0
7801E0
7000E0
7000F0
F000F0
F000F0
E00070
E00078
ENDCHAR
STARTCHAR 00C6
ENCODING 198
SWIDTH 495 0
DWIDTH 22 0
BBX 20 28 1 0
BITMAP
007FF0
00FFF0
00FFF0
00DFF0
01DC00
01DC00
03DC00
039C00
039C00
079C00
071C00
071C00
071FE0
0E1FE0
0E1FE0
0E1C00
1E1C00
1C1C00
1FFC00
3FFC00
3FFC00
381C00
381C00
781C00
781C00
701FF0
701FF0
F01FF0
ENDCHAR
STARTCHAR 00C7
ENCODING 199
SWIDTH 495 0
DWIDTH 22 0
BBX 18 35 2 -8
BITMAP
00FE00
03FFC0
0FFFC0
1F83C0
1E0000
3C0000
3C0000
780000
780000
700000
F00000
F00000
F00000
F00000
F00000
F00000
F00000
F00000
F00000
700000
780000
780000
3C0000
3E0000
1F00C0
0FFFC0
07FFC0
03FF80
003800
003000
007C00
001C00
001C00
01FC00
01F800
ENDCHAR
STARTCHAR 00C8
ENCODING 200
SWIDTH 495 0
DWIDTH 22 0
BBX 16 37 4 0
BITMAP
0200
0600
0F00
0780
03C0
01E0
00E0
0040
0000
FFFE
FFFE
FFFE
FFFE
F000
F000
F000
F000
F000
F000
F000
F000
FFFC
FFFC
FFFC
F000
F000
F000
F000
F000
F000
F000
F000
F000
F000
FFFF
FFFF
FFFF
ENDCHAR
STARTCHAR 00C9
ENCODING 201
SWIDTH 495 0
DWIDTH 22 0
BBX 16 37 4 0
BITMAP
0040
0060
00F0
01E0
03C0
0780
0700
0200
0000
FFFE
FFFE
FFFE
FFFE
F000
F000
F000
F000
F000
F000
F000
F000
FFFC
FFFC
FFFC
F000
F000
F000
F000
F000
F000
F000
F000
F000
F000
FFFF
FFFF
FFFF
ENDCHAR
STARTCHAR 00CA
ENCODING 202
SWIDTH 495 0
DWIDTH 22 0
BBX 16 36 4 1
BITMAP
0180
03C0
07E0
0FF0
1E78
1838
0000
0000
FFFE
FFFE
FFFE
FFFE
F000
F000
F000
F000
F000
F000
F000
F000
FFFC
FFFC
FFFC
F000
F000
F000
F000
F000
F000
F000
F000
F000
F000
FFFF
FFFF
FFFF
ENDCHAR
STARTCHAR 00CB
ENCODING 203
SWIDTH 495 0
DWIDTH 22 0
BBX 16 35 4 0
BITMAP
3C38
3C7C
3C7C
3C38
0000
0000
0000
FFFE
FFFE
FFFE
FFFE
F000
F000
F000
F000
F000
F000
F000
F000
FFFC
FFFC
FFFC
F000
F000
F000
F000
F000
F000
F000
F000
F000
F000
FFFF
FFFF
FFFF
ENDCHAR
STARTCHAR 00CC
ENCODING 204
SWIDTH 495 0
DWIDTH 22 0
BBX 14 37 4 0
BITMAP
0400
0E00
1F00
0780
0380
01C0
00E0
0000
0000
FFFC
FFFC
FFFC
FFFC
0780
0780
0780
0780
0780
0780
0780
0780
0780
0780
0780
0780
0780
0780
0780
0780
0780
0780
0780
0780
0780
FFFC
FFFC
FFFC
ENDCHAR
STARTCHAR 00CD
ENCODING 205
SWIDTH 495 0
DWIDTH 22 0
BBX 14 36 4 1
BITMAP
00C0
01E0
03C0
0780
0700
0E00
0400
0000
FFFC
FFFC
FFFC
FFFC
0780
0780
0780
0780
0780
0780
0780
0780
0780
0780
0780
0780
0780
0780
0780
0780
0780
0780
0780
0780
0780
FFFC
FFFC
FFFC
ENDCHAR
STARTCHAR 00CE
ENCODING 206
SWIDTH 495 0
DWIDTH 22 0
BBX 14 36 4 1
BITMAP
0300
0780
0FC0
1FE0
3CF0
3830
1000
0000
FFFC
FFFC
FFFC
FFFC
0780
0780
0780
0780
0780
0780
0780
0780
0780
0780
0780
0780
0780
0780
0780
0780
0780
0780
0780
0780
0780
FFFC
FFFC
FFFC
ENDCHAR
STARTCHAR 00CF
ENCODING 207
SWIDTH 495 0
DWIDTH 22 0
BBX 14 35 4 0
BITMAP
3878
7C78
7C78
3878
0000
0000
0000
FFFC
FFFC
FFFC
FFFC
0780
0780
0780
0780
0780
0780
0780
0780
0780
0780
0780
0780
0780
0780
0780
0780
0780
0780
0780
0780
0780
FFFC
FFFC
FFFC
ENDCHAR
STARTCHAR 00D0
ENCODING 208
SWIDTH 495 0
DWIDTH 22 0
BBX 19 28 1 0
BITMAP
0FC000
3FFC00
3FFE00
3C7F00
3C0F80
3C07C0
3C03C0
3C01C0
3C01E0
3C01E0
3C01E0
3C00E0
FFC0E0
FFC0E0
FFC0E0
3C00E0
3C00E0
3C01E0
3C01E0
3C01E0
3C01E0
3C03C0
3C03C0
3C0780
3C1F80
3FFF00
3FFC00
3FF000
ENDCHAR
STARTCHAR 00D1
ENCODING 209
SWIDTH 495 0
DWIDTH 22 0
BBX 18 35 2 0
BITMAP
078600
0FFE00
1FFC00
1C7800
000000
000000
000000
F003C0
F803C0
F803C0
FC03C0
FC03C0
FE03C0
FE03C0
F703C0
F783C0
F383C0
F3C3C0
F1C3C0
F1C3C0
F0E3C0
F0E3C0
F073C0
F073C0
F07BC0
F03BC0
F03FC0
F01FC0
F01FC0
F00FC0
F00FC0
F007C0
F007C0
F007C0
F003C0
ENDCHAR
STARTCHAR 00D2
ENCODING 210
SWIDTH 495 0
DWIDTH 22 0
BBX 20 38 1 -1
BITMAP
008000
01C000
03E000
00F000
007000
003800
001C00
000000
000000
01FC00
07FE00
0FFF80
1F0F80
3E03C0
3C03C0
7801E0
7801E0
7800E0
7000F0
F000F0
F000F0
F000F0
F000F0
F000F0
F000F0
F000F0
F000F0
7000F0
7000E0
7801E0
7801E0
3801E0
3C03C0
1E07C0
1FFF80
0FFF00
03FE00
007000
ENDCHAR
STARTCHAR 00D3
ENCODING 211
SWIDTH 495 0
DWIDTH 22 0
BBX 20 37 1 0
BITMAP
001800
003C00
007800
00F000
00E000
01C000
008000
000000
01FC00
07FE00
0FFF80
1F0F80
3E03C0
3C03C0
7801E0
7801E0
7800E0
7000F0
F000F0
F000F0
F000F0
F000F0
F000F0
F000F0
F000F0
F000F0
7000F0
7000E0
7801E0
7801E0
3801E0
3C03C0
1E07C0
1FFF80
0FFF00
03FE00
007000
ENDCHAR
STARTCHAR 00D4
ENCODING 212
SWIDTH 495 0
DWIDTH 22 0
BBX 20 37 1 0
BITMAP
006000
00F000
01F800
03FC00
079E00
070600
020000
000000
01FC00
07FE00
0FFF80
1F0F80
3E03C0
3C03C0
7801E0
7801E0
7800E0
7000F0
F000F0
F000F0
F000F0
F000F0
F000F0
F000F0
F000F0
F000F0
7000F0
7000E0
7801E0
7801E0
3801E0
3C03C0
1E07C0
1FFF80
0FFF00
03FE00
007000
ENDCHAR
STARTCHAR 00D5
ENCODING 213
SWIDTH 495 0
DWIDTH 22 0
BBX 20 36 1 -1
BITMAP
03C300
07FF00
0FFE00
0E3C00
000000
000000
000000
01FC00
07FE00
0FFF80
1F0F80
3E03C0
3C03C0
7801E0
7801E0
7800E0
7000F0
F000F0
F000F0
F000F0
F000F0
F000F0
F000F0
F000F0
F000F0
7000F0
7000E0
7801E0
7801E0
3801E0
3C03C0
1E07C0
1FFF80
0FFF00
03FE00
007000
ENDCHAR
STARTCHAR 00D6
ENCODING 214
SWIDTH 495 0
DWIDTH 22 0
BBX 20 36 1 -1
BITMAP
070F00
0F8F00
0F8F00
070F00
000000
000000
000000
01FC00
07FE00
0FFF80
1F0F80
3E03C0
3C03C0
7801E0
7801E0
7800E0
7000F0
F000F0
F000F0
F000F0
F000F0
F000F0
F000F0
F000F0
F000F0
7000F0
7000E0
7801E0
7801E0
3801E0
3C03C0
1E07C0
1FFF80
0FFF00
03FE00
007000
ENDCHAR
STARTCHAR 00D7
ENCODING 215
SWIDTH 495 0
DWIDTH 22 0
BBX 16 16 3 4
BITMAP
2000
7006
F80F
7C1E
3E3C
1F78
0FF0
07E0
03E0
07F0
0FF8
1E7C
3C3C
781E
F00F
6006
ENDCHAR
STARTCHAR 00D8
ENCODING 216
SWIDTH 495 0
DWIDTH 22 0
BBX 20 30 1 -1
BITMAP
000100
01F9C0
07FFC0
0FFF80
1F0F80
3E07C0
3C0FC0
780FE0
780FE0
781CE0
701CF0
F038F0
F038F0
F078F0
F070F0
F0F0F0
F0E0F0
F1E0F0
F1C0F0
73C0F0
7380E0
7781E0
7F01E0
3F01E0
3E03C0
1E07C0
1FFF80
3FFF00
3BFE00
387000
ENDCHAR
STARTCHAR 00D9
ENCODING 217
SWIDTH 495 0
DWIDTH 22 0
BBX 18 38 2 -1
BITMAP
010000
038000
07C000
03C000
01E000
00F000
007000
002000
000000
F003C0
F003C0
F003C0
F003C0
F003C0
F003C0
F003C0
F003C0
F003C0
F003C0
F003C0
F003C0
F003C0
F003C0
F003C0
F003C0
F003C0
F003C0
F003C0
F003C0
F003C0
F003C0
7003C0
780780
7C0F80
3FFF00
1FFE00
0FFC00
00C000
ENDCHAR
STARTCHAR 00DA
ENCODING 218
SWIDTH 495 0
DWIDTH 22 0
BBX 18 37 2 0
BITMAP
003000
007800
00F000
01E000
01C000
038000
010000
000000
F003C0
F003C0
F003C0
F003C0
F003C0
F003C0
F003C0
F003C0
F003C0
F003C0
F003C0
F003C0
F003C0
F003C0
F003C0
F003C0
F003C0
F003C0
F003C0
F003C0
F003C0
F003C0
7003C0
780780
7C0F80
3FFF00
1FFE00
0FFC00
00C000
ENDCHAR
STARTCHAR 00DB
ENCODING 219
SWIDTH 495 0
DWIDTH 22 0
BBX 18 37 2 0
BITMAP
00C000
01E000
03F000
07F800
0F3C00
0E0C00
040000
000000
F003C0
F003C0
F003C0
F003C0
F003C0
F003C0
F003C0
F003C0
F003C0
F003C0
F003C0
F003C0
F003C0
F003C0
F003C0
F003C0
F003C0
F003C0
F003C0
F003C0
F003C0
F003C0
7003C0
780780
7C0F80
3FFF00
1FFE00
0FFC00
00C000
ENDCHAR
STARTCHAR 00DC
ENCODING 220
SWIDTH 495 0
DWIDTH 22 0
BBX 18 36 2 -1
BITMAP
0E1E00
1F1E00
1F1E00
0E1E00
000000
000000
000000
F003C0
F003C0
F003C0
F003C0
F003C0
F003C0
F003C0
F003C0
F003C0
F003C0
F003C0
F003C0
F003C0
F003C0
F003C0
F003C0
F003C0
F003C0
F003C0
F003C0
F003C0
F003C0
7003C0
780780
7C0F80
3FFF00
1FFE00
0FFC00
00C000
ENDCHAR
STARTCHAR 00DD
ENCODING 221
SWIDTH 495 0
DWIDTH 22 0
BBX 21 36 1 1
BITMAP
001800
003C00
007800
00F000
00E000
01C000
008000
000000
F00078
F000F0
F000F0
7800E0
7801E0
3C01E0
3C03C0
1E03C0
1E0780
0F0780
0F0F00
078E00
079E00
03DC00
03FC00
01F800
00F800
00F000
00F000
00F000
00F000
00F000
00F000
00F000
00F000
00F000
00F000
00F000
ENDCHAR
STARTCHAR 00DE
ENCODING 222
SWIDTH 495 0
DWIDTH 22 0
BBX 17 28 3 0
BITMAP
F00000
F00000
F00000
F00000
F00000
FFE000
FFFC00
FFFE00
F03F00
F00F80
F00780
F00780
F00780
F00780
F00780
F00780
F00780
F00F00
F01F00
FFFE00
FFFC00
FFF000
F00000
F00000
F00000
F00000
F00000
F00000
ENDCHAR
STARTCHAR 00DF
ENCODING 223
SWIDTH 495 0
DWIDTH 22 0
BBX 18 31 3 0
BITMAP
07C000
1FF000
3FF800
7EFC00
783C00
781E00
F01E00
F01E00
F01C00
F03C00
F07800
F0F800
F1F000
F1E000
F3C000
F3C000
F3E000
F1F000
F0FC00
F07F00
F01F80
F00F80
F007C0
F003C0
F003C0
F003C0
F003C0
F003C0
F3FF80
F3FF80
F3FE00
ENDCHAR
STARTCHAR 00E0
ENCODING 224
SWIDTH 495 0
DWIDTH 22 0
BBX 16 31 3 0
BITMAP
0200
0700
0F80
0780
03C0
01E0
00F0
0040
0000
0000
1FF0
3FFC
3FFE
203E
000F
000F
000F
0007
00C7
1FFF
3FFF
7F7F
F807
F007
E007
E007
F007
F807
7FFF
7FFF
1FFF
ENDCHAR
STARTCHAR 00E1
ENCODING 225
SWIDTH 495 0
DWIDTH 22 0
BBX 16 31 3 0
BITMAP
0020
0070
0078
00F0
01E0
03C0
0380
0100
0000
0000
1FF0
3FFC
3FFE
203E
000F
000F
000F
0007
00C7
1FFF
3FFF
7F7F
F807
F007
E007
E007
F007
F807
7FFF
7FFF
1FFF
ENDCHAR
STARTCHAR 00E2
ENCODING 226
SWIDTH 495 0
DWIDTH 22 0
BBX 16 31 3 0
BITMAP
0080
0080
01C0
03E0
0770
0E38
1C1C
0808
0000
0000
1FF0
3FFC
3FFE
203E
000F
000F
000F
0007
00C7
1FFF
3FFF
7F7F
F807
F007
E007
E007
F007
F807
7FFF
7FFF
1FFF
ENDCHAR
STARTCHAR 00E3
ENCODING 227
SWIDTH 495 0
DWIDTH 22 0
BBX 16 29 3 0
BITMAP
0E0C
1FDC
3FF8
38F0
0000
0000
0000
0000
1FF0
3FFC
3FFE
203E
000F
000F
000F
0007
00C7
1FFF
3FFF
7F7F
F807
F007
E007
E007
F007
F807
7FFF
7FFF
1FFF
ENDCHAR
STARTCHAR 00E4
ENCODING 228
SWIDTH 495 0
DWIDTH 22 0
BBX 16 29 3 0
BITMAP
1C38
3E3C
3E3C
3C3C
0800
0000
0000
0000
1FF0
3FFC
3FFE
203E
000F
000F
000F
0007
00C7
1FFF
3FFF
7F7F
F807
F007
E007
E007
F007
F807
7FFF
7FFF
1FFF
ENDCHAR
STARTCHAR 00E5
ENCODING 229
SWIDTH 495 0
DWIDTH 22 0
BBX 16 31 3 0
BITMAP
03C0
07E0
0E30
0C30
0C30
0C30
07F0
03E0
0000
0000
1FF0
3FFC
3FFE
203E
000F
000F
000F
0007
00C7
1FFF
3FFF
7F7F
F807
F007
E007
E007
F007
F807
7FFF
7FFF
1FFF
ENDCHAR
STARTCHAR 00E6
ENCODING 230
SWIDTH 495 0
DWIDTH 22 0
BBX 20 21 1 0
BITMAP
3F8780
3FCFC0
3FFFE0
21FCE0
00F8F0
00F070
00F070
007070
027070
1FFFF0
3FFFF0
7DFFF0
707000
F07000
F07000
F07800
F07800
787C00
7FFFE0
3FFFF0
1FCFE0
ENDCHAR
STARTCHAR 00E7
ENCODING 231
SWIDTH 495 0
DWIDTH 22 0
BBX 18 28 2 -8
BITMAP
01FF80
07FFC0
0FFF80
1F8180
3E0000
7C0000
780000
F00000
F00000
F00000
F00000
F00000
F00000
F00000
780000
780000
7C0000
3F0040
1FFFC0
0FFFC0
03FFC0
007000
006000
00F800
003800
003800
03F800
03F000
ENDCHAR
STARTCHAR 00E8
ENCODING 232
SWIDTH 495 0
DWIDTH 22 0
BBX 18 31 2 0
BITMAP
010000
038000
07C000
03C000
01E000
00F000
007800
002000
000000
000000
03F800
0FFE00
1FFF00
3E0F80
7C0780
7803C0
F003C0
F003C0
F003C0
FFFFC0
FFFFC0
FFFFC0
F00000
F00000
F00000
780000
7C0000
3E0000
1FFF80
0FFF80
07FF00
ENDCHAR
STARTCHAR 00E9
ENCODING 233
SWIDTH 495 0
DWIDTH 22 0
BBX 18 31 2 0
BITMAP
001000
003800
003C00
007800
00F000
01E000
01C000
008000
000000
000000
03F800
0FFE00
1FFF00
3E0F80
7C0780
7803C0
F003C0
F003C0
F003C0
FFFFC0
FFFFC0
FFFFC0
F00000
F00000
F00000
780000
7C0000
3E0000
1FFF80
0FFF80
07FF00
ENDCHAR
STARTCHAR 00EA
ENCODING 234
SWIDTH 495 0
DWIDTH 22 0
BBX 18 30 2 1
BITMAP
006000
00F000
01F800
03FC00
071C00
060E00
040400
000000
000000
03F800
0FFE00
1FFF00
3E0F80
7C0780
7803C0
F003C0
F003C0
F003C0
FFFFC0
FFFFC0
FFFFC0
F00000
F00000
F00000
780000
7C0000
3E0000
1FFF80
0FFF80
07FF00
ENDCHAR
STARTCHAR 00EB
ENCODING 235
SWIDTH 495 0
DWIDTH 22 0
BBX 18 29 2 0
BITMAP
0E0E00
0F1F00
0F1F00
0F0E00
000400
000000
000000
000000
03F800
0FFE00
1FFF00
3E0F80
7C0780
7803C0
F003C0
F003C0
F003C0
FFFFC0
FFFFC0
FFFFC0
F00000
F00000
F00000
780000
7C0000
3E0000
1FFF80
0FFF80
07FF00
ENDCHAR
STARTCHAR 00EC
ENCODING 236
SWIDTH 495 0
DWIDTH 22 0
BBX 18 30 2 1
BITMAP
060000
0F0000
078000
03C000
01C000
00E000
004000
000000
000000
FFC000
FFC000
FFC000
03C000
03C000
03C000
03C000
03C000
03C000
03C000
03C000
03C000
03C000
03C000
03C000
03C000
01C000
01E040
01FFC0
00FFC0
007FC0
ENDCHAR
STARTCHAR 00ED
ENCODING 237
SWIDTH 495 0
DWIDTH 22 0
BBX 18 31 2 0
BITMAP
004000
00E000
00F000
01E000
03C000
078000
070000
020000
000000
000000
FFC000
FFC000
FFC000
03C000
03C000
03C000
03C000
03C000
03C000
03C000
03C000
03C000
03C000
03C000
03C000
03C000
01C000
01E040
01FFC0
00FFC0
007FC0
ENDCHAR
STARTCHAR 00EE
ENCODING 238
SWIDTH 495 0
DWIDTH 22 0
BBX 18 30 2 1
BITMAP
018000
038000
07C000
0EE000
1C7000
383800
101000
000000
000000
FFC000
FFC000
FFC000
03C000
03C000
03C000
03C000
03C000
03C000
03C000
03C000
03C000
03C000
03C000
03C000
03C000
01C000
01E040
01FFC0
00FFC0
007FC0
ENDCHAR
STARTCHAR 00EF
ENCODING 239
SWIDTH 495 0
DWIDTH 22 0
BBX 18 29 2 0
BITMAP
383800
3C7C00
7C7C00
3C7800
101000
000000
000000
000000
FFC000
FFC000
FFC000
03C000
03C000
03C000
03C000
03C000
03C000
03C000
03C000
03C000
03C000
03C000
03C000
03C000
01C000
01E040
01FFC0
00FFC0
007FC0
ENDCHAR
STARTCHAR 00F0
ENCODING 240
SWIDTH 495 0
DWIDTH 22 0
BBX 18 31 2 0
BITMAP
008000
01C000
03E040
00F3C0
007FC0
007F80
03FC00
03FE00
030E00
000F00
000F00
000700
07F780
1FFF80
3FFF80
3C0F80
780780
780380
700380
700380
F00380
F00780
F00780
700780
700780
780700
780F00
3C1E00
1FFE00
1FFC00
07F800
ENDCHAR
STARTCHAR 00F1
ENCODING 241
SWIDTH 495 0
DWIDTH 22 0
BBX 16 29 3 0
BITMAP
0E0C
1FDC
3FF8
38F0
0000
0000
0000
0000
3FF0
FFF8
FFFC
F03E
F01F
F00F
F00F
F00F
F007
F007
F007
F007
F007
F007
F007
F007
F007
F007
F007
F007
F007
ENDCHAR
STARTCHAR 00F2
ENCODING 242
SWIDTH 495 0
DWIDTH 22 0
BBX 18 30 2 1
BITMAP
018000
03C000
01E000
00F000
007000
003800
001000
000000
000000
03F000
0FFC00
1FFE00
3E1F00
7C0780
780780
F003C0
F003C0
F003C0
F001C0
F001C0
F001C0
F001C0
F003C0
F003C0
7803C0
780780
3C0F80
3FFF00
1FFE00
07F800
ENDCHAR
STARTCHAR 00F3
ENCODING 243
SWIDTH 495 0
DWIDTH 22 0
BBX 18 30 2 1
BITMAP
003000
007800
00F000
01E000
01C000
038000
010000
000000
000000
03F000
0FFC00
1FFE00
3E1F00
7C0780
780780
F003C0
F003C0
F003C0
F001C0
F001C0
F001C0
F001C0
F003C0
F003C0
7803C0
780780
3C0F80
3FFF00
1FFE00
07F800
ENDCHAR
STARTCHAR 00F4
ENCODING 244
SWIDTH 495 0
DWIDTH 22 0
BBX 18 30 2 1
BITMAP
00C000
01E000
03F000
07F800
0F3C00
0E1C00
040000
000000
000000
03F000
0FFC00
1FFE00
3E1F00
7C0780
780780
F003C0
F003C0
F003C0
F001C0
F001C0
F001C0
F001C0
F003C0
F003C0
7803C0
780780
3C0F80
3FFF00
1FFE00
07F800
ENDCHAR
STARTCHAR 00F5
ENCODING 245
SWIDTH 495 0
DWIDTH 22 0
BBX 18 29 2 0
BITMAP
070600
0FEE00
1FFC00
1C7800
000000
000000
000000
000000
03F000
0FFC00
1FFE00
3E1F00
7C0780
780780
F003C0
F003C0
F003C0
F001C0
F001C0
F001C0
F001C0
F003C0
F003C0
7803C0
780780
3C0F80
3FFF00
1FFE00
07F800
ENDCHAR
STARTCHAR 00F6
ENCODING 246
SWIDTH 495 0
DWIDTH 22 0
BBX 18 29 2 0
BITMAP
0E1C00
1F1E00
1F1E00
1E1E00
040000
000000
000000
000000
03F000
0FFC00
1FFE00
3E1F00
7C0780
780780
F003C0
F003C0
F003C0
F001C0
F001C0
F001C0
F001C0
F003C0
F003C0
7803C0
780780
3C0F80
3FFF00
1FFE00
07F800
ENDCHAR
STARTCHAR 00F7
ENCODING 247
SWIDTH 495 0
DWIDTH 22 0
BBX 18 20 2 2
BITMAP
00C000
01E000
03F000
03F000
01E000
00C000
000000
000000
000000
FFFFC0
FFFFC0
FFFFC0
000000
000000
000000
00E000
01E000
03F000
01F000
01E000
ENDCHAR
STARTCHAR 00F8
ENCODING 248
SWIDTH 495 0
DWIDTH 22 0
BBX 18 23 2 -1
BITMAP
000080
03F9C0
0FFFC0
1FFF80
3E1F00
7C0F80
781F80
F01FC0
F03BC0
F071C0
F0F1C0
F0E1C0
F1C1C0
F381C0
F783C0
F703C0
7E03C0
7C0780
3C0F80
3FFF00
7FFE00
E7F800
600000
ENDCHAR
STARTCHAR 00F9
ENCODING 249
SWIDTH 495 0
DWIDTH 22 0
BBX 16 31 3 0
BITMAP
0200
0700
0F80
0780
03C0
01E0
00F0
0040
0000
0000
F00F
F00F
F00F
F00F
F00F
F00F
F00F
F00F
F00F
F00F
F00F
F00F
F00F
F00F
F00F
F00F
780F
7C0F
3FFF
3FFF
0FFF
ENDCHAR
STARTCHAR 00FA
ENCODING 250
SWIDTH 495 0
DWIDTH 22 0
BBX 16 30 3 1
BITMAP
0060
00F0
01E0
03C0
0380
0700
0200
0000
0000
F00F
F00F
F00F
F00F
F00F
F00F
F00F
F00F
F00F
F00F
F00F
F00F
F00F
F00F
F00F
F00F
780F
7C0F
3FFF
3FFF
0FFF
ENDCHAR
STARTCHAR 00FB
ENCODING 251
SWIDTH 495 0
DWIDTH 22 0
BBX 16 30 3 1
BITMAP
0180
03C0
07E0
0FF0
1E78
1C38
0800
0000
0000
F00F
F00F
F00F
F00F
F00F
F00F
F00F
F00F
F00F
F00F
F00F
F00F
F00F
F00F
F00F
F00F
780F
7C0F
3FFF
3FFF
0FFF
ENDCHAR
STARTCHAR 00FC
ENCODING 252
SWIDTH 495 0
DWIDTH 22 0
BBX 16 29 3 0
BITMAP
1C38
3E3C
3E3C
3C3C
0800
0000
0000
0000
F00F
F00F
F00F
F00F
F00F
F00F
F00F
F00F
F00F
F00F
F00F
F00F
F00F
F00F
F00F
F00F
780F
7C0F
3FFF
3FFF
0FFF
ENDCHAR
STARTCHAR 00FD
ENCODING 253
SWIDTH 495 0
DWIDTH 22 0
BBX 18 38 2 -7
BITMAP
001000
003800
007C00
007800
00F000
01E000
03C000
008000
000000
000000
F001C0
F003C0
7803C0
7803C0
780380
3C0780
3C0780
3C0780
1E0700
1E0F00
1E0F00
0F0E00
0F1E00
071E00
079C00
03BC00
03FC00
03F800
01F800
01F000
00F000
00F000
00E000
01E000
03C000
FF8000
FF0000
FE0000
ENDCHAR
STARTCHAR 00FE
ENCODING 254
SWIDTH 495 0
DWIDTH 22 0
BBX 17 38 3 -7
BITMAP
300000
F00000
F00000
F00000
F00000
F00000
F00000
F00000
F00000
F00000
F7F000
FFFC00
FFFE00
FC3E00
F00F00
F00F80
F00780
F00780
F00780
F00380
F00380
F00380
F00380
F00780
F00780
F00780
F00F00
F81F00
FFFE00
FFFC00
FFF800
F00000
F00000
F00000
F00000
F00000
F00000
F00000
ENDCHAR
STARTCHAR 00FF
ENCODING 255
SWIDTH 495 0
DWIDTH 22 0
BBX 18 36 2 -7
BITMAP
0F0E00
0F1F00
0F1F00
0F0E00
000400
000000
000000
000000
F001C0
F003C0
7803C0
7803C0
780380
3C0780
3C0780
3C0780
1E0700
1E0F00
1E0F00
0F0E00
0F1E00
071E00
079C00
03BC00
03FC00
03F800
01F800
01F000
00F000
00F000
00E000
01E000
03C000
FF8000
FF0000
FE0000
ENDCHAR
STARTCHAR 0100
ENCODING 256
SWIDTH 495 0
DWIDTH 22 0
BBX 21 34 1 0
BITMAP
0FFF00
0FFF00
000000
000000
000000
000000
00F000
00F800
01F800
01FC00
03FC00
039C00
039E00
079E00
070E00
070F00
0F0F00
0E0700
0E0780
1E0780
1E0380
1C0380
1C03C0
3C03C0
3FFFC0
3FFFE0
7FFFE0
7801E0
7000E0
7000F0
F000F0
F000F0
E00070
E00078
ENDCHAR
STARTCHAR 0101
ENCODING 257
SWIDTH 495 0
DWIDTH 22 0
BBX 16 28 3 0
BITMAP
1FFC
1FFC
1FFC
0000
0000
0000
0000
1FF0
3FFC
3FFE
203E
000F
000F
000F
0007
00C7
1FFF
3FFF
7F7F
F807
F007
E007
E007
F007
F807
7FFF
7FFF
1FFF
ENDCHAR
STARTCHAR 0102
ENCODING 258
SWIDTH 495 0
DWIDTH 22 0
BBX 21 36 1 0
BITMAP
060600
070600
070E00
03FC00
01FC00
006000
000000
000000
00F000
00F800
01F800
01FC00
03FC00
039C00
039E00
079E00
070E00
070F00
0F0F00
0E0700
0E0780
1E0780
1E0380
1C0380
1C03C0
3C03C0
3FFFC0
3FFFE0
7FFFE0
7801E0
7000E0
7000F0
F000F0
F000F0
E00070
E00078
ENDCHAR
STARTCHAR 0103
ENCODING 259
SWIDTH 495 0
DWIDTH 22 0
BBX 16 30 3 0
BITMAP
1818
1818
1C38
0FF8
0FF0
01C0
0000
0000
0000
1FF0
3FFC
3FFE
203E
000F
000F
000F
0007
00C7
1FFF
3FFF
7F7F
F807
F007
E007
E007
F007
F807
7FFF
7FFF
1FFF
ENDCHAR
STARTCHAR 0104
ENCODING 260
SWIDTH 495 0
DWIDTH 22 0
BBX 21 35 1 -7
BITMAP
00F000
00F800
01F800
01FC00
03FC00
039C00
039E00
079E00
070E00
070F00
0F0F00
0E0700
0E0780
1E0780
1E0380
1C0380
1C03C0
3C03C0
3FFFC0
3FFFE0
7FFFE0
7801E0
7000E0
7000F0
F000F0
F000F0
E00070
E00078
000070
0000E0
0001C0
0003C0
0003C0
0003F8
0001F8
ENDCHAR
STARTCHAR 0105
ENCODING 261
SWIDTH 495 0
DWIDTH 22 0
BBX 16 28 3 -7
BITMAP
1FF0
3FFC
3FFE
203E
000F
000F
000F
0007
00C7
1FFF
3FFF
7F7F
F807
F007
E007
E007
F007
F807
7FFF
7FFF
1FFF
001E
001C
0038
0078
0078
007F
003F
ENDCHAR
STARTCHAR 0106
ENCODING 262
SWIDTH 495 0
DWIDTH 22 0
BBX 18 37 2 0
BITMAP
000C00
001E00
003C00
007800
007000
00E000
004000
000000
00FE00
03FFC0
0FFFC0
1F83C0
1E0000
3C0000
3C0000
780000
780000
700000
F00000
F00000
F00000
F00000
F00000
F00000
F00000
F00000
F00000
700000
780000
780000
3C0000
3E0000
1F00C0
0FFFC0
07FFC0
03FF80
003000
ENDCHAR
STARTCHAR 0107
ENCODING 263
SWIDTH 495 0
DWIDTH 22 0
BBX 18 31 2 0
BITMAP
000800
000C00
001E00
003C00
007800
00F000
00E000
004000
000000
000000
01FF80
07FFC0
0FFF80
1F8180
3E0000
7C0000
780000
F00000
F00000
F00000
F00000
F00000
F00000
F00000
780000
780000
7C0000
3F0040
1FFFC0
0FFFC0
03FFC0
ENDCHAR
STARTCHAR 0108
ENCODING 264
SWIDTH 495 0
DWIDTH 22 0
BBX 18 38 2 -1
BITMAP
001000
003800
007C00
00FE00
00EE00
01C700
018300
010100
000000
00FE00
03FFC0
0FFFC0
1F83C0
1E0000
3C0000
3C0000
780000
780000
700000
F00000
F00000
F00000
F00000
F00000
F00000
F00000
F00000
F00000
700000
780000
780000
3C0000
3E0000
1F00C0
0FFFC0
07FFC0
03FF80
003000
ENDCHAR
STARTCHAR 0109
ENCODING 265
SWIDTH 495 0
DWIDTH 22 0
BBX 18 30 2 1
BITMAP
003000
007800
00FC00
00FE00
01C700
038300
010100
000000
000000
01FF80
07FFC0
0FFF80
1F8180
3E0000
7C0000
780000
F00000
F00000
F00000
F00000
F00000
F00000
F00000
780000
780000
7C0000
3F0040
1FFFC0
0FFFC0
03FFC0
ENDCHAR
STARTCHAR 010A
ENCODING 266
SWIDTH 495 0
DWIDTH 22 0
BBX 18 37 2 -1
BITMAP
001000
007C00
007C00
007C00
007C00
003800
000000
000000
00FE00
03FFC0
0FFFC0
1F83C0
1E0000
3C0000
3C0000
780000
780000
700000
F00000
F00000
F00000
F00000
F00000
F00000
F00000
F00000
F00000
700000
780000
780000
3C0000
3E0000
1F00C0
0FFFC0
07FFC0
03FF80
003000
ENDCHAR
STARTCHAR 010B
ENCODING 267
SWIDTH 495 0
DWIDTH 22 0
BBX 18 29 2 0
BITMAP
007C00
007C00
007C00
007C00
003800
000000
000000
000000
01FF80
07FFC0
0FFF80
1F8180
3E0000
7C0000
780000
F00000
F00000
F00000
F00000
F00000
F00000
F00000
780000
780000
7C0000
3F0040
1FFFC0
0FFFC0
03FFC0
ENDCHAR
STARTCHAR 010C
ENCODING 268
SWIDTH 495 0
DWIDTH 22 0
BBX 18 38 2 -1
BITMAP
010100
038380
01C700
00EE00
007C00
003C00
003800
001000
000000
00FE00
03FFC0
0FFFC0
1F83C0
1E0000
3C0000
3C0000
780000
780000
700000
F00000
F00000
F00000
F00000
F00000
F00000
F00000
F00000
F00000
700000
780000
780000
3C0000
3E0000
1F00C0
0FFFC0
07FFC0
03FF80
003000
ENDCHAR
STARTCHAR 010D
ENCODING 269
SWIDTH 495 0
DWIDTH 22 0
BBX 18 31 2 0
BITMAP
010000
038300
03C700
01EE00
00FC00
007800
003800
001000
000000
000000
01FF80
07FFC0
0FFF80
1F8180
3E0000
7C0000
780000
F00000
F00000
F00000
F00000
F00000
F00000
F00000
780000
780000
7C0000
3F0040
1FFFC0
0FFFC0
03FFC0
ENDCHAR
STARTCHAR 010E
ENCODING 270
SWIDTH 495 0
DWIDTH 22 0
BBX 18 37 2 0
BITMAP
101000
183800
1C7000
0EE000
07C000
03C000
038000
010000
000000
3F8000
FFF000
FFFC00
F0FE00
F01F00
F00F00
F00780
F00780
F003C0
F003C0
F003C0
F001C0
F001C0
F001C0
F001C0
F001C0
F001C0
F003C0
F003C0
F003C0
F003C0
F00780
F00780
F00F00
F03E00
FFFC00
FFF800
FFE000
ENDCHAR
STARTCHAR 010F
ENCODING 271
SWIDTH 495 0
DWIDTH 22 0
BBX 21 31 1 0
BITMAP
000638
001E38
001E38
001E38
001E38
001E38
001E30
001E30
001E30
001E00
07DE00
1FFE00
3FFE00
7C3E00
781E00
781E00
F01E00
F01E00
F01E00
F01E00
F01E00
F01E00
F01E00
F01E00
F01E00
781E00
781E00
7C1E00
3FFE00
1FFE00
0FFE00
ENDCHAR
STARTCHAR 0110
ENCODING 272
SWIDTH 495 0
DWIDTH 22 0
BBX 19 28 1 0
BITMAP
0FC000
3FFC00
3FFE00
3C7F00
3C0F80
3C07C0
3C03C0
3C01C0
3C01E0
3C01E0
3C01E0
3C00E0
FFC0E0
FFC0E0
FFC0E0
3C00E0
3C00E0
3C01E0
3C01E0
3C01E0
3C01E0
3C03C0
3C03C0
3C0780
3C1F80
3FFF00
3FFC00
3FF000
ENDCHAR
STARTCHAR 0111
ENCODING 273
SWIDTH 495 0
DWIDTH 22 0
BBX 19 31 2 0
BITMAP
000100
000700
000700
000700
07FFE0
07FFE0
07FFE0
000700
000700
000700
07F700
1FFF00
3FFF00
3E1F00
780F00
780700
F00700
F00700
F00700
F00700
F00700
F00700
F00700
F00700
F00700
780700
780700
3E0700
3FFF00
1FFF00
07FF00
ENDCHAR
STARTCHAR 0112
ENCODING 274
SWIDTH 495 0
DWIDTH 22 0
BBX 16 34 4 0
BITMAP
3FFC
3FFC
0000
0000
0000
0000
FFFE
FFFE
FFFE
FFFE
F000
F000
F000
F000
F000
F000
F000
F000
FFFC
FFFC
FFFC
F000
F000
F000
F000
F000
F000
F000
F000
F000
F000
FFFF
FFFF
FFFF
ENDCHAR
STARTCHAR 0113
ENCODING 275
SWIDTH 495 0
DWIDTH 22 0
BBX 18 28 2 0
BITMAP
0FFE00
0FFE00
0FFE00
000000
000000
000000
000000
03F800
0FFE00
1FFF00
3E0F80
7C0780
7803C0
F003C0
F003C0
F003C0
FFFFC0
FFFFC0
FFFFC0
F00000
F00000
F00000
780000
7C0000
3E0000
1FFF80
0FFF80
07FF00
ENDCHAR
STARTCHAR 0114
ENCODING 276
SWIDTH 495 0
DWIDTH 22 0
BBX 16 36 4 0
BITMAP
1818
1838
1C38
0FF0
0FE0
0180
0000
0000
FFFE
FFFE
FFFE
FFFE
F000
F000
F000
F000
F000
F000
F000
F000
FFFC
FFFC
FFFC
F000
F000
F000
F000
F000
F000
F000
F000
F000
F000
FFFF
FFFF
FFFF
ENDCHAR
STARTCHAR 0115
ENCODING 277
SWIDTH 495 0
DWIDTH 22 0
BBX 18 30 2 0
BITMAP
0E0E00
0E0E00
071C00
07FC00
03F800
00E000
000000
000000
000000
03F800
0FFE00
1FFF00
3E0F80
7C0780
7803C0
F003C0
F003C0
F003C0
FFFFC0
FFFFC0
FFFFC0
F00000
F00000
F00000
780000
7C0000
3E0000
1FFF80
0FFF80
07FF00
ENDCHAR
STARTCHAR 0116
ENCODING 278
SWIDTH 495 0
DWIDTH 22 0
BBX 16 36 4 0
BITMAP
0180
03C0
07E0
07E0
03C0
0180
0000
0000
FFFE
FFFE
FFFE
FFFE
F000
F000
F000
F000
F000
F000
F000
F000
FFFC
FFFC
FFFC
F000
F000
F000
F000
F000
F000
F000
F000
F000
F000
FFFF
FFFF
FFFF
ENDCHAR
STARTCHAR 0117
ENCODING 279
SWIDTH 495 0
DWIDTH 22 0
BBX 18 29 2 0
BITMAP
01F000
01F000
01F000
01F000
00E000
000000
000000
000000
03F800
0FFE00
1FFF00
3E0F80
7C0780
7803C0
F003C0
F003C0
F003C0
FFFFC0
FFFFC0
FFFFC0
F00000
F00000
F00000
780000
7C0000
3E0000
1FFF80
0FFF80
07FF00
ENDCHAR
STARTCHAR 0118
ENCODING 280
SWIDTH 495 0
DWIDTH 22 0
BBX 17 35 4 -7
BITMAP
FFFE00
FFFE00
FFFE00
FFFE00
F00000
F00000
F00000
F00000
F00000
F00000
F00000
F00000
FFFC00
FFFC00
FFFC00
F00000
F00000
F00000
F00000
F00000
F00000
F00000
F00000
F00000
F00000
FFFF00
FFFF00
FFFF00
000F00
001C00
003C00
003800
003800
003F00
001F80
ENDCHAR
STARTCHAR 0119
ENCODING 281
SWIDTH 495 0
DWIDTH 22 0
BBX 18 28 2 -7
BITMAP
03F800
0FFE00
1FFF00
3E0F80
7C0780
7803C0
F003C0
F003C0
F003C0
FFFFC0
FFFFC0
FFFFC0
F00000
F00000
F00000
780000
7C0000
3E0000
1FFF80
0FFF80
07FF80
000E00
001C00
003800
007800
007800
003F00
003F00
ENDCHAR
STARTCHAR 011A
ENCODING 282
SWIDTH 495 0
DWIDTH 22 0
BBX 16 37 4 0
BITMAP
0800
1C18
1E38
0FF0
07E0
03C0
0180
0000
0000
FFFE
FFFE
FFFE
FFFE
F000
F000
F000
F000
F000
F000
F000
F000
FFFC
FFFC
FFFC
F000
F000
F000
F000
F000
F000
F000
F000
F000
F000
FFFF
FFFF
FFFF
ENDCHAR
STARTCHAR 011B
ENCODING 283
SWIDTH 495 0
DWIDTH 22 0
BBX 18 31 2 0
BITMAP
040400
060C00
071C00
07BC00
03F800
01F000
00E000
004000
000000
000000
03F800
0FFE00
1FFF00
3E0F80
7C0780
7803C0
F003C0
F003C0
F003C0
FFFFC0
FFFFC0
FFFFC0
F00000
F00000
F00000
780000
7C0000
3E0000
1FFF80
0FFF80
07FF00
ENDCHAR
STARTCHAR 011C
ENCODING 284
SWIDTH 495 0
DWIDTH 22 0
BBX 18 37 2 0
BITMAP
003000
007800
00FC00
01FE00
03CF00
038300
010000
000000
00FF00
03FFC0
0FFFC0
1F8380
1E0080
3C0000
3C0000
780000
780000
700000
F00000
F00000
F00000
F00000
F001C0
F001C0
F001C0
F001C0
F001C0
7001C0
7801C0
7801C0
3C01C0
3E01C0
1F01C0
0FFFC0
07FFC0
03FFC0
003000
ENDCHAR
STARTCHAR 011D
ENCODING 285
SWIDTH 495 0
DWIDTH 22 0
BBX 17 37 2 -6
BITMAP
00C000
01E000
03F000
07F800
0F3C00
0E1C00
040000
000000
000000
03FE00
0FFF80
1FFF80
3F0780
7C0780
780780
F00780
F00780
F00780
F00780
F00780
F00780
F00780
F00780
F00780
780780
7E0F80
3FFF80
1FFF80
07F780
000780
000780
000780
000F00
401F00
7FFE00
7FFC00
7FF800
ENDCHAR
STARTCHAR 011E
ENCODING 286
SWIDTH 495 0
DWIDTH 22 0
BBX 18 37 2 -1
BITMAP
038380
038380
01C700
01FF00
00FE00
001000
000000
000000
00FF00
03FFC0
0FFFC0
1F8380
1E0080
3C0000
3C0000
780000
780000
700000
F00000
F00000
F00000
F00000
F001C0
F001C0
F001C0
F001C0
F001C0
7001C0
7801C0
7801C0
3C01C0
3E01C0
1F01C0
0FFFC0
07FFC0
03FFC0
003000
ENDCHAR
STARTCHAR 011F
ENCODING 287
SWIDTH 495 0
DWIDTH 22 0
BBX 17 37 2 -7
BITMAP
0C0C00
0C0C00
0E1C00
07FC00
07F800
00E000
000000
000000
000000
03FE00
0FFF80
1FFF80
3F0780
7C0780
780780
F00780
F00780
F00780
F00780
F00780
F00780
F00780
F00780
F00780
780780
7E0F80
3FFF80
1FFF80
07F780
000780
000780
000780
000F00
401F00
7FFE00
7FFC00
7FF800
ENDCHAR
STARTCHAR 0120
ENCODING 288
SWIDTH 495 0
DWIDTH 22 0
BBX 18 37 2 -1
BITMAP
003000
007800
00FC00
00FC00
007800
003000
000000
000000
00FF00
03FFC0
0FFFC0
1F8380
1E0080
3C0000
3C0000
780000
780000
700000
F00000
F00000
F00000
F00000
F001C0
F001C0
F001C0
F001C0
F001C0
7001C0
7801C0
7801C0
3C01C0
3E01C0
1F01C0
0FFFC0
07FFC0
03FFC0
003000
ENDCHAR
STARTCHAR 0121
ENCODING 289
SWIDTH 495 0
DWIDTH 22 0
BBX 17 36 2 -7
BITMAP
01E000
03F000
03F000
01F000
00E000
000000
000000
000000
03FE00
0FFF80
1FFF80
3F0780
7C0780
780780
F00780
F00780
F00780
F00780
F00780
F00780
F00780
F00780
F00780
780780
7E0F80
3FFF80
1FFF80
07F780
000780
000780
000780
000F00
401F00
7FFE00
7FFC00
7FF800
ENDCHAR
STARTCHAR 0122
ENCODING 290
SWIDTH 495 0
DWIDTH 22 0
BBX 18 36 2 -8
BITMAP
00FF00
03FFC0
0FFFC0
1F8380
1E0080
3C0000
3C0000
780000
780000
700000
F00000
F00000
F00000
F00000
F001C0
F001C0
F001C0
F001C0
F001C0
7001C0
7801C0
7801C0
3C01C0
3E01C0
1F01C0
0FFFC0
07FFC0
03FFC0
003000
000000
007800
007800
007800
03F000
03F000
018000
ENDCHAR
STARTCHAR 0123
ENCODING 291
SWIDTH 495 0
DWIDTH 22 0
BBX 17 38 2 -7
BITMAP
003000
007800
00F000
00E000
01E000
01E000
01E000
000000
000000
000000
03FE00
0FFF80
1FFF80
3F0780
7C0780
780780
F00780
F00780
F00780
F00780
F00780
F00780
F00780
F00780
F00780
780780
7E0F80
3FFF80
1FFF80
07F780
000780
000780
000780
000F00
401F00
7FFE00
7FFC00
7FF800
ENDCHAR
STARTCHAR 0124
ENCODING 292
SWIDTH 495 0
DWIDTH 22 0
BBX 18 36 2 1
BITMAP
00C000
01E000
03F000
07F800
0F3C00
0E0C00
040000
000000
F001C0
F001C0
F001C0
F001C0
F001C0
F001C0
F001C0
F001C0
F001C0
F001C0
F001C0
F001C0
FFFFC0
FFFFC0
FFFFC0
F001C0
F001C0
F001C0
F001C0
F001C0
F001C0
F001C0
F001C0
F001C0
F001C0
F001C0
F001C0
F001C0
ENDCHAR
STARTCHAR 0125
ENCODING 293
SWIDTH 495 0
DWIDTH 22 0
BBX 17 37 2 0
BITMAP
080000
1E0000
3F0000
F78000
E18000
008000
000000
780000
780000
780000
780000
780000
780000
780000
780000
780000
7FF800
7FFC00
7FFE00
7C3F00
780F00
780780
780780
780780
780780
780380
780380
780380
780380
780380
780380
780380
780380
780380
780380
780380
780380
ENDCHAR
STARTCHAR 0126
ENCODING 294
SWIDTH 495 0
DWIDTH 22 0
BBX 20 28 1 0
BITMAP
3C03C0
3C03C0
3C03C0
3C03C0
FFFFF0
FFFFF0
FFFFF0
3C03C0
3C03C0
3C03C0
3C03C0
3C03C0
3FFFC0
3FFFC0
3FFFC0
3C03C0
3C03C0
3C03C0
3C03C0
3C03C0
3C03C0
3C03C0
3C03C0
3C03C0
3C03C0
3C03C0
3C03C0
3C03C0
ENDCHAR
STARTCHAR 0127
ENCODING 295
SWIDTH 495 0
DWIDTH 22 0
BBX 18 31 1 0
BITMAP
040000
1C0000
1C0000
1C0000
FFFC00
FFFC00
FFFC00
1C0000
1C0000
1C0000
1DFC00
1FFF00
1FFF00
1F0F80
1C0780
1C03C0
1C03C0
1C03C0
1C03C0
1C01C0
1C01C0
1C01C0
1C01C0
1C01C0
1C01C0
1C01C0
1C01C0
1C01C0
1C01C0
1C01C0
1C01C0
ENDCHAR
STARTCHAR 0128
ENCODING 296
SWIDTH 495 0
DWIDTH 22 0
BBX 14 35 4 0
BITMAP
1E18
3FF8
7FF0
71E0
0000
0000
0000
FFFC
FFFC
FFFC
FFFC
0780
0780
0780
0780
0780
0780
0780
0780
0780
0780
0780
0780
0780
0780
0780
0780
0780
0780
0780
0780
0780
FFFC
FFFC
FFFC
ENDCHAR
STARTCHAR 0129
ENCODING 297
SWIDTH 495 0
DWIDTH 22 0
BBX 18 29 2 0
BITMAP
0E1800
1FB800
3FF800
71F000
000000
000000
000000
000000
FFC000
FFC000
FFC000
03C000
03C000
03C000
03C000
03C000
03C000
03C000
03C000
03C000
03C000
03C000
03C000
03C000
01C000
01E040
01FFC0
00FFC0
007FC0
ENDCHAR
STARTCHAR 012A
ENCODING 298
SWIDTH 495 0
DWIDTH 22 0
BBX 14 34 4 0
BITMAP
7FF8
7FF8
0000
0000
0000
0000
FFFC
FFFC
FFFC
FFFC
0780
0780
0780
0780
0780
0780
0780
0780
0780
0780
0780
0780
0780
0780
0780
0780
0780
0780
0780
0780
0780
FFFC
FFFC
FFFC
ENDCHAR
STARTCHAR 012B
ENCODING 299
SWIDTH 495 0
DWIDTH 22 0
BBX 18 28 2 0
BITMAP
3FF800
3FF800
3FF800
000000
000000
000000
000000
FFC000
FFC000
FFC000
03C000
03C000
03C000
03C000
03C000
03C000
03C000
03C000
03C000
03C000
03C000
03C000
03C000
01C000
01E040
01FFC0
00FFC0
007FC0
ENDCHAR
STARTCHAR 012C
ENCODING 300
SWIDTH 495 0
DWIDTH 22 0
BBX 14 36 4 0
BITMAP
3030
3830
3870
1FE0
0FE0
0300
0000
0000
FFFC
FFFC
FFFC
FFFC
0780
0780
0780
0780
0780
0780
0780
0780
0780
0780
0780
0780
0780
0780
0780
0780
0780
0780
0780
0780
0780
FFFC
FFFC
FFFC
ENDCHAR
STARTCHAR 012D
ENCODING 301
SWIDTH 495 0
DWIDTH 22 0
BBX 18 30 2 0
BITMAP
383800
383800
1C7800
1FF000
0FE000
038000
000000
000000
000000
FFC000
FFC000
FFC000
03C000
03C000
03C000
03C000
03C000
03C000
03C000
03C000
03C000
03C000
03C000
03C000
03C000
01C000
01E040
01FFC0
00FFC0
007FC0
ENDCHAR
STARTCHAR 012E
ENCODING 302
SWIDTH 495 0
DWIDTH 22 0
BBX 14 35 4 -7
BITMAP
FFFC
FFFC
FFFC
FFFC
0780
0780
0780
0780
0780
0780
0780
0780
0780
0780
0780
0780
0780
0780
0780
0780
0780
0780
0780
0780
0780
FFFC
FFFC
FFFC
0700
0E00
1C00
1C00
3C00
1F80
1F80
ENDCHAR
STARTCHAR 012F
ENCODING 303
SWIDTH 495 0
DWIDTH 22 0
BBX 18 37 2 -7
BITMAP
038000
07C000
0FC000
0FC000
07C000
078000
000000
000000
000000
FFC000
FFC000
FFC000
03C000
03C000
03C000
03C000
03C000
03C000
03C000
03C000
03C000
03C000
03C000
03C000
03C000
01C000
01E040
01FFC0
00FFC0
007FC0
000700
000E00
001E00
001C00
001C00
001F80
001FC0
ENDCHAR
STARTCHAR 0130
ENCODING 304
SWIDTH 495 0
DWIDTH 22 0
BBX 14 36 4 0
BITMAP
0300
0780
0FC0
0FC0
0780
0300
0000
0000
FFFC
FFFC
FFFC
FFFC
0780
0780
0780
0780
0780
0780
0780
0780
0780
0780
0780
0780
0780
0780
0780
0780
0780
0780
0780
0780
0780
FFFC
FFFC
FFFC
ENDCHAR
STARTCHAR 0131
ENCODING 305
SWIDTH 495 0
DWIDTH 22 0
BBX 18 21 2 0
BITMAP
FFC000
FFC000
FFC000
03C000
03C000
03C000
03C000
03C000
03C000
03C000
03C000
03C000
03C000
03C000
03C000
03C000
01C000
01E040
01FFC0
00FFC0
007FC0
ENDCHAR
STARTCHAR 0132
ENCODING 306
SWIDTH 495 0
DWIDTH 22 0
BBX 19 29 2 -1
BITMAP
F001E0
F001E0
F001E0
F001E0
F001E0
F001E0
F001E0
F001E0
F001E0
F001E0
F001E0
F001E0
F001E0
F001E0
F001E0
F001E0
F001E0
F001E0
F001E0
F001E0
F001E0
F001E0
F001E0
F001E0
F183C0
F3FFC0
F3FF80
F1FF00
001000
ENDCHAR
STARTCHAR 0133
ENCODING 307
SWIDTH 495 0
DWIDTH 22 0
BBX 14 36 4 -7
BITMAP
783C
F87C
F87C
F87C
7038
0000
0000
0000
7038
7038
7038
7038
7038
7038
7038
7038
7038
7038
7038
7038
7038
7038
7038
7038
7038
7038
7038
7038
7038
0038
0038
0078
0078
0FF0
0FF0
0FC0
ENDCHAR
STARTCHAR 0134
ENCODING 308
SWIDTH 495 0
DWIDTH 22 0
BBX 16 38 3 -1
BITMAP
0020
0060
00F0
01F8
03DC
078E
0706
0200
0000
1FFF
1FFF
1FFF
1FFF
000F
000F
000F
000F
000F
000F
000F
000F
000F
000F
000F
000F
000F
000F
000F
000F
000F
000E
001E
001E
E03E
FFFC
FFF8
7FF0
0300
ENDCHAR
STARTCHAR 0135
ENCODING 309
SWIDTH 495 0
DWIDTH 22 0
BBX 14 38 3 -7
BITMAP
00C0
01E0
03F0
07F8
0F3C
0E1C
0408
0000
0000
3FFC
3FFC
3FFC
003C
003C
003C
003C
003C
003C
003C
003C
003C
003C
003C
003C
003C
003C
003C
003C
003C
003C
003C
003C
003C
6078
7FF8
FFF0
7FE0
0200
ENDCHAR
STARTCHAR 0136
ENCODING 310
SWIDTH 495 0
DWIDTH 22 0
BBX 19 36 3 -8
BITMAP
E003C0
E00780
E00F00
E01F00
E01E00
E03C00
E07800
E0F800
E1F000
E3E000
E3C000
E78000
EF0000
FF0000
FF8000
EFC000
E3E000
E1F000
E0F800
E07C00
E03C00
E03E00
E01F00
E00F00
E00780
E007C0
E003C0
E003E0
000000
000000
01C000
01C000
03C000
0FC000
0F8000
060000
ENDCHAR
STARTCHAR 0137
ENCODING 311
SWIDTH 495 0
DWIDTH 22 0
BBX 18 39 3 -8
BITMAP
300000
F00000
F00000
F00000
F00000
F00000
F00000
F00000
F00000
F00000
F00780
F00F00
F01F00
F03C00
F07800
F0F000
F1E000
F3C000
FF8000
FF0000
FF8000
FFC000
F3E000
F1F000
F0F800
F07C00
F03E00
F01F00
F00F80
F00780
F003C0
000000
000000
01C000
01C000
03C000
0FC000
0F8000
060000
ENDCHAR
STARTCHAR 0138
ENCODING 312
SWIDTH 495 0
DWIDTH 22 0
BBX 18 21 3 0
BITMAP
F00780
F00F00
F01F00
F03C00
F07800
F0F000
F1E000
F3C000
FF8000
FF0000
FF8000
FFC000
F3E000
F1F000
F0F800
F07C00
F03E00
F01F00
F00F80
F00780
F003C0
ENDCHAR
STARTCHAR 0139
ENCODING 313
SWIDTH 495 0
DWIDTH 22 0
BBX 16 36 4 1
BITMAP
0600
0F00
1E00
3C00
7800
7000
2000
0000
F000
F000
F000
F000
F000
F000
F000
F000
F000
F000
F000
F000
F000
F000
F000
F000
F000
F000
F000
F000
F000
F000
F000
F000
F000
FFFF
FFFF
FFFF
ENDCHAR
STARTCHAR 013A
ENCODING 314
SWIDTH 495 0
DWIDTH 22 0
BBX 18 36 2 1
BITMAP
00F000
03F000
07E000
070000
000000
000000
FFC000
FFC000
FFC000
03C000
03C000
03C000
03C000
03C000
03C000
03C000
03C000
03C000
03C000
03C000
03C000
03C000
03C000
03C000
03C000
03C000
03C000
03C000
03C000
03C000
03C000
01C000
01E040
01FFC0
00FFC0
007FC0
ENDCHAR
STARTCHAR 013B
ENCODING 315
SWIDTH 495 0
DWIDTH 22 0
BBX 16 36 4 -8
BITMAP
F000
F000
F000
F000
F000
F000
F000
F000
F000
F000
F000
F000
F000
F000
F000
F000
F000
F000
F000
F000
F000
F000
F000
F000
F000
FFFF
FFFF
FFFF
0000
0000
01C0
03C0
03C0
0FC0
0F80
0400
ENDCHAR
STARTCHAR 013C
ENCODING 316
SWIDTH 495 0
DWIDTH 22 0
BBX 18 38 2 -8
BITMAP
FFC000
FFC000
FFC000
FFC000
03C000
03C000
03C000
03C000
03C000
03C000
03C000
03C000
03C000
03C000
03C000
03C000
03C000
03C000
03C000
03C000
03C000
03C000
03C000
03C000
03C000
03C000
01C000
01E040
01FFC0
00FFC0
007FC0
000000
000000
001E00
001E00
001C00
00FC00
00F800
ENDCHAR
STARTCHAR 013D
ENCODING 317
SWIDTH 495 0
DWIDTH 22 0
BBX 16 28 4 0
BITMAP
F1E0
F1E0
F1E0
F1C0
F1C0
F1C0
F1C0
F1C0
F1C0
F000
F000
F000
F000
F000
F000
F000
F000
F000
F000
F000
F000
F000
F000
F000
F000
FFFF
FFFF
FFFF
ENDCHAR
STARTCHAR 013E
ENCODING 318
SWIDTH 495 0
DWIDTH 22 0
BBX 18 31 2 0
BITMAP
FFC780
FFC780
FFC700
FFC700
03C700
03C700
03C700
03C700
03C700
03C000
03C000
03C000
03C000
03C000
03C000
03C000
03C000
03C000
03C000
03C000
03C000
03C000
03C000
03C000
03C000
03C000
01C000
01E040
01FFC0
00FFC0
007FC0
ENDCHAR
STARTCHAR 013F
ENCODING 319
SWIDTH 495 0
DWIDTH 22 0
BBX 16 28 4 0
BITMAP
F000
F000
F000
F000
F000
F000
F000
F000
F000
F000
F000
F03C
F03E
F07E
F03E
F03C
F000
F000
F000
F000
F000
F000
F000
F000
F000
FFFF
FFFF
FFFF
ENDCHAR
STARTCHAR 0140
ENCODING 320
SWIDTH 495 0
DWIDTH 22 0
BBX 22 31 2 0
BITMAP
FFC000
FFC000
FFC000
FFC000
03C000
03C000
03C000
03C000
03C000
03C000
03C000
03C000
03C000
03C000
03C038
03C07C
03C07C
03C07C
03C078
03C000
03C000
03C000
03C000
03C000
03C000
03C000
01C000
01E040
01FFC0
00FFC0
007FC0
ENDCHAR
STARTCHAR 0141
ENCODING 321
SWIDTH 495 0
DWIDTH 22 0
BBX 19 28 1 0
BITMAP
0F0000
0F0000
0F0000
0F0000
0F0000
0F0000
0F0000
0F0000
0F0000
0F1800
0F7800
0FFC00
0FF000
0FC000
3F0000
FF0000
FF0000
4F0000
0F0000
0F0000
0F0000
0F0000
0F0000
0F0000
0F0000
0FFFE0
0FFFE0
0FFFE0
ENDCHAR
STARTCHAR 0142
ENCODING 322
SWIDTH 495 0
DWIDTH 22 0
BBX 18 31 2 0
BITMAP
FFC000
FFC000
FFC000
FFC000
03C000
03C000
03C000
03C000
03C000
03C000
03C000
03CC00
03FC00
03FC00
03F000
0FC000
3FC000
1FC000
13C000
03C000
03C000
03C000
03C000
03C000
03C000
03C000
01C000
01E040
01FFC0
00FFC0
007FC0
ENDCHAR
STARTCHAR 0143
ENCODING 323
SWIDTH 495 0
DWIDTH 22 0
BBX 18 36 2 1
BITMAP
003000
007800
00F000
01E000
01C000
038000
010000
000000
F003C0
F803C0
F803C0
FC03C0
FC03C0
FE03C0
FE03C0
F703C0
F783C0
F383C0
F3C3C0
F1C3C0
F1C3C0
F0E3C0
F0E3C0
F073C0
F073C0
F07BC0
F03BC0
F03FC0
F01FC0
F01FC0
F00FC0
F00FC0
F007C0
F007C0
F007C0
F003C0
ENDCHAR
STARTCHAR 0144
ENCODING 324
SWIDTH 495 0
DWIDTH 22 0
BBX 16 30 3 1
BITMAP
0060
00F0
01E0
03C0
0380
0700
0200
0000
0000
3FF0
FFF8
FFFC
F03E
F01F
F00F
F00F
F00F
F007
F007
F007
F007
F007
F007
F007
F007
F007
F007
F007
F007
F007
ENDCHAR
STARTCHAR 0145
ENCODING 325
SWIDTH 495 0
DWIDTH 22 0
BBX 18 35 2 -8
BITMAP
F003C0
F803C0
F803C0
FC03C0
FC03C0
FE03C0
FE03C0
F703C0
F783C0
F383C0
F3C3C0
F1C3C0
F1C3C0
F0E3C0
F0E3C0
F073C0
F073C0
F07BC0
F03BC0
F03FC0
F01FC0
F01FC0
F00FC0
F00FC0
F007C0
F007C0
F007C0
F003C0
000000
000000
00F000
00F000
00F000
07E000
07C000
ENDCHAR
STARTCHAR 0146
ENCODING 326
SWIDTH 495 0
DWIDTH 22 0
BBX 16 29 3 -8
BITMAP
3FF0
FFF8
FFFC
F03E
F01F
F00F
F00F
F00F
F007
F007
F007
F007
F007
F007
F007
F007
F007
F007
F007
F007
F007
0000
0000
01C0
01C0
03C0
0FC0
0F80
0600
ENDCHAR
STARTCHAR 0147
ENCODING 327
SWIDTH 495 0
DWIDTH 22 0
BBX 18 37 2 0
BITMAP
040000
0E1C00
0F3C00
07F800
03F000
01E000
00C000
000000
000000
F003C0
F803C0
F803C0
FC03C0
FC03C0
FE03C0
FE03C0
F703C0
F783C0
F383C0
F3C3C0
F1C3C0
F1C3C0
F0E3C0
F0E3C0
F073C0
F073C0
F07BC0
F03BC0
F03FC0
F01FC0
F01FC0
F00FC0
F00FC0
F007C0
F007C0
F007C0
F003C0
ENDCHAR
STARTCHAR 0148
ENCODING 328
SWIDTH 495 0
DWIDTH 22 0
BBX 16 30 3 1
BITMAP
1C18
1E38
0FF0
07E0
03C0
0180
0000
0000
0000
3FF0
FFF8
FFFC
F03E
F01F
F00F
F00F
F00F
F007
F007
F007
F007
F007
F007
F007
F007
F007
F007
F007
F007
F007
ENDCHAR
STARTCHAR 0149
ENCODING 329
SWIDTH 495 0
DWIDTH 22 0
BBX 18 31 1 0
BITMAP
700000
700000
700000
700000
700000
F00000
E00000
E00000
000000
000000
0FFC00
3FFE00
3FFF00
3C0F80
3C07C0
3C03C0
3C03C0
3C03C0
3C01C0
3C01C0
3C01C0
3C01C0
3C01C0
3C01C0
3C01C0
3C01C0
3C01C0
3C01C0
3C01C0
3C01C0
3C01C0
ENDCHAR
STARTCHAR 014A
ENCODING 330
SWIDTH 495 0
DWIDTH 22 0
BBX 18 35 2 -7
BITMAP
F003C0
F803C0
F803C0
FC03C0
FC03C0
FE03C0
FE03C0
F703C0
F783C0
F383C0
F3C3C0
F1C3C0
F1E3C0
F0E3C0
F0F3C0
F073C0
F07BC0
F03BC0
F03FC0
F01FC0
F01FC0
F00FC0
F00FC0
F007C0
F007C0
F003C0
F003C0
F003C0
0003C0
0003C0
0003C0
0003C0
003F80
003F80
003F00
ENDCHAR
STARTCHAR 014B
ENCODING 331
SWIDTH 495 0
DWIDTH 22 0
BBX 16 28 3 -7
BITMAP
3FF0
FFF8
FFFC
F03E
F01F
F00F
F00F
F00F
F007
F007
F007
F007
F007
F007
F007
F007
F007
F007
F007
F007
F007
0007
000F
000F
000F
00FF
00FE
00FC
ENDCHAR
STARTCHAR 014C
ENCODING 332
SWIDTH 495 0
DWIDTH 22 0
BBX 20 35 1 -1
BITMAP
0FFF00
0FFF00
000000
000000
000000
000000
01FC00
07FE00
0FFF80
1F0F80
3E03C0
3C03C0
7801E0
7801E0
7800E0
7000F0
F000F0
F000F0
F000F0
F000F0
F000F0
F000F0
F000F0
F000F0
7000F0
7000E0
7801E0
7801E0
3801E0
3C03C0
1E07C0
1FFF80
0FFF00
03FE00
007000
ENDCHAR
STARTCHAR 014D
ENCODING 333
SWIDTH 495 0
DWIDTH 22 0
BBX 18 28 2 0
BITMAP
1FFE00
1FFE00
1FFE00
000000
000000
000000
000000
03F000
0FFC00
1FFE00
3E1F00
7C0780
780780
F003C0
F003C0
F003C0
F001C0
F001C0
F001C0
F001C0
F003C0
F003C0
7803C0
780780
3C0F80
3FFF00
1FFE00
07F800
ENDCHAR
STARTCHAR 014E
ENCODING 334
SWIDTH 495 0
DWIDTH 22 0
BBX 20 37 1 -1
BITMAP
060600
070600
070E00
03FC00
01FC00
006000
000000
000000
01FC00
07FE00
0FFF80
1F0F80
3E03C0
3C03C0
7801E0
7801E0
7800E0
7000F0
F000F0
F000F0
F000F0
F000F0
F000F0
F000F0
F000F0
F000F0
7000F0
7000E0
7801E0
7801E0
3801E0
3C03C0
1E07C0
1FFF80
0FFF00
03FE00
007000
ENDCHAR
STARTCHAR 014F
ENCODING 335
SWIDTH 495 0
DWIDTH 22 0
BBX 18 30 2 0
BITMAP
0C0C00
0C0C00
0E1C00
07FC00
07F800
00E000
000000
000000
000000
03F000
0FFC00
1FFE00
3E1F00
7C0780
780780
F003C0
F003C0
F003C0
F001C0
F001C0
F001C0
F001C0
F003C0
F003C0
7803C0
780780
3C0F80
3FFF00
1FFE00
07F800
ENDCHAR
STARTCHAR 0150
ENCODING 336
SWIDTH 495 0
DWIDTH 22 0
BBX 20 38 1 -1
BITMAP
004080
0061C0
00F3C0
01E380
03C700
038F00
070E00
020400
000000
01FC00
07FE00
0FFF80
1F0F80
3E03C0
3C03C0
7801E0
7801E0
7800E0
7000F0
F000F0
F000F0
F000F0
F000F0
F000F0
F000F0
F000F0
F000F0
7000F0
7000E0
7801E0
7801E0
3801E0
3C03C0
1E07C0
1FFF80
0FFF00
03FE00
007000
ENDCHAR
STARTCHAR 0151
ENCODING 337
SWIDTH 495 0
DWIDTH 22 0
BBX 18 31 2 0
BITMAP
008000
00C300
01E780
03C700
038F00
071E00
0E1C00
040800
000000
000000
03F000
0FFC00
1FFE00
3E1F00
7C0780
780780
F003C0
F003C0
F003C0
F001C0
F001C0
F001C0
F001C0
F003C0
F003C0
7803C0
780780
3C0F80
3FFF00
1FFE00
07F800
ENDCHAR
STARTCHAR 0152
ENCODING 338
SWIDTH 495 0
DWIDTH 22 0
BBX 20 28 1 0
BITMAP
01FFF0
07FFF0
0FFFF0
1F3FF0
3C1C00
3C1C00
781C00
781C00
701C00
701C00
F01C00
F01C00
F01FE0
F01FE0
F01FE0
F01C00
F01C00
F01C00
F01C00
701C00
701C00
781C00
781C00
3C1C00
3E1C00
1FFFF0
0FFFF0
07FFF0
ENDCHAR
STARTCHAR 0153
ENCODING 339
SWIDTH 495 0
DWIDTH 22 0
BBX 20 21 1 0
BITMAP
0F0780
1F8FC0
3FDFE0
39FCE0
78F8F0
70F870
707870
707870
F07070
F07FF0
F07FF0
F07FF0
F07000
707800
707800
70F800
78FC00
78FC00
3FDFE0
1FCFF0
1F87E0
ENDCHAR
STARTCHAR 0154
ENCODING 340
SWIDTH 495 0
DWIDTH 22 0
BBX 18 37 2 0
BITMAP
002000
007000
007800
00F000
01E000
03C000
038000
010000
000000
1FC000
FFF800
FFFE00
F07F00
F00F00
F00780
F00780
F00780
F00780
F00780
F00780
F00780
F00F00
F01F00
FFFE00
FFFC00
FFF000
F07800
F03C00
F03C00
F01E00
F00E00
F00F00
F00700
F00780
F00380
F003C0
F003C0
ENDCHAR
STARTCHAR 0155
ENCODING 341
SWIDTH 495 0
DWIDTH 22 0
BBX 14 31 5 0
BITMAP
0040
0060
00F0
01E0
03C0
0780
0700
0200
0000
0000
1FFC
FFFC
FFFC
F804
E000
E000
E000
E000
E000
E000
E000
E000
E000
E000
E000
E000
E000
E000
E000
E000
E000
ENDCHAR
STARTCHAR 0156
ENCODING 342
SWIDTH 495 0
DWIDTH 22 0
BBX 18 35 2 -8
BITMAP
1FC000
FFF800
FFFE00
F07F00
F00F00
F00780
F00780
F00780
F00780
F00780
F00780
F00780
F00F00
F01F00
FFFE00
FFFC00
FFF000
F07800
F03C00
F03C00
F01E00
F00E00
F00F00
F00700
F00780
F00380
F003C0
F003C0
000000
000000
01E000
01E000
01C000
0FC000
0F8000
ENDCHAR
STARTCHAR 0157
ENCODING 343
SWIDTH 495 0
DWIDTH 22 0
BBX 17 29 2 -8
BITMAP
03FF80
1FFF80
1FFF80
1F0080
1C0000
1C0000
1C0000
1C0000
1C0000
1C0000
1C0000
1C0000
1C0000
1C0000
1C0000
1C0000
1C0000
1C0000
1C0000
1C0000
1C0000
000000
000000
1C0000
1C0000
3C0000
FC0000
F80000
600000
ENDCHAR
STARTCHAR 0158
ENCODING 344
SWIDTH 495 0
DWIDTH 22 0
BBX 18 37 2 0
BITMAP
001000
1C3800
1E7800
0FF000
07E000
03C000
018000
000000
000000
1FC000
FFF800
FFFE00
F07F00
F00F00
F00780
F00780
F00780
F00780
F00780
F00780
F00780
F00F00
F01F00
FFFE00
FFFC00
FFF000
F07800
F03C00
F03C00
F01E00
F00E00
F00F00
F00700
F00780
F00380
F003C0
F003C0
ENDCHAR
STARTCHAR 0159
ENCODING 345
SWIDTH 495 0
DWIDTH 22 0
BBX 14 31 5 0
BITMAP
0010
1838
1C78
0EF0
07E0
03C0
0380
0100
0000
0000
1FFC
FFFC
FFFC
F804
E000
E000
E000
E000
E000
E000
E000
E000
E000
E000
E000
E000
E000
E000
E000
E000
E000
ENDCHAR
STARTCHAR 015A
ENCODING 346
SWIDTH 495 0
DWIDTH 22 0
BBX 18 38 2 -1
BITMAP
001000
003800
007C00
007800
00F000
01E000
01C000
008000
000000
03FC00
0FFF80
1FFF00
3E0700
3C0100
780000
780000
780000
780000
7C0000
3C0000
3F0000
1FC000
0FF000
03FC00
007F00
001F00
000F80
000780
0003C0
0003C0
0003C0
0003C0
000780
600F80
7FFF80
FFFF00
3FFC00
038000
ENDCHAR
STARTCHAR 015B
ENCODING 347
SWIDTH 495 0
DWIDTH 22 0
BBX 16 30 3 1
BITMAP
0060
00F0
01E0
03C0
0380
0700
0200
0000
0000
0FFC
3FFE
7FFE
7C06
F000
F000
F000
7800
7E00
3FC0
0FF0
03FC
007E
001F
000F
0007
000F
E00F
FFFF
FFFE
7FF8
ENDCHAR
STARTCHAR 015C
ENCODING 348
SWIDTH 495 0
DWIDTH 22 0
BBX 18 38 2 -1
BITMAP
004000
00E000
01F000
03F800
03B800
071C00
060C00
040400
000000
03FC00
0FFF80
1FFF00
3E0700
3C0100
780000
780000
780000
780000
7C0000
3C0000
3F0000
1FC000
0FF000
03FC00
007F00
001F00
000F80
000780
0003C0
0003C0
0003C0
0003C0
000780
600F80
7FFF80
FFFF00
3FFC00
038000
ENDCHAR
STARTCHAR 015D
ENCODING 349
SWIDTH 495 0
DWIDTH 22 0
BBX 16 31 3 0
BITMAP
0080
0080
01C0
03E0
0770
0E38
1C1C
0808
0000
0000
0FFC
3FFE
7FFE
7C06
F000
F000
F000
7800
7E00
3FC0
0FF0
03FC
007E
001F
000F
0007
000F
E00F
FFFF
FFFE
7FF8
ENDCHAR
STARTCHAR 015E
ENCODING 350
SWIDTH 495 0
DWIDTH 22 0
BBX 18 35 2 -8
BITMAP
03FC00
0FFF80
1FFF00
3E0700
3C0100
780000
780000
780000
780000
7C0000
3C0000
3F0000
1FC000
0FF000
03FC00
007F00
001F00
000F80
000780
0003C0
0003C0
0003C0
0003C0
000780
600F80
7FFF00
FFFF00
3FFC00
01C000
01C000
01E000
00F000
007000
07F000
07E000
ENDCHAR
STARTCHAR 015F
ENCODING 351
SWIDTH 495 0
DWIDTH 22 0
BBX 16 28 3 -8
BITMAP
0FFC
3FFE
7FFE
7C06
F000
F000
F000
7800
7E00
3FC0
0FF0
03FC
007E
001F
000F
0007
000F
E00F
FFFF
FFFE
7FF8
0180
0380
03C0
01E0
00E0
0FE0
0FC0
ENDCHAR
STARTCHAR 0160
ENCODING 352
SWIDTH 495 0
DWIDTH 22 0
BBX 18 38 2 -1
BITMAP
000400
070E00
079E00
03FC00
01F800
00F000
006000
000000
000000
03FC00
0FFF80
1FFF00
3E0700
3C0100
780000
780000
780000
780000
7C0000
3C0000
3F0000
1FC000
0FF000
03FC00
007F00
001F00
000F80
000780
0003C0
0003C0
0003C0
0003C0
000780
600F80
7FFF80
FFFF00
3FFC00
038000
ENDCHAR
STARTCHAR 0161
ENCODING 353
SWIDTH 495 0
DWIDTH 22 0
BBX 16 31 3 0
BITMAP
0008
0C18
0E3C
0F78
07F0
03E0
01C0
0080
0000
0000
0FFC
3FFE
7FFE
7C06
F000
F000
F000
7800
7E00
3FC0
0FF0
03FC
007E
001F
000F
0007
000F
E00F
FFFF
FFFE
7FF8
ENDCHAR
STARTCHAR 0162
ENCODING 354
SWIDTH 495 0
DWIDTH 22 0
BBX 18 35 2 -8
BITMAP
FFFFC0
FFFFC0
FFFFC0
FFFFC0
01E000
01E000
01E000
01E000
01E000
01E000
01E000
01E000
01E000
01E000
01E000
01E000
01E000
01E000
01E000
01E000
01E000
01E000
01E000
01E000
01E000
01E000
01E000
01E000
00C000
01C000
01E000
00F000
007000
07F000
07E000
ENDCHAR
STARTCHAR 0163
ENCODING 355
SWIDTH 495 0
DWIDTH 22 0
BBX 17 35 3 -8
BITMAP
070000
0F0000
0F0000
0F0000
0F0000
0F0000
FFFF80
FFFF80
FFFF80
0F0000
0F0000
0F0000
0F0000
0F0000
0F0000
0F0000
0F0000
0F0000
0F0000
0F0000
0F0000
0F0000
0F0000
078080
07FF80
03FF80
01FF80
007000
007000
007800
003C00
003C00
01F800
03F800
004000
ENDCHAR
STARTCHAR 0164
ENCODING 356
SWIDTH 495 0
DWIDTH 22 0
BBX 18 37 2 0
BITMAP
040000
0E1C00
0F3C00
07F800
03F000
01E000
00C000
000000
000000
FFFFC0
FFFFC0
FFFFC0
FFFFC0
01E000
01E000
01E000
01E000
01E000
01E000
01E000
01E000
01E000
01E000
01E000
01E000
01E000
01E000
01E000
01E000
01E000
01E000
01E000
01E000
01E000
01E000
01E000
01E000
ENDCHAR
STARTCHAR 0165
ENCODING 357
SWIDTH 495 0
DWIDTH 22 0
BBX 17 31 3 0
BITMAP
001C00
001C00
001C00
001C00
071C00
0F1C00
0F1C00
0F1800
0F0000
0F0000
FFFF80
FFFF80
FFFF80
0F0000
0F0000
0F0000
0F0000
0F0000
0F0000
0F0000
0F0000
0F0000
0F0000
0F0000
0F0000
0F0000
0F0000
078080
07FF80
03FF80
01FF80
ENDCHAR
STARTCHAR 0166
ENCODING 358
SWIDTH 495 0
DWIDTH 22 0
BBX 18 28 2 0
BITMAP
FFFFC0
FFFFC0
FFFFC0
FFFFC0
01E000
01E000
01E000
01E000
01E000
01E000
01E000
01E000
3FFF00
3FFF00
3FFF00
01E000
01E000
01E000
01E000
01E000
01E000
01E000
01E000
01E000
01E000
01E000
01E000
01E000
ENDCHAR
STARTCHAR 0167
ENCODING 359
SWIDTH 495 0
DWIDTH 22 0
BBX 17 27 3 0
BITMAP
070000
0F0000
0F0000
0F0000
0F0000
0F0000
FFFF80
FFFF80
FFFF80
0F0000
0F0000
0F0000
0F0000
0F0000
0F0000
FFFF80
FFFF80
FFFF80
0F0000
0F0000
0F0000
0F0000
0F0000
078080
07FF80
03FF80
01FF80
ENDCHAR
STARTCHAR 0168
ENCODING 360
SWIDTH 495 0
DWIDTH 22 0
BBX 18 36 2 -1
BITMAP
078600
0FFE00
1FFC00
1C7800
000000
000000
000000
F003C0
F003C0
F003C0
F003C0
F003C0
F003C0
F003C0
F003C0
F003C0
F003C0
F003C0
F003C0
F003C0
F003C0
F003C0
F003C0
F003C0
F003C0
F003C0
F003C0
F003C0
F003C0
7003C0
780780
7C0F80
3FFF00
1FFE00
0FFC00
00C000
ENDCHAR
STARTCHAR 0169
ENCODING 361
SWIDTH 495 0
DWIDTH 22 0
BBX 16 29 3 0
BITMAP
0E0C
1FDC
3FF8
38F0
0000
0000
0000
0000
F00F
F00F
F00F
F00F
F00F
F00F
F00F
F00F
F00F
F00F
F00F
F00F
F00F
F00F
F00F
F00F
780F
7C0F
3FFF
3FFF
0FFF
ENDCHAR
STARTCHAR 016A
ENCODING 362
SWIDTH 495 0
DWIDTH 22 0
BBX 18 35 2 -1
BITMAP
1FFE00
1FFE00
000000
000000
000000
000000
F003C0
F003C0
F003C0
F003C0
F003C0
F003C0
F003C0
F003C0
F003C0
F003C0
F003C0
F003C0
F003C0
F003C0
F003C0
F003C0
F003C0
F003C0
F003C0
F003C0
F003C0
F003C0
7003C0
780780
7C0F80
3FFF00
1FFE00
0FFC00
00C000
ENDCHAR
STARTCHAR 016B
ENCODING 363
SWIDTH 495 0
DWIDTH 22 0
BBX 16 28 3 0
BITMAP
3FFC
3FFC
3FFC
0000
0000
0000
0000
F00F
F00F
F00F
F00F
F00F
F00F
F00F
F00F
F00F
F00F
F00F
F00F
F00F
F00F
F00F
F00F
780F
7C0F
3FFF
3FFF
0FFF
ENDCHAR
STARTCHAR 016C
ENCODING 364
SWIDTH 495 0
DWIDTH 22 0
BBX 18 37 2 -1
BITMAP
0C0C00
0E0C00
0E1C00
07F800
03F800
00C000
000000
000000
F003C0
F003C0
F003C0
F003C0
F003C0
F003C0
F003C0
F003C0
F003C0
F003C0
F003C0
F003C0
F003C0
F003C0
F003C0
F003C0
F003C0
F003C0
F003C0
F003C0
F003C0
F003C0
7003C0
780780
7C0F80
3FFF00
1FFE00
0FFC00
00C000
ENDCHAR
STARTCHAR 016D
ENCODING 365
SWIDTH 495 0
DWIDTH 22 0
BBX 16 30 3 0
BITMAP
1818
1818
1C38
0FF8
0FF0
01C0
0000
0000
0000
F00F
F00F
F00F
F00F
F00F
F00F
F00F
F00F
F00F
F00F
F00F
F00F
F00F
F00F
F00F
F00F
780F
7C0F
3FFF
3FFF
0FFF
ENDCHAR
STARTCHAR 016E
ENCODING 366
SWIDTH 495 0
DWIDTH 22 0
BBX 18 38 2 -1
BITMAP
01E000
03F000
073800
061800
061800
061800
03F800
01F000
000000
F003C0
F003C0
F003C0
F003C0
F003C0
F003C0
F003C0
F003C0
F003C0
F003C0
F003C0
F003C0
F003C0
F003C0
F003C0
F003C0
F003C0
F003C0
F003C0
F003C0
F003C0
F003C0
7003C0
780780
7C0F80
3FFF00
1FFE00
0FFC00
00C000
ENDCHAR
STARTCHAR 016F
ENCODING 367
SWIDTH 495 0
DWIDTH 22 0
BBX 16 31 3 0
BITMAP
03C0
07E0
0E30
0C30
0C30
0C30
07F0
03E0
0000
0000
F00F
F00F
F00F
F00F
F00F
F00F
F00F
F00F
F00F
F00F
F00F
F00F
F00F
F00F
F00F
F00F
780F
7C0F
3FFF
3FFF
0FFF
ENDCHAR
STARTCHAR 0170
ENCODING 368
SWIDTH 495 0
DWIDTH 22 0
BBX 18 38 2 -1
BITMAP
008200
01C300
03C780
038F00
078E00
0F1C00
0E3800
040000
000000
F003C0
F003C0
F003C0
F003C0
F003C0
F003C0
F003C0
F003C0
F003C0
F003C0
F003C0
F003C0
F003C0
F003C0
F003C0
F003C0
F003C0
F003C0
F003C0
F003C0
F003C0
F003C0
7003C0
780780
7C0F80
3FFF00
1FFE00
0FFC00
00C000
ENDCHAR
STARTCHAR 0171
ENCODING 369
SWIDTH 495 0
DWIDTH 22 0
BBX 16 31 3 0
BITMAP
0100
0386
038F
079E
0F1C
1E38
1C70
0830
0000
0000
F00F
F00F
F00F
F00F
F00F
F00F
F00F
F00F
F00F
F00F
F00F
F00F
F00F
F00F
F00F
F00F
780F
7C0F
3FFF
3FFF
0FFF
ENDCHAR
STARTCHAR 0172
ENCODING 370
SWIDTH 495 0
DWIDTH 22 0
BBX 18 35 2 -7
BITMAP
F003C0
F003C0
F003C0
F003C0
F003C0
F003C0
F003C0
F003C0
F003C0
F003C0
F003C0
F003C0
F003C0
F003C0
F003C0
F003C0
F003C0
F003C0
F003C0
F003C0
F003C0
F003C0
F003C0
780780
7C0F80
3FFF00
3FFE00
1FFC00
07F800
00F000
01E000
01C000
01E000
01FC00
00FC00
ENDCHAR
STARTCHAR 0173
ENCODING 371
SWIDTH 495 0
DWIDTH 22 0
BBX 16 28 3 -7
BITMAP
F00F
F00F
F00F
F00F
F00F
F00F
F00F
F00F
F00F
F00F
F00F
F00F
F00F
F00F
F00F
F00F
780F
7C0F
3FFF
3FFF
0FFF
001E
003C
0038
0078
0078
007F
003F
ENDCHAR
STARTCHAR 0174
ENCODING 372
SWIDTH 495 0
DWIDTH 22 0
BBX 20 36 1 1
BITMAP
006000
00F000
01F800
03FC00
079E00
070600
020000
000000
F000F0
F000F0
F000F0
7000F0
7000F0
7000F0
7000F0
7000E0
7000E0
7000E0
7000E0
70F0E0
70F0E0
70F8E0
71F8E0
71F8E0
7198E0
739CE0
739CE0
730CE0
370EE0
370EC0
3706C0
3E07C0
3E07C0
3E03C0
3C03C0
3C03C0
ENDCHAR
STARTCHAR 0175
ENCODING 373
SWIDTH 495 0
DWIDTH 22 0
BBX 20 30 1 1
BITMAP
006000
00F000
01F800
03FC00
079E00
070E00
020400
000000
000000
E00070
E00070
E00070
F00070
F00070
F07070
70F0F0
70F0F0
70F8E0
71F8E0
71F8E0
79D8E0
7B9CE0
3B9DE0
3B8FC0
3F0FC0
3F0FC0
3E07C0
1E07C0
1E0380
1C0380
ENDCHAR
STARTCHAR 0176
ENCODING 374
SWIDTH 495 0
DWIDTH 22 0
BBX 21 36 1 1
BITMAP
006000
00F000
01F800
03FC00
079E00
070600
020000
000000
F00078
F000F0
F000F0
7800E0
7801E0
3C01E0
3C03C0
1E03C0
1E0780
0F0780
0F0F00
078E00
079E00
03DC00
03FC00
01F800
00F800
00F000
00F000
00F000
00F000
00F000
00F000
00F000
00F000
00F000
00F000
00F000
ENDCHAR
STARTCHAR 0177
ENCODING 375
SWIDTH 495 0
DWIDTH 22 0
BBX 18 37 2 -6
BITMAP
00C000
01E000
03F000
07F800
0F3C00
0E1C00
040000
000000
000000
F001C0
F003C0
7803C0
7803C0
780380
3C0780
3C0780
3C0780
1E0700
1E0F00
1E0F00
0F0E00
0F1E00
071E00
079C00
03BC00
03FC00
03F800
01F800
01F000
00F000
00F000
00E000
01E000
03C000
FF8000
FF0000
FE0000
ENDCHAR
STARTCHAR 0178
ENCODING 376
SWIDTH 495 0
DWIDTH 22 0
BBX 21 35 1 0
BITMAP
070F00
0F8F00
0F8F00
070F00
000000
000000
000000
F00078
F000F0
F000F0
7800E0
7801E0
3C01E0
3C03C0
1E03C0
1E0780
0F0780
0F0F00
078E00
079E00
03DC00
03FC00
01F800
00F800
00F000
00F000
00F000
00F000
00F000
00F000
00F000
00F000
00F000
00F000
00F000
ENDCHAR
STARTCHAR 0179
ENCODING 377
SWIDTH 495 0
DWIDTH 22 0
BBX 18 36 2 1
BITMAP
003000
007800
00F000
01E000
01C000
038000
010000
000000
7FFFC0
7FFFC0
7FFFC0
7FFFC0
000780
000F00
000F00
001E00
003C00
003C00
007800
00F000
00F000
01E000
01E000
03C000
078000
078000
0F0000
0F0000
1E0000
1C0000
3C0000
780000
780000
FFFFC0
FFFFC0
FFFFC0
ENDCHAR
STARTCHAR 017A
ENCODING 378
SWIDTH 495 0
DWIDTH 22 0
BBX 16 30 3 1
BITMAP
0060
00F0
01E0
03C0
0380
0700
0200
0000
0000
7FFF
7FFF
7FFF
001E
003E
007C
00F8
00F0
01E0
03C0
07C0
0780
0F00
1F00
1E00
3C00
7800
7800
FFFF
FFFF
FFFF
ENDCHAR
STARTCHAR 017B
ENCODING 379
SWIDTH 495 0
DWIDTH 22 0
BBX 18 36 2 0
BITMAP
00C000
01E000
03F000
03F000
01E000
00C000
000000
000000
7FFFC0
7FFFC0
7FFFC0
7FFFC0
000780
000F00
000F00
001E00
003C00
003C00
007800
00F000
00F000
01E000
01E000
03C000
078000
078000
0F0000
0F0000
1E0000
1C0000
3C0000
780000
780000
FFFFC0
FFFFC0
FFFFC0
ENDCHAR
STARTCHAR 017C
ENCODING 380
SWIDTH 495 0
DWIDTH 22 0
BBX 16 29 3 0
BITMAP
03C0
07E0
07E0
03E0
01C0
0000
0000
0000
7FFF
7FFF
7FFF
001E
003E
007C
00F8
00F0
01E0
03C0
07C0
0780
0F00
1F00
1E00
3C00
7800
7800
FFFF
FFFF
FFFF
ENDCHAR
STARTCHAR 017D
ENCODING 381
SWIDTH 495 0
DWIDTH 22 0
BBX 18 37 2 0
BITMAP
040000
0E1C00
0F3C00
07F800
03F000
01E000
00C000
000000
000000
7FFFC0
7FFFC0
7FFFC0
7FFFC0
000780
000F00
000F00
001E00
003C00
003C00
007800
00F000
00F000
01E000
01E000
03C000
078000
078000
0F0000
0F0000
1E0000
1C0000
3C0000
780000
780000
FFFFC0
FFFFC0
FFFFC0
ENDCHAR
STARTCHAR 017E
ENCODING 382
SWIDTH 495 0
DWIDTH 22 0
BBX 16 30 3 1
BITMAP
1C18
1E38
0FF0
07E0
03C0
0180
0000
0000
0000
7FFF
7FFF
7FFF
001E
003E
007C
00F8
00F0
01E0
03C0
07C0
0780
0F00
1F00
1E00
3C00
7800
7800
FFFF
FFFF
FFFF
ENDCHAR
STARTCHAR 017F
ENCODING 383
SWIDTH 495 0
DWIDTH 22 0
BBX 14 31 7 0
BITMAP
03E0
1FFC
3FFC
7E7C
7800
F000
F000
F000
F000
F000
F000
F000
F000
F000
F000
F000
F000
F000
F000
F000
F000
F000
F000
F000
F000
F000
F000
F000
F000
F000
F000
ENDCHAR
STARTCHAR 0180
ENCODING 384
SWIDTH 495 0
DWIDTH 22 0
BBX 19 31 1 0
BITMAP
040000
1C0000
1C0000
1C0000
FFFC00
FFFC00
FFFC00
1C0000
1C0000
1C0000
1CFC00
1FFF00
1FFF80
1F8FC0
1E03C0
1C01E0
1C01E0
1C01E0
1C01E0
1C00E0
1C00E0
1C00E0
1C00E0
1C01E0
1C01E0
1C01E0
1C03C0
1C07C0
1FFF80
1FFF00
1FFC00
ENDCHAR
STARTCHAR 0181
ENCODING 385
SWIDTH 495 0
DWIDTH 22 0
BBX 20 28 1 0
BITMAP
03FC00
1FFF80
7FFFC0
FFC7C0
F3C1E0
E3C1E0
E3C1E0
E3C1E0
03C1E0
03C1E0
03C1C0
03C3C0
03FF80
03FF00
03FFC0
03C3E0
03C1F0
03C0F0
03C070
03C070
03C070
03C070
03C0F0
03C0F0
03C1F0
03FFE0
03FFC0
03FF00
ENDCHAR
STARTCHAR 0182
ENCODING 386
SWIDTH 495 0
DWIDTH 22 0
BBX 18 28 2 0
BITMAP
FFFF00
FFFF00
FFFF00
FFFF00
F00000
F00000
F00000
F00000
F00000
F00000
F00000
FFF000
FFFE00
FFFF00
F01F80
F00780
F003C0
F003C0
F003C0
F003C0
F003C0
F003C0
F003C0
F00780
F01F80
FFFF00
FFFE00
FFF000
ENDCHAR
STARTCHAR 0183
ENCODING 387
SWIDTH 495 0
DWIDTH 22 0
BBX 17 31 3 0
BITMAP
FFFE00
FFFE00
FFFE00
FFFE00
F00000
F00000
F00000
F00000
F00000
F00000
F7F000
FFFC00
FFFE00
FC3F00
F00F00
F00F80
F00780
F00780
F00780
F00380
F00380
F00380
F00380
F00780
F00780
F00780
F00F00
F03F00
FFFE00
FFFC00
FFF000
ENDCHAR
STARTCHAR 0184
ENCODING 388
SWIDTH 495 0
DWIDTH 22 0
BBX 19 31 1 0
BITMAP
040000
3C0000
FC0000
FC0000
7C0000
3C0000
3C0000
3C0000
3C0000
3C0000
3DFC00
3FFF00
3FFF80
3F0FC0
3C03C0
3C03E0
3C01E0
3C01E0
3C01E0
3C00E0
3C00E0
3C00E0
3C00E0
3C01E0
3C01E0
3C01E0
3C03C0
3C0FC0
3FFF80
3FFF00
3FFC00
ENDCHAR
STARTCHAR 0185
ENCODING 389
SWIDTH 495 0
DWIDTH 22 0
BBX 19 28 1 0
BITMAP
040000
3C0000
FC0000
FC0000
7C0000
3C0000
3C0000
3C0000
3C0000
3C0000
3FE000
3FFE00
3FFF00
3C3F80
3C07C0
3C03C0
3C01E0
3C01E0
3C01E0
3C01E0
3C01E0
3C01E0
3C01E0
3C03C0
3C0FC0
3FFF80
3FFF00
3FFC00
ENDCHAR
STARTCHAR 0186
ENCODING 390
SWIDTH 495 0
DWIDTH 22 0
BBX 18 29 2 -1
BITMAP
1FE000
FFF800
FFFC00
707E00
001F00
000F00
000780
000780
0003C0
0003C0
0003C0
0003C0
0003C0
0003C0
0003C0
0003C0
0003C0
0003C0
0003C0
0003C0
000780
000780
000F80
001F00
403E00
FFFE00
FFF800
7FF000
030000
ENDCHAR
STARTCHAR 0187
ENCODING 391
SWIDTH 495 0
DWIDTH 22 0
BBX 20 32 2 -1
BITMAP
0001F0
0003F0
0003E0
01FF80
07FF00
0FFF00
1F8600
1E0000
3C0000
3C0000
780000
780000
700000
F00000
F00000
F00000
F00000
F00000
F00000
F00000
F00000
F00000
700000
780000
780000
7C0000
3C0000
1F0100
1FFF00
0FFF80
03FF00
002000
ENDCHAR
STARTCHAR 0188
ENCODING 392
SWIDTH 495 0
DWIDTH 22 0
BBX 20 25 2 0
BITMAP
0001F0
0003E0
0007E0
000700
01FF00
07FE00
1FFE00
3F0600
3C0000
780000
780000
700000
F00000
F00000
F00000
F00000
F00000
F00000
780000
780000
7C0000
3E0100
1FFF00
0FFF00
03FF00
ENDCHAR
STARTCHAR 0189
ENCODING 393
SWIDTH 495 0
DWIDTH 22 0
BBX 19 28 1 0
BITMAP
0FC000
3FFC00
3FFE00
3C7F00
3C0F80
3C07C0
3C03C0
3C01C0
3C01E0
3C01E0
3C01E0
3C00E0
FFC0E0
FFC0E0
FFC0E0
3C00E0
3C00E0
3C01E0
3C01E0
3C01E0
3C01E0
3C03C0
3C03C0
3C0780
3C1F80
3FFF00
3FFC00
3FF000
ENDCHAR
STARTCHAR 018A
ENCODING 394
SWIDTH 495 0
DWIDTH 22 0
BBX 21 28 1 0
BITMAP
03F800
1FFF00
7FFF80
FFCFC0
F3C3C0
E3C1E0
E3C0E0
E3C0F0
03C0F0
03C0F0
03C070
03C070
03C070
03C070
03C078
03C070
03C070
03C070
03C0F0
03C0F0
03C0F0
03C0F0
03C1E0
03C1E0
03C7C0
03FF80
03FF00
03FE00
ENDCHAR
STARTCHAR 018B
ENCODING 395
SWIDTH 495 0
DWIDTH 22 0
BBX 18 28 2 0
BITMAP
1FFFC0
1FFFC0
1FFFC0
1FFFC0
0003C0
0003C0
0003C0
0003C0
0003C0
0003C0
0003C0
03FFC0
0FFFC0
3FFFC0
7E03C0
7803C0
7803C0
F003C0
F003C0
F003C0
F003C0
F003C0
7803C0
7803C0
7E03C0
3FFFC0
0FFFC0
03FFC0
ENDCHAR
STARTCHAR 018C
ENCODING 396
SWIDTH 495 0
DWIDTH 22 0
BBX 17 31 2 0
BITMAP
3FFF80
3FFF80
3FFF80
3FFF80
000780
000780
000780
000780
000780
000780
07F780
0FFF80
3FFF80
3E1F80
7C0780
780780
F00780
F00780
F00780
F00780
F00780
F00780
F00780
F00780
F00780
780780
780780
3E0780
3FFF80
1FFF80
07FF80
ENDCHAR
STARTCHAR 018D
ENCODING 397
SWIDTH 495 0
DWIDTH 22 0
BBX 18 28 2 -7
BITMAP
07F800
1FFE00
3FFF00
7E1F80
780780
F803C0
F003C0
F003C0
F001C0
F001C0
F003C0
F003C0
F003C0
7803C0
780780
3C0F00
1F3F00
0FFC00
07F800
01F800
00FC00
003E00
001E00
001E00
201E00
3FFE00
3FFC00
3FF800
ENDCHAR
STARTCHAR 018E
ENCODING 398
SWIDTH 495 0
DWIDTH 22 0
BBX 16 28 2 0
BITMAP
7FFF
7FFF
7FFF
7FFF
0007
0007
0007
0007
0007
0007
0007
0007
3FFF
3FFF
3FFF
0007
0007
0007
0007
0007
0007
0007
0007
0007
0007
FFFF
FFFF
FFFF
ENDCHAR
STARTCHAR 018F
ENCODING 399
SWIDTH 495 0
DWIDTH 22 0
BBX 20 29 1 -1
BITMAP
07F000
3FFE00
3FFF00
181F80
0007C0
0003C0
0001E0
0001E0
0001E0
0000F0
0000F0
0000F0
0000F0
FFFFF0
FFFFF0
FFFFF0
F000F0
F000F0
F000F0
F000E0
7001E0
7801E0
7803C0
3C03C0
3E0780
1FFF00
0FFF00
07FC00
004000
ENDCHAR
STARTCHAR 0190
ENCODING 400
SWIDTH 495 0
DWIDTH 22 0
BBX 19 29 2 -1
BITMAP
03FE00
0FFFC0
1FFF80
3F0780
7C0000
780000
780000
780000
780000
380000
3C0000
1F8000
0FFC00
07FC00
1FFC00
3F0000
780000
F00000
F00000
E00000
E00000
F00000
F00000
F00000
7C00C0
7FFFC0
3FFFE0
0FFF80
002000
ENDCHAR
STARTCHAR 0191
ENCODING 401
SWIDTH 495 0
DWIDTH 22 0
BBX 20 35 0 -7
BITMAP
0FFFF0
0FFFF0
0FFFF0
0FFFF0
0F0000
0F0000
0F0000
0F0000
0F0000
0F0000
0F0000
0F0000
0FFFE0
0FFFE0
0FFFE0
0F0000
0F0000
0F0000
0F0000
0F0000
0F0000
0F0000
0F0000
0F0000
0F0000
0F0000
0F0000
0F0000
0F0000
0F0000
0F0000
0F0000
FE0000
FE0000
FC0000
ENDCHAR
STARTCHAR 0192
ENCODING 402
SWIDTH 495 0
DWIDTH 22 0
BBX 21 39 0 -8
BITMAP
0007C0
003FF8
007FF8
00FCF8
00F000
01E000
01E000
01E000
01E000
01E000
1FFFE0
1FFFE0
1FFFE0
01E000
01E000
01E000
01E000
01E000
01E000
01E000
01E000
01E000
01E000
01E000
01E000
01E000
01E000
01E000
01E000
01E000
01E000
01E000
01E000
01E000
03C000
7FC000
7F8000
FF0000
180000
ENDCHAR
STARTCHAR 0193
ENCODING 403
SWIDTH 495 0
DWIDTH 22 0
BBX 20 32 2 -1
BITMAP
0001F0
0003F0
0003E0
01FF80
07FF00
0FFF00
1F8600
1E0000
3C0000
7C0000
780000
780000
F00000
F00000
F00000
F00000
F00000
F001C0
F001C0
F001C0
F001C0
F001C0
7001C0
7801C0
7801C0
7C01C0
3E01C0
1F01C0
1FFFC0
07FFC0
03FFC0
007000
ENDCHAR
STARTCHAR 0194
ENCODING 404
SWIDTH 495 0
DWIDTH 22 0
BBX 21 35 1 -7
BITMAP
E00078
F00070
F000F0
7000F0
7801E0
7801E0
3C01C0
3C03C0
1C0380
1E0780
1E0780
0F0700
0F0F00
070E00
078E00
039E00
03DC00
03FC00
01F800
01F800
00F000
00F000
01F800
01F800
03FC00
039C00
079E00
070E00
070E00
070F00
070F00
070E00
07FE00
03FC00
01F800
ENDCHAR
STARTCHAR 0195
ENCODING 405
SWIDTH 495 0
DWIDTH 22 0
BBX 19 31 2 0
BITMAP
600000
E00000
E00000
E00000
E00000
E00000
E00000
E00000
E00000
E00000
FF01E0
FF81E0
FFC1E0
F3C1E0
E1C1E0
E1E1E0
E1E1E0
E1E1E0
E1E1E0
E1E1E0
E1E1E0
E1E1E0
E1E1E0
E1E1E0
E1E1E0
E1E1C0
E1E1C0
E1E3C0
E0FFC0
E0FF80
E07F00
ENDCHAR
STARTCHAR 0196
ENCODING 406
SWIDTH 495 0
DWIDTH 22 0
BBX 17 29 3 -1
BITMAP
FFFE00
FFFE00
FFFE00
FFFE00
078000
078000
078000
078000
078000
078000
078000
078000
078000
078000
078000
078000
078000
078000
078000
078000
078000
078000
078000
038000
03C080
03FF80
01FF80
00FF80
000800
ENDCHAR
STARTCHAR 0197
ENCODING 407
SWIDTH 495 0
DWIDTH 22 0
BBX 14 28 4 0
BITMAP
FFFC
FFFC
FFFC
FFFC
0780
0780
0780
0780
0780
0780
0780
0780
7FF8
7FF8
7FF8
0780
0780
0780
0780
0780
0780
0780
0780
0780
0780
FFFC
FFFC
FFFC
ENDCHAR
STARTCHAR 0198
ENCODING 408
SWIDTH 495 0
DWIDTH 22 0
BBX 19 28 3 0
BITMAP
E007C0
E00FE0
E01FE0
E03E60
E03C00
E07800
E0F000
E1F000
E1E000
E3C000
E78000
EF8000
EF0000
FF0000
FF8000
EFC000
E3E000
E1F000
E0F800
E07C00
E03C00
E03E00
E01F00
E00F00
E00780
E007C0
E003C0
E003E0
ENDCHAR
STARTCHAR 0199
ENCODING 409
SWIDTH 495 0
DWIDTH 22 0
BBX 18 31 3 0
BITMAP
0F8000
3F0000
7F0000
780000
F00000
F00000
F00000
F00000
F00000
F00000
F00780
F00F00
F01F00
F03C00
F07800
F0F000
F1E000
F3C000
FF8000
FF0000
FF8000
FFC000
F3E000
F1F000
F0F800
F07C00
F03E00
F01F00
F00F80
F00780
F003C0
ENDCHAR
STARTCHAR 019A
ENCODING 410
SWIDTH 495 0
DWIDTH 22 0
BBX 18 31 2 0
BITMAP
FFC000
FFC000
FFC000
FFC000
03C000
03C000
03C000
03C000
03C000
03C000
03C000
03C000
03C000
03C000
FFFF00
FFFF00
03C000
03C000
03C000
03C000
03C000
03C000
03C000
03C000
03C000
03C000
01C000
01E040
01FFC0
00FFC0
007FC0
ENDCHAR
STARTCHAR 019B
ENCODING 411
SWIDTH 495 0
DWIDTH 22 0
BBX 20 31 1 0
BITMAP
3C0000
3F0000
3F8000
07C600
03FF00
01FE00
0FF000
1FF000
1EF000
007000
007800
00F800
00FC00
01FC00
01DC00
03DE00
039E00
078E00
070F00
0F0F00
0E0780
0E0780
1E0780
1C03C0
3C03C0
3C03C0
3803C0
7801E0
7801E0
7001E0
F000F0
ENDCHAR
STARTCHAR 019C
ENCODING 412
SWIDTH 495 0
DWIDTH 22 0
BBX 18 29 2 -1
BITMAP
E001C0
E001C0
E001C0
E001C0
E001C0
E001C0
E001C0
E001C0
E001C0
E001C0
E001C0
E1E1C0
E1E1C0
E1E1C0
E1E1C0
E1E1C0
E1E1C0
E1E1C0
E1E1C0
E1E1C0
E1E1C0
E0E1C0
F0E1C0
F0E1C0
70F1C0
7FFFC0
3FFFC0
1FFFC0
030400
ENDCHAR
STARTCHAR 019D
ENCODING 413
SWIDTH 495 0
DWIDTH 22 0
BBX 22 35 -2 -7
BITMAP
0F003C
0F803C
0F803C
0FC03C
0FC03C
0FE03C
0FE03C
0F703C
0F783C
0F383C
0F3C3C
0F1C3C
0F1E3C
0F0E3C
0F0F3C
0F073C
0F07BC
0F03BC
0F03FC
0F01FC
0F01FC
0F00FC
0F00FC
0F007C
0F007C
0F003C
0F003C
0F003C
0F0000
0F0000
0F0000
0E0000
FE0000
FE0000
FC0000
ENDCHAR
STARTCHAR 019E
ENCODING 414
SWIDTH 495 0
DWIDTH 22 0
BBX 16 28 3 -7
BITMAP
3FF0
FFF8
FFFC
F03E
F01F
F00F
F00F
F00F
F007
F007
F007
F007
F007
F007
F007
F007
F007
F007
F007
F007
F007
0007
0007
0007
0007
0007
0007
0007
ENDCHAR
STARTCHAR 019F
ENCODING 415
SWIDTH 495 0
DWIDTH 22 0
BBX 20 29 1 -1
BITMAP
01FC00
07FE00
0FFF80
1F0F80
3C03C0
3C03C0
7801E0
7801E0
7800E0
7000F0
F000F0
F000F0
F000F0
FFFFF0
FFFFF0
FFFFF0
F000F0
F000F0
7000F0
7000E0
7801E0
7801E0
3801E0
3C03C0
1E07C0
1FFF80
0FFF00
03FE00
007000
ENDCHAR
STARTCHAR 01A0
ENCODING 416
SWIDTH 495 0
DWIDTH 22 0
BBX 21 33 1 -1
BITMAP
000078
000078
000078
000078
01FC70
07FEF0
0FFFE0
1F0FE0
3E03C0
3C03C0
7801E0
7801E0
7800E0
7000F0
F000F0
F000F0
F000F0
F000F0
F000F0
F000F0
F000F0
F000F0
7000F0
7000E0
7801E0
7801E0
3801E0
3C03C0
1E07C0
1FFF80
0FFF00
03FE00
007000
ENDCHAR
STARTCHAR 01A1
ENCODING 417
SWIDTH 495 0
DWIDTH 22 0
BBX 19 25 2 0
BITMAP
0000E0
0000E0
0000E0
0000E0
03F1E0
0FFDC0
1FFFC0
3E1F80
7C0780
780780
F003C0
F003C0
F003C0
F001C0
F001C0
F001C0
F001C0
F003C0
F003C0
7803C0
780780
3C0F80
3FFF00
1FFE00
07F800
ENDCHAR
STARTCHAR 01A2
ENCODING 418
SWIDTH 495 0
DWIDTH 22 0
BBX 19 29 2 -1
BITMAP
0F9F00
1FFF80
3FFFC0
39F3C0
78F1E0
70F1E0
7071E0
F071E0
F078E0
F078E0
F078E0
F078E0
E078E0
E078E0
E078E0
E078E0
E078E0
F078E0
F078E0
F078E0
F070E0
7070E0
7070E0
78F0E0
78E0E0
3FE0E0
3FC0E0
1F80E0
020000
ENDCHAR
STARTCHAR 01A3
ENCODING 419
SWIDTH 495 0
DWIDTH 22 0
BBX 19 28 1 -7
BITMAP
0F9F00
1FFF80
3FFFC0
78F3C0
70F1E0
7071E0
F071E0
F071E0
F071E0
F071E0
F079E0
F079E0
F071E0
F071E0
F071E0
7071E0
70F1E0
78E1E0
3FE1E0
3FC1E0
1F81E0
0001E0
0001E0
0001E0
0001E0
0001E0
0001E0
0001E0
ENDCHAR
STARTCHAR 01A4
ENCODING 420
SWIDTH 495 0
DWIDTH 22 0
BBX 20 28 1 0
BITMAP
03FC00
1FFF80
7FFFC0
FFC7E0
F3C1E0
E3C0E0
E3C0F0
E3C0F0
03C0F0
03C0F0
03C0F0
03C0F0
03C1E0
03C1E0
03CFC0
03FFC0
03FF80
03FC00
03C000
03C000
03C000
03C000
03C000
03C000
03C000
03C000
03C000
03C000
ENDCHAR
STARTCHAR 01A5
ENCODING 421
SWIDTH 495 0
DWIDTH 22 0
BBX 17 38 3 -7
BITMAP
0F8000
3F0000
7F0000
780000
F00000
F00000
F00000
F00000
F00000
F00000
F7E000
FFF800
FFFC00
F87E00
F01F00
F00F00
F00780
F00780
F00780
F00380
F00380
F00380
F00380
F00780
F00780
F00780
F00F00
F81F00
FFFE00
FFFC00
FFF800
F00000
F00000
F00000
F00000
F00000
F00000
F00000
ENDCHAR
STARTCHAR 01A6
ENCODING 422
SWIDTH 495 0
DWIDTH 22 0
BBX 19 35 2 -4
BITMAP
F00000
F00000
F00000
FFC000
FFF800
FFFE00
F07F00
F00F00
F00780
F00780
F00780
F00780
F00780
F00780
F00780
F00F00
F01F00
FFFE00
FFFC00
FFF000
F07800
F07800
F03C00
F03C00
F01E00
F01E00
F00F00
F00F00
F00780
F00780
F003C0
0003C0
0001E0
0001E0
0001E0
ENDCHAR
STARTCHAR 01A7
ENCODING 423
SWIDTH 495 0
DWIDTH 22 0
BBX 18 29 2 -1
BITMAP
0FF800
3FFC00
3FFE00
381F00
000780
000780
000780
000780
000780
000780
000F80
003F00
00FE00
03FC00
0FF000
1FC000
3E0000
7C0000
780000
700000
F00000
F00000
700000
780000
7C0180
3FFF80
1FFFC0
0FFF00
006000
ENDCHAR
STARTCHAR 01A8
ENCODING 424
SWIDTH 495 0
DWIDTH 22 0
BBX 16 21 3 0
BITMAP
3FF0
7FFC
7FFE
601E
000F
000F
000F
001F
007E
03FC
0FF8
3FC0
7F00
F800
F000
F000
F000
F003
7FFF
7FFF
1FFE
ENDCHAR
STARTCHAR 01A9
ENCODING 425
SWIDTH 495 0
DWIDTH 22 0
BBX 18 28 2 0
BITMAP
FFFFC0
FFFFC0
FFFFC0
7FFFC0
780000
3C0000
1E0000
0F0000
0F0000
078000
03C000
01E000
01F000
00F000
00F000
01E000
03C000
078000
078000
0F0000
1E0000
3C0000
380000
780000
F00000
FFFFC0
FFFFC0
FFFFC0
ENDCHAR
STARTCHAR 01AA
ENCODING 426
SWIDTH 495 0
DWIDTH 22 0
BBX 18 38 2 -7
BITMAP
1E0000
3FC000
7FE000
F1E000
E0E000
E0F000
E0F000
E1F000
7FF000
7FF000
1EF000
00F000
00F000
00F000
00F000
00F000
00F000
00F000
00F000
00F000
00F000
00F000
00F000
00F000
00F000
00F000
00F000
00F000
00F000
00F000
00F000
00F000
00F000
00F800
007800
007FC0
003FC0
000FC0
ENDCHAR
STARTCHAR 01AB
ENCODING 427
SWIDTH 495 0
DWIDTH 22 0
BBX 17 34 3 -7
BITMAP
070000
0F0000
0F0000
0F0000
0F0000
0F0000
FFFF00
FFFF00
FFFF00
0F0000
0F0000
0F0000
0F0000
0F0000
0F0000
0F0000
0F0000
0F0000
0F0000
0F0000
0F0000
0F0000
0F0000
078000
07FF80
03FF80
01FF80
000380
000380
000380
000780
000F80
003F00
007E00
ENDCHAR
STARTCHAR 01AC
ENCODING 428
SWIDTH 495 0
DWIDTH 22 0
BBX 19 28 1 0
BITMAP
01FFE0
1FFFE0
7FFFE0
FFFFE0
F07800
E07800
E07800
E07800
007800
007800
007800
007800
007800
007800
007800
007800
007800
007800
007800
007800
007800
007800
007800
007800
007800
007800
007800
007800
ENDCHAR
STARTCHAR 01AD
ENCODING 429
SWIDTH 495 0
DWIDTH 22 0
BBX 17 31 3 0
BITMAP
003F00
01FF80
03FF80
07F380
078000
0F0000
0F0000
0F0000
0F0000
0F0000
FFFF00
FFFF00
FFFF00
0F0000
0F0000
0F0000
0F0000
0F0000
0F0000
0F0000
0F0000
0F0000
0F0000
0F0000
0F0000
0F0000
0F0000
078080
07FF80
03FF80
01FF80
ENDCHAR
STARTCHAR 01AE
ENCODING 430
SWIDTH 495 0
DWIDTH 22 0
BBX 18 35 2 -7
BITMAP
FFFFC0
FFFFC0
FFFFC0
FFFFC0
01E000
01E000
01E000
01E000
01E000
01E000
01E000
01E000
01E000
01E000
01E000
01E000
01E000
01E000
01E000
01E000
01E000
01E000
01E000
01E000
01E000
01E000
01E000
01E000
01E000
01E000
01E000
00E000
00FE00
00FE00
007E00
ENDCHAR
STARTCHAR 01AF
ENCODING 431
SWIDTH 495 0
DWIDTH 22 0
BBX 20 33 2 -1
BITMAP
0000F0
0000F0
0000F0
0000F0
F00FE0
F00FE0
F00FC0
F00F00
F00F00
F00F00
F00F00
F00F00
F00F00
F00F00
F00F00
F00F00
F00F00
F00F00
F00F00
F00F00
F00F00
F00F00
F00F00
F00F00
F00F00
F00F00
F00E00
781E00
781E00
7FFC00
3FFC00
1FF000
018000
ENDCHAR
STARTCHAR 01B0
ENCODING 432
SWIDTH 495 0
DWIDTH 22 0
BBX 18 25 3 0
BITMAP
0001C0
0001C0
0003C0
0003C0
F03FC0
F03F80
F03F00
F03C00
F03C00
F03C00
F03C00
F03C00
F03C00
F03C00
F03C00
F03C00
F03C00
F03C00
F03C00
F03C00
703C00
783C00
7FFC00
3FFC00
1FFC00
ENDCHAR
STARTCHAR 01B1
ENCODING 433
SWIDTH 495 0
DWIDTH 22 0
BBX 20 29 1 -1
BITMAP
FF8FF0
FF8FF0
FF8FF0
FF0FF0
0E0700
1E0780
1C0380
3C03C0
3801C0
7801E0
7801E0
7800E0
7000E0
7000F0
F000F0
F000F0
F000F0
F000F0
F000F0
7000E0
7801E0
7801E0
7801E0
3C03C0
1E07C0
1FFF80
0FFF00
03FC00
006000
ENDCHAR
STARTCHAR 01B2
ENCODING 434
SWIDTH 495 0
DWIDTH 22 0
BBX 18 29 2 -1
BITMAP
F1E000
F1FC00
F1FE00
F17F00
F00F80
F00780
F00380
F003C0
F003C0
F003C0
F003C0
F001C0
F001C0
F001C0
F001C0
F001C0
F001C0
F003C0
F003C0
F003C0
F003C0
F00380
F00780
780780
780F00
3FFE00
3FFC00
0FF800
018000
ENDCHAR
STARTCHAR 01B3
ENCODING 435
SWIDTH 495 0
DWIDTH 22 0
BBX 22 28 1 0
BITMAP
F00078
F000FC
F001FC
7803DC
780380
3C0380
3C0700
1E0700
1E0F00
0E0E00
0F0E00
071C00
079C00
03FC00
03F800
01F800
00F000
00F000
00F000
00F000
00F000
00F000
00F000
00F000
00F000
00F000
00F000
00F000
ENDCHAR
STARTCHAR 01B4
ENCODING 436
SWIDTH 495 0
DWIDTH 22 0
BBX 21 28 1 -7
BITMAP
F001F8
7803F0
7803F0
780780
780780
3C0700
3C0F00
3C0F00
1E0E00
1E0E00
1E0E00
0F1E00
0F1C00
071C00
079C00
07BC00
03B800
03F800
01F800
01F000
00F000
00E000
00E000
01C000
03C000
FF8000
FF0000
FE0000
ENDCHAR
STARTCHAR 01B5
ENCODING 437
SWIDTH 495 0
DWIDTH 22 0
BBX 18 28 2 0
BITMAP
7FFFC0
7FFFC0
7FFFC0
7FFFC0
000780
000F00
000F00
001E00
003C00
003C00
007800
00F000
3FFF80
3FFF80
3FFF80
03C000
078000
078000
0F0000
0F0000
1E0000
1C0000
3C0000
780000
780000
FFFFC0
FFFFC0
FFFFC0
ENDCHAR
STARTCHAR 01B6
ENCODING 438
SWIDTH 495 0
DWIDTH 22 0
BBX 16 21 3 0
BITMAP
7FFF
7FFF
7FFF
001E
003E
007C
0078
00F0
01E0
7FFE
7FFE
0780
0F00
1F00
1E00
3C00
7800
7800
FFFF
FFFF
FFFF
ENDCHAR
STARTCHAR 01B7
ENCODING 439
SWIDTH 495 0
DWIDTH 22 0
BBX 20 29 1 -1
BITMAP
7FFFE0
7FFFE0
7FFFE0
7FFFC0
0007C0
000780
000F00
001E00
003C00
007800
00F000
01F000
03F800
03FF00
03FF80
000FC0
0003E0
0001E0
0000E0
0000F0
0000F0
0000E0
0001E0
0001E0
6007C0
FFFFC0
FFFF80
3FFE00
03C000
ENDCHAR
STARTCHAR 01B8
ENCODING 440
SWIDTH 495 0
DWIDTH 22 0
BBX 17 29 3 -1
BITMAP
7FFF80
7FFF80
7FFF80
7FFF80
3C0000
3E0000
1E0000
0F0000
078000
07C000
03C000
01E000
03F000
0FF000
3FF000
7E0000
780000
F00000
F00000
F00000
F00000
F00000
F00000
F80000
7C0180
3FFF80
1FFF80
0FFF00
006000
ENDCHAR
STARTCHAR 01B9
ENCODING 441
SWIDTH 495 0
DWIDTH 22 0
BBX 17 28 3 -7
BITMAP
7FFF00
7FFF00
7FFF00
780000
3C0000
1E0000
1E0000
0F0000
078000
03C000
01E000
01E000
03F000
1FF000
3FF000
7C0000
F80000
F00000
E00000
E00000
E00000
F00000
F00000
780000
7C0100
3FFF80
1FFF80
07FF00
ENDCHAR
STARTCHAR 01BA
ENCODING 442
SWIDTH 495 0
DWIDTH 22 0
BBX 17 28 2 -8
BITMAP
7FFF00
7FFF00
7FFF00
000E00
001E00
003C00
007800
00F000
01E000
07C000
07F800
07FE00
007F00
000F00
000780
000780
000780
000780
000F00
003F00
03FE00
1FFC00
7FE000
7E0000
F00000
F00000
E00000
F00000
ENDCHAR
STARTCHAR 01BB
ENCODING 443
SWIDTH 495 0
DWIDTH 22 0
BBX 17 28 3 0
BITMAP
0FE000
7FF800
FFFC00
F87E00
E01E00
400F00
000F00
000F00
000F00
000E00
001E00
001E00
003C00
007800
7FFF80
7FFF80
7FFF80
07C000
0F8000
1F0000
3E0000
3C0000
780000
700000
F00000
FFFF80
FFFF80
FFFF80
ENDCHAR
STARTCHAR 01BC
ENCODING 444
SWIDTH 495 0
DWIDTH 22 0
BBX 18 29 2 -1
BITMAP
FFFF80
FFFF80
FFFF80
FFFF80
0E0000
1E0000
1E0000
1E0000
1C0000
1C0000
1C0000
1FC000
1FF800
1FFE00
00FF00
001F00
000F80
000780
0003C0
0003C0
0003C0
0003C0
000380
000780
600F80
7FFF00
7FFE00
3FF800
010000
ENDCHAR
STARTCHAR 01BD
ENCODING 445
SWIDTH 495 0
DWIDTH 22 0
BBX 16 21 3 0
BITMAP
FFFF
FFFF
FFFF
1C00
1C00
1C00
1C00
3C00
3FC0
3FF8
3FFE
003E
000F
000F
0007
0007
000F
401F
7FFE
FFFC
7FF8
ENDCHAR
STARTCHAR 01BE
ENCODING 446
SWIDTH 495 0
DWIDTH 22 0
BBX 18 27 3 0
BITMAP
070000
0F0000
0F0000
0F0000
0F0000
0F0000
FFFF00
FFFF00
FFFF00
0F0000
0F0000
0F0000
0F0000
0F8000
07C000
07F000
03FC00
00FF00
003F80
000780
000380
0003C0
000380
300780
7FFF80
7FFF00
3FFC00
ENDCHAR
STARTCHAR 01BF
ENCODING 447
SWIDTH 495 0
DWIDTH 22 0
BBX 18 28 3 -7
BITMAP
1FF000
FFFC00
FFFE00
F83F00
F00F80
F00780
F00780
F00380
F003C0
F003C0
F00380
F00780
F00780
F00780
F00F00
F01F00
F03E00
F07C00
F1F800
FFF000
FFE000
FF0000
FC0000
F00000
F00000
F00000
F00000
F00000
ENDCHAR
STARTCHAR 01C0
ENCODING 448
SWIDTH 495 0
DWIDTH 22 0
BBX 4 38 9 -7
BITMAP
F0
F0
F0
F0
F0
F0
F0
F0
F0
F0
F0
F0
F0
F0
F0
F0
F0
F0
F0
F0
F0
F0
F0
F0
F0
F0
F0
F0
F0
F0
F0
F0
F0
F0
F0
F0
F0
F0
ENDCHAR
STARTCHAR 01C1
ENCODING 449
SWIDTH 495 0
DWIDTH 22 0
BBX 12 38 5 -7
BITMAP
F0F0
F0F0
F0F0
F0F0
F0F0
F0F0
F0F0
F0F0
F0F0
F0F0
F0F0
F0F0
F0F0
F0F0
F0F0
F0F0
F0F0
F0F0
F0F0
F0F0
F0F0
F0F0
F0F0
F0F0
F0F0
F0F0
F0F0
F0F0
F0F0
F0F0
F0F0
F0F0
F0F0
F0F0
F0F0
F0F0
F0F0
F0F0
ENDCHAR
STARTCHAR 01C2
ENCODING 450
SWIDTH 495 0
DWIDTH 22 0
BBX 19 38 2 -7
BITMAP
01E000
01E000
01E000
01E000
01E000
01E000
01E000
01E000
01E000
01E000
01E000
01E000
01E000
01E000
FFFFE0
FFFFE0
FFFFE0
01E000
01E000
01E000
01E000
FFFFE0
FFFFE0
FFFFE0
01E000
01E000
01E000
01E000
01E000
01E000
01E000
01E000
01E000
01E000
01E000
01E000
01E000
01E000
ENDCHAR
STARTCHAR 01C3
ENCODING 451
SWIDTH 495 0
DWIDTH 22 0
BBX 6 29 8 -1
BITMAP
78
78
78
78
78
78
78
78
78
78
78
78
78
78
78
78
38
30
30
00
00
00
00
78
FC
FC
FC
78
30
ENDCHAR
STARTCHAR 01C4
ENCODING 452
SWIDTH 495 0
DWIDTH 22 0
BBX 21 36 1 0
BITMAP
000818
001C38
000E70
0007E0
0003C0
000180
000000
000000
7C07F0
FE07F0
FF07F0
E787F0
E3C070
E1C0F0
E1C0E0
E1C0E0
E1E0E0
E0E1E0
E0E1C0
E0E1C0
E0E1C0
E0E3C0
E0E380
E0E380
E0E380
E0E380
E0E700
E0E700
E1E700
E1C700
E1CE00
E3CE00
E38E00
FF8FF0
FF0FF0
FE0FF0
ENDCHAR
STARTCHAR 01C5
ENCODING 453
SWIDTH 495 0
DWIDTH 22 0
BBX 21 29 1 0
BITMAP
000208
7C0718
FE03F8
FF01F0
E780E0
E3C040
E1C000
E1C000
E1C7F0
E1E7F0
E0E7F0
E0E070
E0E070
E0E070
E0E0E0
E0E0E0
E0E0C0
E0E1C0
E0E1C0
E0E1C0
E0E380
E1E380
E1C380
E1C300
E3C700
E38700
FF87F0
FF07F0
FE07F0
ENDCHAR
STARTCHAR 01C6
ENCODING 454
SWIDTH 495 0
DWIDTH 22 0
BBX 22 31 0 0
BITMAP
003000
00F000
00F104
00F38C
00F1FC
00F0F8
00F070
00F020
00F000
00F000
0FF1FC
3FF1FC
3FF1FC
78F01C
70F018
70F038
F0F038
F0F070
E0F070
E0F070
E0F0E0
E0F0E0
E0F0E0
F0F0C0
F0F1C0
70F1C0
70F1C0
78F380
3CF3FC
3FF3FC
1FE3FC
ENDCHAR
STARTCHAR 01C7
ENCODING 455
SWIDTH 495 0
DWIDTH 22 0
BBX 19 28 2 0
BITMAP
E001E0
E001E0
E001E0
E001E0
E001E0
E001E0
E001E0
E001E0
E001E0
E001E0
E001E0
E001E0
E001E0
E001E0
E001E0
E001E0
E001E0
E001E0
E001E0
E001E0
E001E0
E001E0
E001E0
E001E0
E003C0
FF9FC0
FF9F80
FF9F00
ENDCHAR
STARTCHAR 01C8
ENCODING 456
SWIDTH 495 0
DWIDTH 22 0
BBX 19 36 2 -7
BITMAP
0003C0
F003E0
F003E0
F003E0
F001C0
F00000
F00000
F00000
F001C0
F001C0
F001C0
F001C0
F001C0
F001C0
F001C0
F001C0
F001C0
F001C0
F001C0
F001C0
F001C0
F001C0
F001C0
F001C0
F001C0
F001C0
FFE1C0
FFE1C0
FFE1C0
0001C0
0003C0
0003C0
0007C0
007F80
007F00
007E00
ENDCHAR
STARTCHAR 01C9
ENCODING 457
SWIDTH 495 0
DWIDTH 22 0
BBX 15 38 4 -7
BITMAP
3000
F000
F03C
F03E
F03E
F03C
F018
F000
F000
F000
F03C
F03C
F03C
F03C
F03C
F03C
F03C
F03C
F03C
F03C
F03C
F03C
F03C
F03C
F03C
F03C
F03C
783C
7C3C
7C3C
3C3C
003C
003C
003C
0078
07F8
07F0
0FE0
ENDCHAR
STARTCHAR 01CA
ENCODING 458
SWIDTH 495 0
DWIDTH 22 0
BBX 19 28 2 0
BITMAP
E1C0E0
E1C0E0
E1C0E0
E1C0E0
F1C0E0
F1C0E0
F1C0E0
F1C0E0
F9C0E0
F9C0E0
F9C0E0
DDC0E0
DDC0E0
DCC0E0
CCC0E0
CEC0E0
CEC0E0
CEC0E0
C6C0E0
C7C0E0
C7C0E0
C7C0E0
C3C0E0
C3C1E0
C3C3C0
C1CFC0
C1CF80
C1CF00
ENDCHAR
STARTCHAR 01CB
ENCODING 459
SWIDTH 495 0
DWIDTH 22 0
BBX 19 36 2 -7
BITMAP
0001E0
E1C3E0
E1C3E0
E1C3E0
E1C1C0
F1C000
F1C000
F1C000
F1C1C0
F9C1C0
F9C1C0
F9C1C0
DDC1C0
DDC1C0
DCC1C0
CCC1C0
CEC1C0
CEC1C0
CEC1C0
C6C1C0
C7C1C0
C7C1C0
C7C1C0
C3C1C0
C3C1C0
C3C1C0
C1C1C0
C1C1C0
C1C1C0
0001C0
0001C0
0001C0
0003C0
007F80
007F80
007F00
ENDCHAR
STARTCHAR 01CC
ENCODING 460
SWIDTH 495 0
DWIDTH 22 0
BBX 19 36 2 -7
BITMAP
0003C0
0003E0
0003E0
0003E0
0001C0
000000
000000
000000
7F01C0
FF81C0
FFC1C0
E3C1C0
E1E1C0
E1E1C0
E1E1C0
E1E1C0
E0E1C0
E0E1C0
E0E1C0
E0E1C0
E0E1C0
E0E1C0
E0E1C0
E0E1C0
E0E1C0
E0E1C0
E0E1C0
E0E1C0
E0E1C0
0001C0
0001C0
0003C0
0003C0
007F80
007F00
007E00
ENDCHAR
STARTCHAR 01CD
ENCODING 461
SWIDTH 495 0
DWIDTH 22 0
BBX 21 37 1 0
BITMAP
020000
070E00
079E00
03FC00
01F800
00F000
006000
000000
000000
00F000
00F800
01F800
01FC00
03FC00
039C00
039E00
079E00
070E00
070F00
0F0F00
0E0700
0E0780
1E0780
1E0380
1C0380
1C03C0
3C03C0
3FFFC0
3FFFE0
7FFFE0
7801E0
7000E0
7000F0
F000F0
F000F0
E00070
E00078
ENDCHAR
STARTCHAR 01CE
ENCODING 462
SWIDTH 495 0
DWIDTH 22 0
BBX 16 30 3 1
BITMAP
1C18
1E38
0FF0
07E0
03C0
0180
0000
0000
0000
1FF0
3FFC
3FFE
203E
000F
000F
000F
0007
00C7
1FFF
3FFF
7F7F
F807
F007
E007
E007
F007
F807
7FFF
7FFF
1FFF
ENDCHAR
STARTCHAR 01CF
ENCODING 463
SWIDTH 495 0
DWIDTH 22 0
BBX 14 37 4 0
BITMAP
1000
3870
3CF0
1FE0
0FC0
0780
0300
0000
0000
FFFC
FFFC
FFFC
FFFC
0780
0780
0780
0780
0780
0780
0780
0780
0780
0780
0780
0780
0780
0780
0780
0780
0780
0780
0780
0780
0780
FFFC
FFFC
FFFC
ENDCHAR
STARTCHAR 01D0
ENCODING 464
SWIDTH 495 0
DWIDTH 22 0
BBX 18 31 2 0
BITMAP
001000
183000
1C7800
1EF000
0FE000
07C000
038000
010000
000000
000000
FFC000
FFC000
FFC000
03C000
03C000
03C000
03C000
03C000
03C000
03C000
03C000
03C000
03C000
03C000
03C000
03C000
01C000
01E040
01FFC0
00FFC0
007FC0
ENDCHAR
STARTCHAR 01D1
ENCODING 465
SWIDTH 495 0
DWIDTH 22 0
BBX 20 38 1 -1
BITMAP
020000
070E00
079E00
03FC00
01F800
00F000
006000
000000
000000
01FC00
07FE00
0FFF80
1F0F80
3E03C0
3C03C0
7801E0
7801E0
7800E0
7000F0
F000F0
F000F0
F000F0
F000F0
F000F0
F000F0
F000F0
F000F0
7000F0
7000E0
7801E0
7801E0
3801E0
3C03C0
1E07C0
1FFF80
0FFF00
03FE00
007000
ENDCHAR
STARTCHAR 01D2
ENCODING 466
SWIDTH 495 0
DWIDTH 22 0
BBX 18 30 2 1
BITMAP
0E0C00
0F1C00
07F800
03F000
01E000
00C000
000000
000000
000000
03F000
0FFC00
1FFE00
3E1F00
7C0780
780780
F003C0
F003C0
F003C0
F001C0
F001C0
F001C0
F001C0
F003C0
F003C0
7803C0
780780
3C0F80
3FFF00
1FFE00
07F800
ENDCHAR
STARTCHAR 01D3
ENCODING 467
SWIDTH 495 0
DWIDTH 22 0
BBX 18 38 2 -1
BITMAP
040000
0E1C00
0F3C00
07F800
03F000
01E000
00C000
000000
000000
F003C0
F003C0
F003C0
F003C0
F003C0
F003C0
F003C0
F003C0
F003C0
F003C0
F003C0
F003C0
F003C0
F003C0
F003C0
F003C0
F003C0
F003C0
F003C0
F003C0
F003C0
F003C0
7003C0
780780
7C0F80
3FFF00
1FFE00
0FFC00
00C000
ENDCHAR
STARTCHAR 01D4
ENCODING 468
SWIDTH 495 0
DWIDTH 22 0
BBX 16 30 3 1
BITMAP
1C18
1E38
0FF0
07E0
03C0
0180
0000
0000
0000
F00F
F00F
F00F
F00F
F00F
F00F
F00F
F00F
F00F
F00F
F00F
F00F
F00F
F00F
F00F
F00F
780F
7C0F
3FFF
3FFF
0FFF
ENDCHAR
STARTCHAR 01D5
ENCODING 469
SWIDTH 495 0
DWIDTH 22 0
BBX 18 38 2 -1
BITMAP
0FFC00
0FFC00
0FFC00
000000
0E0E00
1E1E00
1E1E00
1E1E00
000000
000000
F003C0
F003C0
F003C0
F003C0
F003C0
F003C0
F003C0
F003C0
F003C0
F003C0
F003C0
F003C0
F003C0
F003C0
F003C0
F003C0
F003C0
F003C0
F003C0
F003C0
F003C0
7003C0
780780
7C0F80
3FFF00
1FFE00
0FFC00
00C000
ENDCHAR
STARTCHAR 01D6
ENCODING 470
SWIDTH 495 0
DWIDTH 22 0
BBX 16 32 3 0
BITMAP
1FF8
1FF8
1FF8
0000
1818
3C3C
3C3C
3C3C
1818
0000
0000
F00F
F00F
F00F
F00F
F00F
F00F
F00F
F00F
F00F
F00F
F00F
F00F
F00F
F00F
F00F
F00F
780F
7C0F
3FFF
3FFF
0FFF
ENDCHAR
STARTCHAR 01D7
ENCODING 471
SWIDTH 495 0
DWIDTH 22 0
BBX 18 38 2 -1
BITMAP
002000
007000
007000
10E200
3DE700
3CCF80
3C0F80
180700
000000
F003C0
F003C0
F003C0
F003C0
F003C0
F003C0
F003C0
F003C0
F003C0
F003C0
F003C0
F003C0
F003C0
F003C0
F003C0
F003C0
F003C0
F003C0
F003C0
F003C0
F003C0
F003C0
7003C0
780780
7C0F80
3FFF00
1FFE00
0FFC00
00C000
ENDCHAR
STARTCHAR 01D8
ENCODING 472
SWIDTH 495 0
DWIDTH 22 0
BBX 16 34 3 0
BITMAP
0020
0070
0070
00E0
01E0
01C0
1988
3C3C
3C3C
3C3C
1818
0000
0000
F00F
F00F
F00F
F00F
F00F
F00F
F00F
F00F
F00F
F00F
F00F
F00F
F00F
F00F
F00F
F00F
780F
7C0F
3FFF
3FFF
0FFF
ENDCHAR
STARTCHAR 01D9
ENCODING 473
SWIDTH 495 0
DWIDTH 22 0
BBX 18 38 2 -1
BITMAP
021000
03F800
03F000
11E200
3C0700
3C0F80
3C0F80
180700
000000
F003C0
F003C0
F003C0
F003C0
F003C0
F003C0
F003C0
F003C0
F003C0
F003C0
F003C0
F003C0
F003C0
F003C0
F003C0
F003C0
F003C0
F003C0
F003C0
F003C0
F003C0
F003C0
7003C0
780780
7C0F80
3FFF00
1FFE00
0FFC00
00C000
ENDCHAR
STARTCHAR 01DA
ENCODING 474
SWIDTH 495 0
DWIDTH 22 0
BBX 16 33 3 0
BITMAP
0810
1E78
0FF0
07E0
0180
1808
3C3C
3C3C
3C3C
1818
0000
0000
F00F
F00F
F00F
F00F
F00F
F00F
F00F
F00F
F00F
F00F
F00F
F00F
F00F
F00F
F00F
F00F
780F
7C0F
3FFF
3FFF
0FFF
ENDCHAR
STARTCHAR 01DB
ENCODING 475
SWIDTH 495 0
DWIDTH 22 0
BBX 18 37 2 0
BITMAP
038000
03C000
11C200
3CE700
3C4F80
3C0F00
180700
000000
F003C0
F003C0
F003C0
F003C0
F003C0
F003C0
F003C0
F003C0
F003C0
F003C0
F003C0
F003C0
F003C0
F003C0
F003C0
F003C0
F003C0
F003C0
F003C0
F003C0
F003C0
F003C0
7003C0
780780
7C0F80
3FFF00
1FFE00
0FFC00
00C000
ENDCHAR
STARTCHAR 01DC
ENCODING 476
SWIDTH 495 0
DWIDTH 22 0
BBX 16 33 3 1
BITMAP
0E00
0F00
0700
0380
01C0
1988
3C3C
3C3C
3C3C
1818
0000
0000
F00F
F00F
F00F
F00F
F00F
F00F
F00F
F00F
F00F
F00F
F00F
F00F
F00F
F00F
F00F
F00F
780F
7C0F
3FFF
3FFF
0FFF
ENDCHAR
STARTCHAR 01DD
ENCODING 477
SWIDTH 495 0
DWIDTH 22 0
BBX 18 21 2 0
BITMAP
1FF000
7FFC00
3FFE00
303F00
000F80
000780
0003C0
0003C0
0003C0
0001C0
FFFFC0
FFFFC0
FFFFC0
F003C0
F003C0
7003C0
780780
7C0F00
3FFF00
1FFE00
0FF800
ENDCHAR
STARTCHAR 01DE
ENCODING 478
SWIDTH 495 0
DWIDTH 22 0
BBX 21 37 1 0
BITMAP
07FE00
07FE00
07FE00
000000
070700
0F0F00
0F0F00
0F0F00
000000
000000
00F800
01F800
01F800
01FC00
03FC00
039C00
039E00
079E00
070E00
070F00
0F0F00
0E0700
0E0780
1E0780
1C0380
1C03C0
3C03C0
3FFFC0
3FFFC0
7FFFE0
7801E0
7800E0
7000F0
F000F0
F000F0
F00070
E00078
ENDCHAR
STARTCHAR 01DF
ENCODING 479
SWIDTH 495 0
DWIDTH 22 0
BBX 16 32 3 0
BITMAP
1FF8
1FF8
1FF8
0000
1818
3C3C
3C3C
3C3C
1818
0000
0000
1FF0
3FFC
3FFE
203E
000F
000F
000F
0007
00C7
1FFF
3FFF
7F7F
F807
F007
E007
E007
F007
F807
7FFF
7FFF
1FFF
ENDCHAR
STARTCHAR 01E0
ENCODING 480
SWIDTH 495 0
DWIDTH 22 0
BBX 21 37 1 0
BITMAP
07FE00
07FE00
07FE00
000000
00F000
00F000
00F000
00F000
000000
000000
00F800
01F800
01F800
01FC00
03FC00
039C00
039E00
079E00
070E00
070F00
0F0F00
0E0700
0E0780
1E0780
1C0380
1C03C0
3C03C0
3FFFC0
3FFFC0
7FFFE0
7801E0
7800E0
7000F0
F000F0
F000F0
F00070
E00078
ENDCHAR
STARTCHAR 01E1
ENCODING 481
SWIDTH 495 0
DWIDTH 22 0
BBX 16 32 3 0
BITMAP
1FF8
1FF8
1FF8
0000
0180
03C0
03C0
03C0
0180
0000
0000
1FF0
3FFC
3FFE
203E
000F
000F
000F
0007
00C7
1FFF
3FFF
7F7F
F807
F007
E007
E007
F007
F807
7FFF
7FFF
1FFF
ENDCHAR
STARTCHAR 01E2
ENCODING 482
SWIDTH 495 0
DWIDTH 22 0
BBX 20 34 1 0
BITMAP
00FFF0
00FFF0
000000
000000
000000
000000
007FF0
00FFF0
00FFF0
00DFF0
01DC00
01DC00
03DC00
039C00
039C00
079C00
071C00
071C00
071FE0
0E1FE0
0E1FE0
0E1C00
1E1C00
1C1C00
1FFC00
3FFC00
3FFC00
381C00
381C00
781C00
781C00
701FF0
701FF0
F01FF0
ENDCHAR
STARTCHAR 01E3
ENCODING 483
SWIDTH 495 0
DWIDTH 22 0
BBX 20 28 1 0
BITMAP
07FF00
07FF00
07FF00
000000
000000
000000
000000
3F8780
3FCFC0
3FFFE0
21FCE0
00F8F0
00F070
00F070
007070
027070
1FFFF0
3FFFF0
7DFFF0
707000
F07000
F07000
F07800
F07800
787C00
7FFFE0
3FFFF0
1FCFE0
ENDCHAR
STARTCHAR 01E4
ENCODING 484
SWIDTH 495 0
DWIDTH 22 0
BBX 19 29 2 -1
BITMAP
01FE00
07FF80
0FFF80
1F8700
1E0100
3C0000
7C0000
780000
780000
F00000
F00000
F00000
F00000
F00000
F00780
F00780
F00780
F03FE0
F03FE0
703FE0
780780
780780
3C0780
3E0780
1F0780
1FFF80
0FFF80
03FF80
002000
ENDCHAR
STARTCHAR 01E5
ENCODING 485
SWIDTH 495 0
DWIDTH 22 0
BBX 19 28 2 -7
BITMAP
07FC00
0FFF00
3FFF00
3E0F00
780700
780700
F00700
F00700
F00700
F07FE0
F07FE0
F00700
F00700
F00700
F00700
780700
7C1F00
3FFF00
1FFF00
0FF700
000700
000F00
000F00
000F00
401E00
7FFE00
7FFC00
7FF000
ENDCHAR
STARTCHAR 01E6
ENCODING 486
SWIDTH 495 0
DWIDTH 22 0
BBX 18 38 2 -1
BITMAP
010100
038380
01C700
00EE00
007C00
003C00
003800
001000
000000
00FF00
03FFC0
0FFFC0
1F8380
1E0080
3C0000
3C0000
780000
780000
700000
F00000
F00000
F00000
F00000
F001C0
F001C0
F001C0
F001C0
F001C0
7001C0
7801C0
7801C0
3C01C0
3E01C0
1F01C0
0FFFC0
07FFC0
03FFC0
003000
ENDCHAR
STARTCHAR 01E7
ENCODING 487
SWIDTH 495 0
DWIDTH 22 0
BBX 17 37 2 -6
BITMAP
060E00
071E00
03FC00
01F800
00F000
006000
000000
000000
000000
03FE00
0FFF80
1FFF80
3F0780
7C0780
780780
F00780
F00780
F00780
F00780
F00780
F00780
F00780
F00780
F00780
780780
7E0F80
3FFF80
1FFF80
07F780
000780
000780
000780
000F00
401F00
7FFE00
7FFC00
7FF800
ENDCHAR
STARTCHAR 01E8
ENCODING 488
SWIDTH 495 0
DWIDTH 22 0
BBX 19 37 3 0
BITMAP
080000
1C3800
1E7800
0FF000
07E000
03C000
018000
000000
000000
E003C0
E00780
E00F00
E01F00
E01E00
E03C00
E07800
E0F800
E1F000
E3E000
E3C000
E78000
EF0000
FF0000
FF8000
EFC000
E3E000
E1F000
E0F800
E07C00
E03C00
E03E00
E01F00
E00F00
E00780
E007C0
E003C0
E003E0
ENDCHAR
STARTCHAR 01E9
ENCODING 489
SWIDTH 495 0
DWIDTH 22 0
BBX 19 37 2 0
BITMAP
408000
E38000
7F8000
3F0000
1C0000
000000
000000
000000
780000
780000
780000
780000
780000
780000
780000
780000
7803C0
780780
780F80
781E00
783C00
787800
78F000
79E000
7FC000
7F8000
7FC000
7FE000
79F000
78F800
787C00
783E00
781F00
780F80
7807C0
7803C0
7801E0
ENDCHAR
STARTCHAR 01EA
ENCODING 490
SWIDTH 495 0
DWIDTH 22 0
BBX 20 35 1 -7
BITMAP
01FC00
07FE00
0FFF80
1F0F80
3C03C0
3C03C0
7801E0
7801E0
7800E0
7000F0
F000F0
F000F0
F000F0
F000F0
F000F0
F000F0
F000F0
F000F0
7000F0
7000F0
7801E0
7801E0
3801E0
3C03C0
1E07C0
1FFF80
0FFF00
03FE00
007800
007000
00F000
00E000
00E000
00FC00
007E00
ENDCHAR
STARTCHAR 01EB
ENCODING 491
SWIDTH 495 0
DWIDTH 22 0
BBX 18 28 2 -7
BITMAP
03F000
0FFC00
1FFE00
3E1F00
7C0780
780780
F003C0
F003C0
F003C0
F001C0
F001C0
F001C0
F001C0
F003C0
F003C0
7803C0
780780
3C0F80
3FFF00
1FFE00
07F800
00F000
01E000
01C000
038000
03C000
03F800
01F800
ENDCHAR
STARTCHAR 01EC
ENCODING 492
SWIDTH 495 0
DWIDTH 22 0
BBX 20 41 1 -7
BITMAP
0FFF00
0FFF00
000000
000000
000000
000000
01FC00
07FE00
0FFF80
1F0F80
3C03C0
3C03C0
7801E0
7801E0
7800E0
7000F0
F000F0
F000F0
F000F0
F000F0
F000F0
F000F0
F000F0
F000F0
7000F0
7000F0
7801E0
7801E0
3801E0
3C03C0
1E07C0
1FFF80
0FFF00
03FE00
007800
007000
00F000
00E000
00E000
00FC00
007E00
ENDCHAR
STARTCHAR 01ED
ENCODING 493
SWIDTH 495 0
DWIDTH 22 0
BBX 18 35 2 -7
BITMAP
1FFE00
1FFE00
1FFE00
000000
000000
000000
000000
03F000
0FFC00
1FFE00
3E1F00
7C0780
780780
F003C0
F003C0
F003C0
F001C0
F001C0
F001C0
F001C0
F003C0
F003C0
7803C0
780780
3C0F80
3FFF00
1FFE00
07F800
00F000
01E000
01C000
038000
03C000
03F800
01F800
ENDCHAR
STARTCHAR 01EE
ENCODING 494
SWIDTH 495 0
DWIDTH 22 0
BBX 20 38 1 -1
BITMAP
020000
070E00
079E00
03FC00
01F800
00F000
006000
000000
000000
7FFFE0
7FFFE0
7FFFE0
7FFFC0
0007C0
000780
000F00
001E00
003C00
007800
00F000
01F000
03F800
03FF00
03FF80
000FC0
0003E0
0001E0
0000E0
0000F0
0000F0
0000E0
0001E0
0001E0
6007C0
FFFFC0
FFFF80
3FFE00
03C000
ENDCHAR
STARTCHAR 01EF
ENCODING 495
SWIDTH 495 0
DWIDTH 22 0
BBX 17 37 2 -6
BITMAP
0E0C00
0F1C00
07F800
03F000
01E000
00C000
000000
000000
000000
7FFF00
7FFF00
7FFF00
000F00
001E00
003C00
007C00
007800
00F000
01E000
03C000
03C000
07E000
07FC00
07FE00
001F00
000F80
000780
000780
000780
000780
000780
000780
000F00
403F00
FFFE00
FFFC00
7FF000
ENDCHAR
STARTCHAR 01F0
ENCODING 496
SWIDTH 495 0
DWIDTH 22 0
BBX 15 39 3 -8
BITMAP
0004
060E
071E
03BC
01F8
00F0
00E0
0040
0000
0000
3FFC
3FFC
3FFC
003C
003C
003C
003C
003C
003C
003C
003C
003C
003C
003C
003C
003C
003C
003C
003C
003C
003C
003C
003C
003C
6078
7FF8
FFF0
7FE0
0200
ENDCHAR
STARTCHAR 01F1
ENCODING 497
SWIDTH 495 0
DWIDTH 22 0
BBX 20 28 1 0
BITMAP
7C07F0
FE07F0
FF07F0
E787F0
E3C070
E1C0F0
E1C0E0
E1C0E0
E1E0E0
E0E1E0
E0E1C0
E0E1C0
E0E1C0
E0E3C0
E0E380
E0E380
E0E380
E0E380
E0E700
E0E700
E1E700
E1C700
E1CE00
E3CE00
E38E00
FF8FF0
FF0FF0
FE0FF0
ENDCHAR
STARTCHAR 01F2
ENCODING 498
SWIDTH 495 0
DWIDTH 22 0
BBX 20 28 1 0
BITMAP
7C0000
FE0000
FF0000
E78000
E3C000
E1C000
E1C000
E1C7F0
E1E7F0
E0E7F0
E0E070
E0E070
E0E070
E0E0E0
E0E0E0
E0E0C0
E0E1C0
E0E1C0
E0E1C0
E0E380
E1E380
E1C380
E1C300
E3C700
E38700
FF87F0
FF07F0
FE07F0
ENDCHAR
STARTCHAR 01F3
ENCODING 499
SWIDTH 495 0
DWIDTH 22 0
BBX 22 31 0 0
BITMAP
003000
00F000
00F000
00F000
00F000
00F000
00F000
00F000
00F000
00F000
0FF1FC
3FF1FC
3FF1FC
78F01C
70F018
70F038
F0F038
F0F070
E0F070
E0F070
E0F0E0
E0F0E0
E0F0E0
F0F0C0
F0F1C0
70F1C0
70F1C0
78F380
3CF3FC
3FF3FC
1FE3FC
ENDCHAR
STARTCHAR 01F4
ENCODING 500
SWIDTH 495 0
DWIDTH 22 0
BBX 18 38 2 -1
BITMAP
000400
000E00
001E00
003C00
007800
007000
00E000
004000
000000
00FF00
03FFC0
0FFFC0
1F8380
1E0080
3C0000
3C0000
780000
780000
700000
F00000
F00000
F00000
F00000
F001C0
F001C0
F001C0
F001C0
F001C0
7001C0
7801C0
7801C0
3C01C0
3E01C0
1F01C0
0FFFC0
07FFC0
03FFC0
003000
ENDCHAR
STARTCHAR 01F5
ENCODING 501
SWIDTH 495 0
DWIDTH 22 0
BBX 17 38 2 -7
BITMAP
000800
001C00
001E00
003C00
007800
00F000
00E000
004000
000000
000000
03FE00
0FFF80
1FFF80
3F0780
7C0780
780780
F00780
F00780
F00780
F00780
F00780
F00780
F00780
F00780
F00780
780780
7E0F80
3FFF80
1FFF80
07F780
000780
000780
000780
000F00
401F00
7FFE00
7FFC00
7FF800
ENDCHAR
STARTCHAR 01F6
ENCODING 502
SWIDTH 495 0
DWIDTH 22 0
BBX 19 29 2 -1
BITMAP
E0E000
E0E000
E0E000
E0E000
E0E000
E0E000
E0E000
E0E1E0
E0E1E0
E0E1E0
E0E1E0
E0E1E0
FFE1E0
FFE1E0
FFE1E0
E0E1E0
E0E1E0
E0E1E0
E0E1E0
E0E1E0
E0E1E0
E0E1E0
E0E1E0
E0E1C0
E0F1C0
E0FFC0
E07F80
E03F80
000C00
ENDCHAR
STARTCHAR 01F7
ENCODING 503
SWIDTH 495 0
DWIDTH 22 0
BBX 17 35 3 -7
BITMAP
07C000
3FF800
FFFE00
FE7F00
F01F00
F00F80
F00780
F00780
F00780
F00380
F00380
F00380
F00380
F00780
F00780
F00780
F00700
F00F00
F01F00
F01E00
F03C00
F07800
F1F000
F3E000
FFC000
FF8000
FE0000
F80000
F00000
F00000
F00000
F00000
F00000
F00000
F00000
ENDCHAR
STARTCHAR 01F8
ENCODING 504
SWIDTH 495 0
DWIDTH 22 0
BBX 18 37 2 0
BITMAP
010000
038000
07C000
03C000
01E000
00F000
007000
002000
000000
F003C0
F803C0
F803C0
FC03C0
FC03C0
FE03C0
FE03C0
F703C0
F783C0
F383C0
F3C3C0
F1C3C0
F1C3C0
F0E3C0
F0E3C0
F073C0
F073C0
F07BC0
F03BC0
F03FC0
F01FC0
F01FC0
F00FC0
F00FC0
F007C0
F007C0
F007C0
F003C0
ENDCHAR
STARTCHAR 01F9
ENCODING 505
SWIDTH 495 0
DWIDTH 22 0
BBX 16 30 3 1
BITMAP
0600
0F00
0780
03C0
01C0
00E0
0040
0000
0000
3FF0
FFF8
FFFC
F03E
F01F
F00F
F00F
F00F
F007
F007
F007
F007
F007
F007
F007
F007
F007
F007
F007
F007
F007
ENDCHAR
STARTCHAR 01FA
ENCODING 506
SWIDTH 495 0
DWIDTH 22 0
BBX 21 37 1 0
BITMAP
000800
003800
01FC00
01F000
018000
000000
00F000
01D800
010C00
030C00
018C00
01F800
01F800
01F800
03DC00
039C00
039E00
078E00
070E00
070F00
0F0700
0E0700
0E0780
1E0380
1C0380
1C03C0
3C03C0
3FFFC0
3FFFC0
7FFFE0
7801E0
7000E0
7000F0
F000F0
F000F0
E00070
E00078
ENDCHAR
STARTCHAR 01FB
ENCODING 507
SWIDTH 495 0
DWIDTH 22 0
BBX 16 36 3 0
BITMAP
0060
00E0
03F0
07C0
0600
0000
03C0
07E0
0630
0C30
0430
07E0
03C0
0000
0000
1FF0
3FFC
3FFE
203E
000F
000F
000F
0007
00C7
1FFF
3FFF
7F7F
F807
F007
E007
E007
F007
F807
7FFF
7FFF
1FFF
ENDCHAR
STARTCHAR 01FC
ENCODING 508
SWIDTH 495 0
DWIDTH 22 0
BBX 20 37 1 0
BITMAP
000080
0001C0
0003C0
000780
000F00
000E00
001C00
000800
000000
007FF0
00FFF0
00FFF0
00DFF0
01DC00
01DC00
03DC00
039C00
039C00
079C00
071C00
071C00
071FE0
0E1FE0
0E1FE0
0E1C00
1E1C00
1C1C00
1FFC00
3FFC00
3FFC00
381C00
381C00
781C00
781C00
701FF0
701FF0
F01FF0
ENDCHAR
STARTCHAR 01FD
ENCODING 509
SWIDTH 495 0
DWIDTH 22 0
BBX 20 30 1 1
BITMAP
000C00
001E00
003E00
003C00
007800
00E000
004000
000000
000000
3F8780
3FCFC0
3FFFE0
21FCE0
00F8F0
00F070
00F070
007070
027070
1FFFF0
3FFFF0
7DFFF0
707000
F07000
F07000
F07800
F07800
787C00
7FFFE0
3FFFF0
1FCFE0
ENDCHAR
STARTCHAR 01FE
ENCODING 510
SWIDTH 495 0
DWIDTH 22 0
BBX 20 38 1 -1
BITMAP
000800
001C00
001E00
003C00
007800
00F000
00E000
004000
000100
01F9C0
07FFC0
0FFF80
1F0F80
3E07C0
3C0FC0
780FE0
780FE0
781CE0
701CF0
F038F0
F038F0
F078F0
F070F0
F0F0F0
F0E0F0
F1E0F0
F1C0F0
73C0F0
7380E0
7781E0
7F01E0
3F01E0
3E03C0
1E07C0
1FFF80
3FFF00
3BFE00
387000
ENDCHAR
STARTCHAR 01FF
ENCODING 511
SWIDTH 495 0
DWIDTH 22 0
BBX 18 32 2 -1
BITMAP
001000
001800
003C00
007800
00F000
01E000
01C000
008000
000000
000080
03F9C0
0FFFC0
1FFF80
3E1F00
7C0F80
781F80
F01FC0
F03BC0
F071C0
F0F1C0
F0E1C0
F1C1C0
F381C0
F783C0
F703C0
7E03C0
7C0780
3C0F80
3FFF00
7FFE00
E7F800
600000
ENDCHAR
STARTCHAR 0200
ENCODING 512
SWIDTH 495 0
DWIDTH 22 0
BBX 21 37 1 0
BITMAP
040000
0E1800
0E3C00
0F1E00
078E00
03C700
01C380
008000
000000
00F000
00F800
01F800
01FC00
03FC00
039C00
039E00
079E00
070E00
070F00
0F0F00
0E0700
0E0780
1E0780
1E0380
1C0380
1C03C0
3C03C0
3FFFC0
3FFFE0
7FFFE0
7801E0
7000E0
7000F0
F000F0
F000F0
E00070
E00078
ENDCHAR
STARTCHAR 0201
ENCODING 513
SWIDTH 495 0
DWIDTH 22 0
BBX 16 31 3 0
BITMAP
1000
3860
78F0
3C78
1E38
0E1C
070E
020C
0000
0000
1FF0
3FFC
3FFE
203E
000F
000F
000F
0007
00C7
1FFF
3FFF
7F7F
F807
F007
E007
E007
F007
F807
7FFF
7FFF
1FFF
ENDCHAR
STARTCHAR 0202
ENCODING 514
SWIDTH 495 0
DWIDTH 22 0
BBX 21 36 1 0
BITMAP
00F000
03FC00
03FE00
070E00
060600
060600
000000
000000
00F000
00F800
01F800
01FC00
03FC00
039C00
039E00
079E00
070E00
070F00
0F0F00
0E0700
0E0780
1E0780
1E0380
1C0380
1C03C0
3C03C0
3FFFC0
3FFFE0
7FFFE0
7801E0
7000E0
7000F0
F000F0
F000F0
E00070
E00078
ENDCHAR
STARTCHAR 0203
ENCODING 515
SWIDTH 495 0
DWIDTH 22 0
BBX 16 30 3 0
BITMAP
0380
07F0
0FF8
1C38
1C18
1818
0000
0000
0000
1FF0
3FFC
3FFE
203E
000F
000F
000F
0007
00C7
1FFF
3FFF
7F7F
F807
F007
E007
E007
F007
F807
7FFF
7FFF
1FFF
ENDCHAR
STARTCHAR 0204
ENCODING 516
SWIDTH 495 0
DWIDTH 22 0
BBX 16 37 4 0
BITMAP
2000
70C0
71E0
78F0
3C70
1E38
0E1C
0400
0000
FFFE
FFFE
FFFE
FFFE
F000
F000
F000
F000
F000
F000
F000
F000
FFFC
FFFC
FFFC
F000
F000
F000
F000
F000
F000
F000
F000
F000
F000
FFFF
FFFF
FFFF
ENDCHAR
STARTCHAR 0205
ENCODING 517
SWIDTH 495 0
DWIDTH 22 0
BBX 18 31 2 0
BITMAP
080000
1C3000
3C7800
1E3C00
0F1C00
070E00
038700
010600
000000
000000
03F800
0FFE00
1FFF00
3E0F80
7C0780
7803C0
F003C0
F003C0
F003C0
FFFFC0
FFFFC0
FFFFC0
F00000
F00000
F00000
780000
7C0000
3E0000
1FFF80
0FFF80
07FF00
ENDCHAR
STARTCHAR 0206
ENCODING 518
SWIDTH 495 0
DWIDTH 22 0
BBX 16 36 4 0
BITMAP
03C0
07F0
0FF8
1C38
1C1C
181C
0000
0000
FFFE
FFFE
FFFE
FFFE
F000
F000
F000
F000
F000
F000
F000
F000
FFFC
FFFC
FFFC
F000
F000
F000
F000
F000
F000
F000
F000
F000
F000
FFFF
FFFF
FFFF
ENDCHAR
STARTCHAR 0207
ENCODING 519
SWIDTH 495 0
DWIDTH 22 0
BBX 18 30 2 0
BITMAP
007000
03F800
07FC00
070E00
060E00
060600
000000
000000
000000
03F800
0FFE00
1FFF00
3E0F80
7C0780
7803C0
F003C0
F003C0
F003C0
FFFFC0
FFFFC0
FFFFC0
F00000
F00000
F00000
780000
7C0000
3E0000
1FFF80
0FFF80
07FF00
ENDCHAR
STARTCHAR 0208
ENCODING 520
SWIDTH 495 0
DWIDTH 22 0
BBX 14 37 4 0
BITMAP
0080
6180
F3C0
71E0
38F0
3C70
1C38
0810
0000
FFFC
FFFC
FFFC
FFFC
0780
0780
0780
0780
0780
0780
0780
0780
0780
0780
0780
0780
0780
0780
0780
0780
0780
0780
0780
0780
0780
FFFC
FFFC
FFFC
ENDCHAR
STARTCHAR 0209
ENCODING 521
SWIDTH 495 0
DWIDTH 22 0
BBX 18 31 2 0
BITMAP
200000
60C000
F1E000
78E000
38F000
1C7800
0E3800
041000
000000
000000
FFC000
FFC000
FFC000
03C000
03C000
03C000
03C000
03C000
03C000
03C000
03C000
03C000
03C000
03C000
03C000
03C000
01C000
01E040
01FFC0
00FFC0
007FC0
ENDCHAR
STARTCHAR 020A
ENCODING 522
SWIDTH 495 0
DWIDTH 22 0
BBX 14 36 4 0
BITMAP
0780
1FE0
1FF0
3870
3030
3030
0000
0000
FFFC
FFFC
FFFC
FFFC
0780
0780
0780
0780
0780
0780
0780
0780
0780
0780
0780
0780
0780
0780
0780
0780
0780
0780
0780
0780
0780
FFFC
FFFC
FFFC
ENDCHAR
STARTCHAR 020B
ENCODING 523
SWIDTH 495 0
DWIDTH 22 0
BBX 18 30 2 0
BITMAP
038000
0FE000
1FF000
1C7000
383800
383800
000000
000000
000000
FFC000
FFC000
FFC000
03C000
03C000
03C000
03C000
03C000
03C000
03C000
03C000
03C000
03C000
03C000
03C000
03C000
01C000
01E040
01FFC0
00FFC0
007FC0
ENDCHAR
STARTCHAR 020C
ENCODING 524
SWIDTH 495 0
DWIDTH 22 0
BBX 20 38 1 -1
BITMAP
001000
0C3000
1E7800
0E3C00
071E00
078E00
038700
010200
000000
01FC00
07FE00
0FFF80
1F0F80
3E03C0
3C03C0
7801E0
7801E0
7800E0
7000F0
F000F0
F000F0
F000F0
F000F0
F000F0
F000F0
F000F0
F000F0
7000F0
7000E0
7801E0
7801E0
3801E0
3C03C0
1E07C0
1FFF80
0FFF00
03FE00
007000
ENDCHAR
STARTCHAR 020D
ENCODING 525
SWIDTH 495 0
DWIDTH 22 0
BBX 18 31 2 0
BITMAP
002000
186000
3CF000
1C7800
0E3C00
0F1C00
070E00
020400
000000
000000
03F000
0FFC00
1FFE00
3E1F00
7C0780
780780
F003C0
F003C0
F003C0
F001C0
F001C0
F001C0
F001C0
F003C0
F003C0
7803C0
780780
3C0F80
3FFF00
1FFE00
07F800
ENDCHAR
STARTCHAR 020E
ENCODING 526
SWIDTH 495 0
DWIDTH 22 0
BBX 20 37 1 -1
BITMAP
00F000
03FC00
03FE00
070E00
060600
060600
000000
000000
01FC00
07FE00
0FFF80
1F0F80
3E03C0
3C03C0
7801E0
7801E0
7800E0
7000F0
F000F0
F000F0
F000F0
F000F0
F000F0
F000F0
F000F0
F000F0
7000F0
7000E0
7801E0
7801E0
3801E0
3C03C0
1E07C0
1FFF80
0FFF00
03FE00
007000
ENDCHAR
STARTCHAR 020F
ENCODING 527
SWIDTH 495 0
DWIDTH 22 0
BBX 18 30 2 0
BITMAP
01C000
03F800
07FC00
0E1C00
0E0C00
0C0C00
000000
000000
000000
03F000
0FFC00
1FFE00
3E1F00
7C0780
780780
F003C0
F003C0
F003C0
F001C0
F001C0
F001C0
F001C0
F003C0
F003C0
7803C0
780780
3C0F80
3FFF00
1FFE00
07F800
ENDCHAR
STARTCHAR 0210
ENCODING 528
SWIDTH 495 0
DWIDTH 22 0
BBX 18 37 2 0
BITMAP
100000
386000
78F000
3C7800
1E3800
0E1C00
071E00
020800
000000
1FC000
FFF800
FFFE00
F07F00
F00F00
F00780
F00780
F00780
F00780
F00780
F00780
F00780
F00F00
F01F00
FFFE00
FFFC00
FFF000
F07800
F03C00
F03C00
F01E00
F00E00
F00F00
F00700
F00780
F00380
F003C0
F003C0
ENDCHAR
STARTCHAR 0211
ENCODING 529
SWIDTH 495 0
DWIDTH 22 0
BBX 15 31 4 0
BITMAP
0080
6180
F3C0
71E0
38F0
3C70
1C38
0810
0000
0000
0FFE
7FFE
7FFE
7C02
7000
7000
7000
7000
7000
7000
7000
7000
7000
7000
7000
7000
7000
7000
7000
7000
7000
ENDCHAR
STARTCHAR 0212
ENCODING 530
SWIDTH 495 0
DWIDTH 22 0
BBX 18 36 2 0
BITMAP
03C000
0FF000
1FF000
1C3800
181800
181800
000000
000000
1FC000
FFF800
FFFE00
F07F00
F00F00
F00780
F00780
F00780
F00780
F00780
F00780
F00780
F00F00
F01F00
FFFE00
FFFC00
FFF000
F07800
F03C00
F03C00
F01E00
F00E00
F00F00
F00700
F00780
F00380
F003C0
F003C0
ENDCHAR
STARTCHAR 0213
ENCODING 531
SWIDTH 495 0
DWIDTH 22 0
BBX 14 30 5 0
BITMAP
0380
0FE0
1FF0
3870
3838
3038
0000
0000
0000
1FFC
FFFC
FFFC
F804
E000
E000
E000
E000
E000
E000
E000
E000
E000
E000
E000
E000
E000
E000
E000
E000
E000
ENDCHAR
STARTCHAR 0214
ENCODING 532
SWIDTH 495 0
DWIDTH 22 0
BBX 18 38 2 -1
BITMAP
082000
187000
3C7800
1E3800
0E1C00
071E00
038E00
010400
000000
F003C0
F003C0
F003C0
F003C0
F003C0
F003C0
F003C0
F003C0
F003C0
F003C0
F003C0
F003C0
F003C0
F003C0
F003C0
F003C0
F003C0
F003C0
F003C0
F003C0
F003C0
F003C0
7003C0
780780
7C0F80
3FFF00
1FFE00
0FFC00
00C000
ENDCHAR
STARTCHAR 0215
ENCODING 533
SWIDTH 495 0
DWIDTH 22 0
BBX 16 31 3 0
BITMAP
0040
30C0
79E0
38F0
1C78
1E38
0E1C
0408
0000
0000
F00F
F00F
F00F
F00F
F00F
F00F
F00F
F00F
F00F
F00F
F00F
F00F
F00F
F00F
F00F
F00F
780F
7C0F
3FFF
3FFF
0FFF
ENDCHAR
STARTCHAR 0216
ENCODING 534
SWIDTH 495 0
DWIDTH 22 0
BBX 18 37 2 -1
BITMAP
01E000
07F800
07FC00
0E1C00
0C0C00
0C0C00
000000
000000
F003C0
F003C0
F003C0
F003C0
F003C0
F003C0
F003C0
F003C0
F003C0
F003C0
F003C0
F003C0
F003C0
F003C0
F003C0
F003C0
F003C0
F003C0
F003C0
F003C0
F003C0
F003C0
7003C0
780780
7C0F80
3FFF00
1FFE00
0FFC00
00C000
ENDCHAR
STARTCHAR 0217
ENCODING 535
SWIDTH 495 0
DWIDTH 22 0
BBX 16 30 3 0
BITMAP
0380
07F0
0FF8
1C38
1C18
1818
0000
0000
0000
F00F
F00F
F00F
F00F
F00F
F00F
F00F
F00F
F00F
F00F
F00F
F00F
F00F
F00F
F00F
F00F
780F
7C0F
3FFF
3FFF
0FFF
ENDCHAR
STARTCHAR 0218
ENCODING 536
SWIDTH 495 0
DWIDTH 22 0
BBX 18 35 2 -8
BITMAP
03FC00
0FFF80
1FFF00
3E0700
3C0100
780000
780000
780000
780000
7C0000
3C0000
3F0000
1FC000
0FF000
03FC00
007F00
001F00
000F80
000780
0003C0
0003C0
0003C0
0003C0
000780
600F80
7FFF80
FFFF00
3FFC00
038000
000000
01E000
01E000
01C000
0FC000
0F8000
ENDCHAR
STARTCHAR 0219
ENCODING 537
SWIDTH 495 0
DWIDTH 22 0
BBX 16 28 3 -8
BITMAP
0FFC
3FFE
7FFE
7C06
F000
F000
F000
7800
7E00
3FC0
0FF0
03FC
007E
001F
000F
0007
000F
E00F
FFFF
FFFE
7FF8
0000
0000
03C0
03C0
0380
1F80
1F00
ENDCHAR
STARTCHAR 021A
ENCODING 538
SWIDTH 495 0
DWIDTH 22 0
BBX 18 36 2 -8
BITMAP
FFFFC0
FFFFC0
FFFFC0
FFFFC0
01E000
01E000
01E000
01E000
01E000
01E000
01E000
01E000
01E000
01E000
01E000
01E000
01E000
01E000
01E000
01E000
01E000
01E000
01E000
01E000
01E000
01E000
01E000
01E000
000000
000000
01E000
01E000
01E000
0FC000
0FC000
020000
ENDCHAR
STARTCHAR 021B
ENCODING 539
SWIDTH 495 0
DWIDTH 22 0
BBX 17 34 3 -8
BITMAP
070000
0F0000
0F0000
0F0000
0F0000
0F0000
FFFF80
FFFF80
FFFF80
0F0000
0F0000
0F0000
0F0000
0F0000
0F0000
0F0000
0F0000
0F0000
0F0000
0F0000
0F0000
0F0000
0F0000
078080
07FF80
03FF80
01FF80
000000
000000
007800
007800
007800
03F000
03E000
ENDCHAR
STARTCHAR 021C
ENCODING 540
SWIDTH 495 0
DWIDTH 22 0
BBX 20 35 1 -7
BITMAP
1FF800
FFFE00
7FFF00
781F80
4007C0
0003C0
0001C0
0001E0
0001E0
0001E0
0001C0
0003C0
0007C0
000F80
01FF00
0FFC00
0FFE00
0FFF80
001FC0
0007C0
0001E0
0001E0
0000F0
0000F0
0000F0
0000F0
0000F0
0001E0
0001E0
0003C0
000FC0
007F80
7FFE00
7FFC00
7FC000
ENDCHAR
STARTCHAR 021D
ENCODING 541
SWIDTH 495 0
DWIDTH 22 0
BBX 16 28 3 -7
BITMAP
7FE0
FFF8
FFFC
C07E
001E
001E
000E
000E
001E
001E
007C
1FF8
1FE0
1FF8
1FFC
003E
001F
000F
000F
000F
000F
000F
001E
007E
03FC
FFF0
FFE0
FE00
ENDCHAR
STARTCHAR 021E
ENCODING 542
SWIDTH 495 0
DWIDTH 22 0
BBX 18 37 2 0
BITMAP
040000
0E1C00
0F3C00
07F800
03F000
01E000
00C000
000000
000000
F001C0
F001C0
F001C0
F001C0
F001C0
F001C0
F001C0
F001C0
F001C0
F001C0
F001C0
F001C0
FFFFC0
FFFFC0
FFFFC0
F001C0
F001C0
F001C0
F001C0
F001C0
F001C0
F001C0
F001C0
F001C0
F001C0
F001C0
F001C0
F001C0
ENDCHAR
STARTCHAR 021F
ENCODING 543
SWIDTH 495 0
DWIDTH 22 0
BBX 17 37 2 0
BITMAP
408000
E38000
7F8000
3F0000
1C0000
000000
000000
000000
780000
780000
780000
780000
780000
780000
780000
780000
7FF800
7FFC00
7FFE00
7C3F00
780F00
780780
780780
780780
780780
780380
780380
780380
780380
780380
780380
780380
780380
780380
780380
780380
780380
ENDCHAR
STARTCHAR 0220
ENCODING 544
SWIDTH 495 0
DWIDTH 22 0
BBX 18 35 2 -7
BITMAP
1FF800
FFFE00
FFFF00
F81F80
F00780
F007C0
F003C0
F003C0
F003C0
F003C0
F001C0
F001C0
F001C0
F001C0
F001C0
F001C0
F001C0
F001C0
F001C0
F001C0
F001C0
F001C0
F001C0
F001C0
F001C0
F001C0
F001C0
F001C0
0001C0
0001C0
0001C0
0001C0
0001C0
0001C0
0001C0
ENDCHAR
STARTCHAR 0221
ENCODING 545
SWIDTH 495 0
DWIDTH 22 0
BBX 21 38 1 -7
BITMAP
000800
003800
003800
003800
003800
003800
003800
003800
003800
003800
0FB800
1FF800
3FF800
78F800
783800
703800
F03800
F03800
F03800
F03800
F03800
F03800
F03800
F03800
F03800
703800
783800
7C3BE0
3FFFF0
1FFFF0
0FFC38
003838
007838
00F838
01FC38
01DFF8
039FF0
0307E0
ENDCHAR
STARTCHAR 0222
ENCODING 546
SWIDTH 495 0
DWIDTH 22 0
BBX 19 28 2 0
BITMAP
3C0F00
3C0700
380780
380780
780780
780780
780780
780780
380780
3C0F00
3C0F00
1FFE00
0FFC00
1FFE00
3FFF00
7C0780
F003C0
F003C0
E001E0
E001E0
E001E0
E001E0
F003C0
F803C0
7C0F80
7FFF80
1FFF00
07FC00
ENDCHAR
STARTCHAR 0223
ENCODING 547
SWIDTH 495 0
DWIDTH 22 0
BBX 20 31 1 0
BITMAP
3C03C0
3C03C0
3C01C0
3C01C0
3C01C0
3801C0
3801C0
3C01C0
3C03C0
3C03C0
1E03C0
1F0F80
0FFF00
07FF00
1FFF80
3F07C0
3C03C0
7801E0
7800E0
7000F0
F000F0
F000F0
F000F0
7000F0
7800E0
7801E0
7C03E0
3E07C0
1FFF80
0FFF00
03FE00
ENDCHAR
STARTCHAR 0224
ENCODING 548
SWIDTH 495 0
DWIDTH 22 0
BBX 18 35 2 -7
BITMAP
7FFFC0
7FFFC0
7FFFC0
7FFFC0
000780
000F00
000F00
001E00
003C00
003C00
007800
00F000
00F000
01E000
01E000
03C000
078000
078000
0F0000
0F0000
1E0000
1C0000
3C0000
780000
780000
FFFFC0
FFFFC0
FFFFC0
0001C0
0001C0
0003C0
0003C0
003FC0
003F80
003F00
ENDCHAR
STARTCHAR 0225
ENCODING 549
SWIDTH 495 0
DWIDTH 22 0
BBX 16 28 3 -7
BITMAP
7FFF
7FFF
7FFF
001E
003E
007C
00F8
00F0
01E0
03C0
07C0
0780
0F00
1F00
1E00
3C00
7800
7800
FFFF
FFFF
FFFF
0007
0007
000F
000F
009E
00FE
00FC
ENDCHAR
STARTCHAR 0226
ENCODING 550
SWIDTH 495 0
DWIDTH 22 0
BBX 21 36 1 0
BITMAP
00F000
00F800
00F800
00F800
00F000
000000
000000
000000
00F000
00F800
01F800
01FC00
03FC00
039C00
039E00
079E00
070E00
070F00
0F0F00
0E0700
0E0780
1E0780
1E0380
1C0380
1C03C0
3C03C0
3FFFC0
3FFFE0
7FFFE0
7801E0
7000E0
7000F0
F000F0
F000F0
E00070
E00078
ENDCHAR
STARTCHAR 0227
ENCODING 551
SWIDTH 495 0
DWIDTH 22 0
BBX 16 29 3 0
BITMAP
03C0
07E0
07E0
03E0
01C0
0000
0000
0000
1FF0
3FFC
3FFE
203E
000F
000F
000F
0007
00C7
1FFF
3FFF
7F7F
F807
F007
E007
E007
F007
F807
7FFF
7FFF
1FFF
ENDCHAR
STARTCHAR 0228
ENCODING 552
SWIDTH 495 0
DWIDTH 22 0
BBX 16 36 4 -8
BITMAP
FFFE
FFFE
FFFE
FFFE
F000
F000
F000
F000
F000
F000
F000
F000
FFFC
FFFC
FFFC
F000
F000
F000
F000
F000
F000
F000
F000
F000
F000
FFFF
FFFF
FFFF
01C0
0180
03E0
00E0
00E0
0FE0
0FC0
0200
ENDCHAR
STARTCHAR 0229
ENCODING 553
SWIDTH 495 0
DWIDTH 22 0
BBX 18 28 2 -8
BITMAP
03F800
0FFE00
1FFF00
3E0F80
7C0780
7803C0
F003C0
F003C0
F003C0
FFFFC0
FFFFC0
FFFFC0
F00000
F00000
F00000
780000
7C0000
3E0000
3FFF80
0FFF80
07FF00
006000
00E000
00F000
007800
007800
03F800
03F000
ENDCHAR
STARTCHAR 022A
ENCODING 554
SWIDTH 495 0
DWIDTH 22 0
BBX 20 38 1 -1
BITMAP
07FE00
07FE00
07FE00
000000
070700
0F0F00
0F0F00
0F0F00
000000
000000
03FC00
07FF00
1FFF80
1F07C0
3C03C0
3C01E0
7801E0
7801E0
7800F0
7000F0
F000F0
F000F0
F000F0
F000F0
F000F0
F000F0
F000F0
7000F0
7000F0
7800E0
7801E0
3801E0
3C03C0
3E07C0
1FFF80
0FFF00
07FE00
006000
ENDCHAR
STARTCHAR 022B
ENCODING 555
SWIDTH 495 0
DWIDTH 22 0
BBX 18 32 2 0
BITMAP
0FFC00
0FFC00
0FFC00
000000
0C0C00
1E1E00
1E1E00
1E1E00
0C0C00
000000
000000
03F000
0FFC00
1FFE00
3E1F00
7C0780
780780
F003C0
F003C0
F003C0
F001C0
F001C0
F001C0
F001C0
F003C0
F003C0
7803C0
780780
3C0F80
3FFF00
1FFE00
07F800
ENDCHAR
STARTCHAR 022C
ENCODING 556
SWIDTH 495 0
DWIDTH 22 0
BBX 20 38 1 -1
BITMAP
07FE00
07FE00
07FE00
000000
03C300
07F700
0FFE00
0C3C00
000000
000000
03FC00
07FF00
1FFF80
1F07C0
3C03C0
3C01E0
7801E0
7801E0
7800F0
7000F0
F000F0
F000F0
F000F0
F000F0
F000F0
F000F0
F000F0
7000F0
7000F0
7800E0
7801E0
3801E0
3C03C0
3E07C0
1FFF80
0FFF00
07FE00
006000
ENDCHAR
STARTCHAR 022D
ENCODING 557
SWIDTH 495 0
DWIDTH 22 0
BBX 18 32 2 0
BITMAP
0FFC00
0FFC00
0FFC00
000000
000400
07C600
0FFE00
1CFC00
080000
000000
000000
03F000
0FFC00
1FFE00
3E1F00
7C0780
780780
F003C0
F003C0
F003C0
F001C0
F001C0
F001C0
F001C0
F003C0
F003C0
7803C0
780780
3C0F80
3FFF00
1FFE00
07F800
ENDCHAR
STARTCHAR 022E
ENCODING 558
SWIDTH 495 0
DWIDTH 22 0
BBX 20 37 1 -1
BITMAP
006000
00F000
01F800
01F800
00F000
006000
000000
000000
01FC00
07FE00
0FFF80
1F0F80
3E03C0
3C03C0
7801E0
7801E0
7800E0
7000F0
F000F0
F000F0
F000F0
F000F0
F000F0
F000F0
F000F0
F000F0
7000F0
7000E0
7801E0
7801E0
3801E0
3C03C0
1E07C0
1FFF80
0FFF00
03FE00
007000
ENDCHAR
STARTCHAR 022F
ENCODING 559
SWIDTH 495 0
DWIDTH 22 0
BBX 18 29 2 0
BITMAP
01E000
03F000
03F000
01F000
00E000
000000
000000
000000
03F000
0FFC00
1FFE00
3E1F00
7C0780
780780
F003C0
F003C0
F003C0
F001C0
F001C0
F001C0
F001C0
F003C0
F003C0
7803C0
780780
3C0F80
3FFF00
1FFE00
07F800
ENDCHAR
STARTCHAR 0230
ENCODING 560
SWIDTH 495 0
DWIDTH 22 0
BBX 20 38 1 -1
BITMAP
07FE00
07FE00
07FE00
000000
00F000
00F000
00F000
00F000
000000
000000
03FC00
07FF00
1FFF80
1F07C0
3C03C0
3C01E0
7801E0
7801E0
7800F0
7000F0
F000F0
F000F0
F000F0
F000F0
F000F0
F000F0
F000F0
7000F0
7000F0
7800E0
7801E0
3801E0
3C03C0
3E07C0
1FFF80
0FFF00
07FE00
006000
ENDCHAR
STARTCHAR 0231
ENCODING 561
SWIDTH 495 0
DWIDTH 22 0
BBX 18 32 2 0
BITMAP
0FFC00
0FFC00
0FFC00
000000
00C000
01E000
01E000
01E000
00C000
000000
000000
03F000
0FFC00
1FFE00
3E1F00
7C0780
780780
F003C0
F003C0
F003C0
F001C0
F001C0
F001C0
F001C0
F003C0
F003C0
7803C0
780780
3C0F80
3FFF00
1FFE00
07F800
ENDCHAR
STARTCHAR 0232
ENCODING 562
SWIDTH 495 0
DWIDTH 22 0
BBX 21 34 1 0
BITMAP
0FFF00
0FFF00
000000
000000
000000
000000
F00078
F000F0
F000F0
7800E0
7801E0
3C01E0
3C03C0
1E03C0
1E0780
0F0780
0F0F00
078E00
079E00
03DC00
03FC00
01F800
00F800
00F000
00F000
00F000
00F000
00F000
00F000
00F000
00F000
00F000
00F000
00F000
ENDCHAR
STARTCHAR 0233
ENCODING 563
SWIDTH 495 0
DWIDTH 22 0
BBX 18 35 2 -7
BITMAP
1FFE00
1FFE00
1FFE00
000000
000000
000000
000000
F001C0
F003C0
7803C0
7803C0
780380
3C0780
3C0780
3C0780
1E0700
1E0F00
1E0F00
0F0E00
0F1E00
071E00
079C00
03BC00
03FC00
03F800
01F800
01F000
00F000
00F000
00E000
01E000
03C000
FF8000
FF0000
FE0000
ENDCHAR
STARTCHAR 0234
ENCODING 564
SWIDTH 495 0
DWIDTH 22 0
BBX 17 38 2 -7
BITMAP
FF0000
FF0000
FF0000
FF0000
070000
070000
070000
070000
070000
070000
070000
070000
070000
070000
070000
070000
070000
070000
070000
070000
070000
070000
070000
070000
070000
070000
070000
073C00
07FF00
07FF80
078380
070380
0F0380
1F8380
1F8380
3BEF80
71FF00
20FE00
ENDCHAR
STARTCHAR 0235
ENCODING 565
SWIDTH 495 0
DWIDTH 22 0
BBX 20 28 2 -7
BITMAP
7F8000
FFE000
FFE000
F1F000
E0F000
E0F000
E07000
E07000
E07000
E07000
E07000
E07000
E07000
E07000
E07000
E07000
E07000
E077C0
E07FE0
E07FE0
E07870
007070
00F070
01F070
03F870
03BFF0
073FE0
060FC0
ENDCHAR
STARTCHAR 0236
ENCODING 566
SWIDTH 495 0
DWIDTH 22 0
BBX 16 34 3 -7
BITMAP
0700
0F00
0F00
0F00
0F00
0F00
FFFF
FFFF
FFFF
0F00
0F00
0F00
0F00
0F00
0F00
0F00
0F00
0F00
0F00
0F00
0F00
0F00
0F00
0F78
0FFE
0FFF
0F87
0F07
0F07
1F07
3F07
77DF
F3FE
61FC
ENDCHAR
STARTCHAR 0237
ENCODING 567
SWIDTH 495 0
DWIDTH 22 0
BBX 14 29 3 -8
BITMAP
3FFC
3FFC
3FFC
003C
003C
003C
003C
003C
003C
003C
003C
003C
003C
003C
003C
003C
003C
003C
003C
003C
003C
003C
003C
003C
6078
7FF8
FFF0
7FE0
0200
ENDCHAR
STARTCHAR 0238
ENCODING 568
SWIDTH 495 0
DWIDTH 22 0
BBX 20 31 1 0
BITMAP
003000
00F000
00F000
00F000
00F000
00F000
00F000
00F000
00F000
00F000
0FF780
3FFFC0
3FFFC0
78F9E0
70F0E0
70F0F0
F0F0F0
F0F0F0
F0F070
F0F070
F0F070
F0F070
F0F070
F0F0F0
F0F0F0
70F0F0
70F0E0
78F1E0
3FFFE0
3FFFC0
1FFF80
ENDCHAR
STARTCHAR 0239
ENCODING 569
SWIDTH 495 0
DWIDTH 22 0
BBX 20 28 1 -7
BITMAP
0F9F00
1FFF80
3FFFC0
78F1E0
78F0E0
70F0E0
F0F0F0
F0F0F0
F0F070
F0F070
F0F070
F0F070
F0F070
F0F0F0
F0F0F0
70F0F0
70F0E0
78F0E0
3FFFE0
3FFFC0
1FFF80
00F000
00F000
00F000
00F000
00F000
00F000
00F000
ENDCHAR
STARTCHAR 023A
ENCODING 570
SWIDTH 495 0
DWIDTH 22 0
BBX 21 35 1 -4
BITMAP
000100
0001C0
000380
00F380
00FB80
01FB80
01FF00
03FF00
039F00
039E00
079E00
070E00
070F00
0F1F00
0E1F00
0E1F00
1E3F80
1E3B80
1C3B80
1C33C0
3C73C0
3FFFC0
3FFFC0
7FFFE0
78E1E0
70E0E0
70E0F0
F1C0F0
F1C0F0
E1C070
E3C078
038000
038000
038000
030000
ENDCHAR
STARTCHAR 023B
ENCODING 571
SWIDTH 495 0
DWIDTH 22 0
BBX 19 35 2 -4
BITMAP
000300
000380
000700
00FF00
03FFE0
0FFFE0
1F8FC0
1E0E40
3C0E00
3C0E00
781C00
781C00
701C00
F03800
F03800
F03800
F03800
F07000
F07000
F07000
F0E000
F0E000
70E000
78E000
79C000
3DC000
3FC000
1FC0C0
0FFFC0
07FFC0
03FF80
073000
070000
070000
030000
ENDCHAR
STARTCHAR 023C
ENCODING 572
SWIDTH 495 0
DWIDTH 22 0
BBX 18 27 2 -3
BITMAP
000700
000700
000600
01FF80
07FFC0
1FFF80
3F9D80
7C1C00
781800
F83800
F03800
F03000
F07000
F07000
F07000
F0E000
F0E000
F0E000
78C000
7DC000
3FC040
1FFFC0
0FFFC0
03FFC0
030000
070000
070000
ENDCHAR
STARTCHAR 023D
ENCODING 573
SWIDTH 495 0
DWIDTH 22 0
BBX 18 28 2 0
BITMAP
1C0000
1C0000
1C0000
1C0000
1C0000
1C0000
1C0000
1C0000
1C0000
1C0000
1C0000
1C0000
FFF800
FFF800
FFF800
1C0000
1C0000
1C0000
1C0000
1C0000
1C0000
1C0000
1C0000
1C0000
1C0000
1FFFC0
1FFFC0
1FFFC0
ENDCHAR
STARTCHAR 023E
ENCODING 574
SWIDTH 495 0
DWIDTH 22 0
BBX 21 31 1 -2
BITMAP
000010
000038
FFFFF8
FFFFF0
FFFFE0
FFFFE0
01E1C0
01E380
01E780
01E700
01EF00
01EE00
01FC00
01FC00
01F800
01F000
01F000
01E000
01E000
03E000
03E000
07E000
07E000
0FE000
1FE000
1DE000
39E000
79E000
71E000
E1E000
E00000
ENDCHAR
STARTCHAR 023F
ENCODING 575
SWIDTH 495 0
DWIDTH 22 0
BBX 16 28 3 -7
BITMAP
0FFC
3FFE
7FFE
7806
F000
F000
F000
7800
7E00
3FC0
1FF0
03FC
007E
001F
000F
0007
000F
701F
FFFE
FFFC
7FF0
3C00
1E00
0F00
07C0
03FF
00FF
007F
ENDCHAR
STARTCHAR 0240
ENCODING 576
SWIDTH 495 0
DWIDTH 22 0
BBX 17 28 3 -7
BITMAP
7FFF00
7FFF00
7FFF00
001E00
003C00
007C00
00F800
00F000
01E000
03C000
07C000
078000
0F0000
1E0000
1E0000
3C0000
780000
780000
FC0000
FE0000
FF8000
0FC000
03E000
01F000
00F800
007F80
003F80
000F80
ENDCHAR
STARTCHAR 0241
ENCODING 577
SWIDTH 495 0
DWIDTH 22 0
BBX 17 28 3 0
BITMAP
1FF000
7FFC00
FFFE00
703F00
400F80
000780
000780
000780
000780
000F80
001F00
003F00
00FC00
01F800
03F000
07C000
078000
078000
0F0000
0F0000
0F0000
0F0000
0F0000
0F0000
0F0000
0F0000
0F0000
0F0000
ENDCHAR
STARTCHAR 0242
ENCODING 578
SWIDTH 495 0
DWIDTH 22 0
BBX 15 21 4 0
BITMAP
1FE0
FFF8
FFFC
703E
001E
001E
001E
001E
003C
00F8
01F0
07E0
0780
0F00
0F00
0E00
0E00
0E00
0E00
0E00
0E00
ENDCHAR
STARTCHAR 0243
ENCODING 579
SWIDTH 495 0
DWIDTH 22 0
BBX 19 28 1 0
BITMAP
0FE000
3FFE00
3FFF00
3C3F80
3C0780
3C03C0
3C03C0
3C03C0
3C03C0
3C0380
3C0780
3C0F00
3FFE00
3FFC00
3FFF00
3C0F80
3C03C0
3C01E0
3C01E0
FFE1E0
FFE1E0
FFE1E0
3C01E0
3C03C0
3C07C0
3FFF80
3FFF00
3FFC00
ENDCHAR
STARTCHAR 0244
ENCODING 580
SWIDTH 495 0
DWIDTH 22 0
BBX 20 29 1 -1
BITMAP
3C03C0
3C03C0
3C03C0
3C03C0
3C03C0
3C03C0
3C03C0
3C03C0
3C03C0
3C03C0
3C03C0
3C03C0
FFFFF0
FFFFF0
3C03C0
3C03C0
3C03C0
3C03C0
3C03C0
3C03C0
3C03C0
3C03C0
3C03C0
1E0380
1E0780
0FFF80
0FFF00
07FE00
006000
ENDCHAR
STARTCHAR 0245
ENCODING 581
SWIDTH 495 0
DWIDTH 22 0
BBX 21 28 1 0
BITMAP
00F000
00F800
01F800
01FC00
03FC00
039C00
039E00
079E00
070E00
070F00
0F0F00
0E0700
0E0700
1E0780
1E0380
1C0380
1C03C0
3C03C0
3801C0
3801E0
7801E0
7801E0
7000E0
7000F0
F000F0
F000F0
E00070
E00078
ENDCHAR
STARTCHAR 0246
ENCODING 582
SWIDTH 495 0
DWIDTH 22 0
BBX 17 34 4 -5
BITMAP
000380
000700
FFFF00
FFFF00
FFFE00
FFFE00
F00E00
F01C00
F01C00
F01C00
F03800
F03800
F03800
F07000
FFFE00
FFFE00
FFFE00
F0E000
F0E000
F1C000
F1C000
F1C000
F38000
F38000
F38000
F70000
F70000
FFFF00
FFFF00
FFFF00
0E0000
1C0000
1C0000
1C0000
ENDCHAR
STARTCHAR 0247
ENCODING 583
SWIDTH 495 0
DWIDTH 22 0
BBX 18 27 2 -3
BITMAP
000C00
001C00
001C00
03F800
0FFE00
1FFF00
3E3F80
787780
7873C0
F073C0
F0E3C0
F0E1C0
FFFFC0
FFFFC0
FFFFC0
E1C000
F18000
F38000
738000
7B0000
3F0000
3FFF80
0FFF80
0FFF00
0E0000
0C0000
1C0000
ENDCHAR
STARTCHAR 0248
ENCODING 584
SWIDTH 495 0
DWIDTH 22 0
BBX 18 29 3 -1
BITMAP
1FFE00
1FFE00
1FFE00
1FFE00
000E00
000E00
000E00
000E00
000E00
000E00
000E00
000E00
03FFC0
03FFC0
03FFC0
000E00
000E00
000E00
000E00
000E00
000E00
001E00
001E00
001E00
E03C00
FFFC00
FFF800
7FE000
060000
ENDCHAR
STARTCHAR 0249
ENCODING 585
SWIDTH 495 0
DWIDTH 22 0
BBX 17 38 3 -8
BITMAP
007000
00F800
00F800
00FC00
00F800
007800
000000
000000
000000
3FFC00
3FFC00
3FFC00
003C00
003C00
003C00
003C00
003C00
003C00
3FFF80
3FFF80
003C00
003C00
003C00
003C00
003C00
003C00
003C00
003C00
003C00
003C00
003C00
003C00
003C00
607800
7FF800
FFF000
7FE000
020000
ENDCHAR
STARTCHAR 024A
ENCODING 586
SWIDTH 495 0
DWIDTH 22 0
BBX 22 35 1 -7
BITMAP
03F800
0FFC00
1FFE00
1E1F00
3C0F80
3C0780
780380
7803C0
7803C0
7003C0
F003C0
F003C0
F001C0
F001C0
F001C0
F001C0
F001C0
F001C0
7003C0
7003C0
7803C0
7803C0
7807C0
3C07C0
3E0FC0
1FFFC0
0FFDC0
07F9C0
0061C0
0001C0
0001E0
0001E0
0001F8
0000FC
0000FC
ENDCHAR
STARTCHAR 024B
ENCODING 587
SWIDTH 495 0
DWIDTH 22 0
BBX 20 28 2 -7
BITMAP
03FC00
0FFF00
1FFF00
3F0F00
7C0700
780700
F00700
F00700
F00700
F00700
F00700
F00700
F00700
F00700
F00700
F00700
780700
7C1F00
3FFF00
1FFF00
0FF700
000700
000700
000700
000780
0007F0
0003F0
0001F0
ENDCHAR
STARTCHAR 024C
ENCODING 588
SWIDTH 495 0
DWIDTH 22 0
BBX 20 28 1 0
BITMAP
07F000
1FFE00
1FFF00
1C3F80
1C07C0
1C03C0
1C03C0
1C01C0
1C01E0
1C01E0
1C01C0
1C03C0
1C03C0
1C0F80
FFFF00
FFFE00
FFFC00
1C3C00
1C1E00
1C0F00
1C0F00
1C0780
1C0780
1C03C0
1C03C0
1C01E0
1C01E0
1C00F0
ENDCHAR
STARTCHAR 024D
ENCODING 589
SWIDTH 495 0
DWIDTH 22 0
BBX 18 21 1 0
BITMAP
01FFC0
1FFFC0
1FFFC0
1F80C0
1E0000
1E0000
1E0000
1E0000
1E0000
1E0000
FFFC00
FFFC00
FFFC00
1E0000
1E0000
1E0000
1E0000
1E0000
1E0000
1E0000
1E0000
ENDCHAR
STARTCHAR 024E
ENCODING 590
SWIDTH 495 0
DWIDTH 22 0
BBX 20 28 1 0
BITMAP
F000F0
F000F0
7801E0
7801E0
3C01E0
3C03C0
FFFFF0
FFFFF0
FFFFF0
0F0780
0F0F00
078F00
079E00
03DC00
03FC00
01F800
00F800
00F000
00F000
00F000
00F000
00F000
00F000
00F000
00F000
00F000
00F000
00F000
ENDCHAR
STARTCHAR 024F
ENCODING 591
SWIDTH 495 0
DWIDTH 22 0
BBX 19 28 2 -7
BITMAP
F001E0
7801C0
7803C0
7803C0
3803C0
3C0380
3C0780
1C0780
1E0780
FFFFE0
FFFFE0
0F0F00
070E00
079E00
079E00
039C00
03FC00
01FC00
01F800
00F800
00F000
007000
00E000
01E000
03C000
FFC000
FF8000
FE0000
ENDCHAR
STARTCHAR 0292
ENCODING 658
SWIDTH 495 0
DWIDTH 22 0
BBX 17 28 2 -7
BITMAP
7FFF00
7FFF00
7FFF00
000F00
001E00
003C00
007C00
007800
00F000
01E000
03C000
03C000
07E000
07FC00
07FE00
001F00
000F80
000780
000780
000780
000780
000780
000780
000F00
403F00
FFFE00
FFFC00
7FF000
ENDCHAR
STARTCHAR 02BC
ENCODING 700
SWIDTH 495 0
DWIDTH 22 0
BBX 5 8 9 22
BITMAP
78
78
78
70
70
70
E0
E0
ENDCHAR
STARTCHAR 02C6
ENCODING 710
SWIDTH 495 0
DWIDTH 22 0
BBX 10 7 6 24
BITMAP
0C00
1E00
3F00
7F80
F3C0
E1C0
4000
ENDCHAR
STARTCHAR 02C7
ENCODING 711
SWIDTH 495 0
DWIDTH 22 0
BBX 10 6 6 24
BITMAP
E0C0
F1C0
7F80
3F00
1E00
0C00
ENDCHAR
STARTCHAR 02C9
ENCODING 713
SWIDTH 495 0
DWIDTH 22 0
BBX 12 3 5 25
BITMAP
FFF0
FFF0
FFF0
ENDCHAR
STARTCHAR 02D8
ENCODING 728
SWIDTH 495 0
DWIDTH 22 0
BBX 10 6 6 24
BITMAP
C0C0
C0C0
E1C0
7FC0
7F80
0E00
ENDCHAR
STARTCHAR 02D9
ENCODING 729
SWIDTH 495 0
DWIDTH 22 0
BBX 6 5 8 24
BITMAP
78
FC
FC
7C
38
ENDCHAR
STARTCHAR 02DA
ENCODING 730
SWIDTH 495 0
DWIDTH 22 0
BBX 8 8 7 23
BITMAP
3C
7E
E3
C3
C3
C3
7F
3E
ENDCHAR
STARTCHAR 02DB
ENCODING 731
SWIDTH 495 0
DWIDTH 22 0
BBX 7 7 8 -7
BITMAP
3C
70
F0
E0
E0
FC
7E
ENDCHAR
STARTCHAR 02DC
ENCODING 732
SWIDTH 495 0
DWIDTH 22 0
BBX 12 4 5 24
BITMAP
3830
7F70
FFE0
E3C0
ENDCHAR
STARTCHAR 02DD
ENCODING 733
SWIDTH 495 0
DWIDTH 22 0
BBX 14 8 4 23
BITMAP
0010
0C18
1E3C
1C78
38F0
78E0
F1C0
2080
ENDCHAR
STARTCHAR 0311
ENCODING 785
SWIDTH 495 0
DWIDTH 22 0
BBX 10 6 6 24
BITMAP
1C00
3F80
7FC0
E1C0
E0C0
C0C0
ENDCHAR
STARTCHAR 0384
ENCODING 900
SWIDTH 495 0
DWIDTH 22 0
BBX 7 8 7 23
BITMAP
0C
0E
1E
3C
3C
78
F0
60
ENDCHAR
STARTCHAR 0385
ENCODING 901
SWIDTH 495 0
DWIDTH 22 0
BBX 16 8 3 23
BITMAP
0080
01C0
61CE
F3DE
F39F
F70E
0700
0200
ENDCHAR
STARTCHAR 0386
ENCODING 902
SWIDTH 495 0
DWIDTH 22 0
BBX 21 28 1 0
BITMAP
70F000
78F800
71F800
71FC00
F3FC00
E39C00
E39E00
E79E00
070E00
070F00
0F0F00
0E0700
0E0780
1E0780
1E0380
1C0380
1C03C0
3C03C0
3FFFC0
3FFFE0
7FFFE0
7801E0
7000E0
7000F0
F000F0
F000F0
E00070
E00078
ENDCHAR
STARTCHAR 0388
ENCODING 904
SWIDTH 495 0
DWIDTH 22 0
BBX 23 28 -3 0
BITMAP
31FFFC
79FFFC
79FFFC
71FFFC
71E000
71E000
E1E000
E1E000
01E000
01E000
01E000
01E000
01FFF8
01FFF8
01FFF8
01E000
01E000
01E000
01E000
01E000
01E000
01E000
01E000
01E000
01E000
01FFFE
01FFFE
01FFFE
ENDCHAR
STARTCHAR 0389
ENCODING 905
SWIDTH 495 0
DWIDTH 22 0
BBX 25 28 -5 0
BITMAP
71E00380
79E00380
71E00380
71E00380
F1E00380
E1E00380
E1E00380
E1E00380
01E00380
01E00380
01E00380
01E00380
01FFFF80
01FFFF80
01FFFF80
01E00380
01E00380
01E00380
01E00380
01E00380
01E00380
01E00380
01E00380
01E00380
01E00380
01E00380
01E00380
01E00380
ENDCHAR
STARTCHAR 038A
ENCODING 906
SWIDTH 495 0
DWIDTH 22 0
BBX 21 28 -3 0
BITMAP
71FFF8
79FFF8
79FFF8
71FFF8
F00F00
E00F00
E00F00
E00F00
000F00
000F00
000F00
000F00
000F00
000F00
000F00
000F00
000F00
000F00
000F00
000F00
000F00
000F00
000F00
000F00
000F00
01FFF8
01FFF8
01FFF8
ENDCHAR
STARTCHAR 038C
ENCODING 908
SWIDTH 495 0
DWIDTH 22 0
BBX 24 29 -3 -1
BITMAP
701FC0
787FE0
78FFF8
71F0F8
73E03C
F3C03C
E7801E
E7801E
07800E
07000F
0F000F
0F000F
0F000F
0F000F
0F000F
0F000F
0F000F
0F000F
07000F
07000E
07801E
07801E
03801E
03C03C
01E07C
01FFF8
00FFF0
003FE0
000700
ENDCHAR
STARTCHAR 038E
ENCODING 910
SWIDTH 495 0
DWIDTH 22 0
BBX 28 28 -6 0
BITMAP
39E000F0
39E001E0
79E001E0
78F001C0
70F003C0
707803C0
70780780
E03C0780
003C0F00
001E0F00
001E1E00
000F1C00
000F3C00
0007B800
0007F800
0003F000
0001F000
0001E000
0001E000
0001E000
0001E000
0001E000
0001E000
0001E000
0001E000
0001E000
0001E000
0001E000
ENDCHAR
STARTCHAR 038F
ENCODING 911
SWIDTH 495 0
DWIDTH 22 0
BBX 24 28 -3 0
BITMAP
701FC0
787FE0
78FFF0
71F0F8
F3E03C
E3C03E
E7801E
E7801E
07800E
07000F
07000F
0F000F
0F000F
0F000F
07000F
07000F
07800E
07800E
07801E
03801E
03C01C
01C03C
01E038
00E078
00F0F0
0FF8FF
0FF8FF
0FF8FF
ENDCHAR
STARTCHAR 0390
ENCODING 912
SWIDTH 495 0
DWIDTH 22 0
BBX 18 31 2 0
BITMAP
008000
01C000
E1CE00
F3DE00
F39E00
F71E00
070000
020000
000000
000000
FFC000
FFC000
FFC000
03C000
03C000
03C000
03C000
03C000
03C000
03C000
03C000
03C000
03C000
03C000
03C000
03C000
01C000
01E040
01FFC0
00FFC0
007FC0
ENDCHAR
STARTCHAR 0391
ENCODING 913
SWIDTH 495 0
DWIDTH 22 0
BBX 21 28 1 0
BITMAP
00F000
00F800
01F800
01FC00
03FC00
039C00
039E00
079E00
070E00
070F00
0F0F00
0E0700
0E0780
1E0780
1E0380
1C0380
1C03C0
3C03C0
3FFFC0
3FFFE0
7FFFE0
7801E0
7000E0
7000F0
F000F0
F000F0
E00070
E00078
ENDCHAR
STARTCHAR 0392
ENCODING 914
SWIDTH 495 0
DWIDTH 22 0
BBX 18 28 2 0
BITMAP
1FC000
FFF800
FFFE00
F07F00
F00F00
F00F80
F00780
F00780
F00780
F00700
F00F00
F01E00
FFFC00
FFF800
FFFE00
F01F00
F00780
F003C0
F003C0
F003C0
F003C0
F003C0
F003C0
F00780
F01F80
FFFF00
FFFE00
FFF800
ENDCHAR
STARTCHAR 0393
ENCODING 915
SWIDTH 495 0
DWIDTH 22 0
BBX 18 28 2 0
BITMAP
0FFFC0
0FFFC0
0FFFC0
0FFFC0
0F0000
0F0000
0F0000
0F0000
0F0000
0F0000
0F0000
0F0000
0F0000
0F0000
0F0000
0F0000
0F0000
0F0000
0F0000
0F0000
0F0000
0F0000
0F0000
0F0000
0F0000
FFFC00
FFFC00
FFFC00
ENDCHAR
STARTCHAR 0394
ENCODING 916
SWIDTH 495 0
DWIDTH 22 0
BBX 21 28 1 0
BITMAP
00F000
00F800
01F800
01F800
01DC00
03DC00
039C00
079E00
078E00
070E00
0F0F00
0F0700
0E0700
0E0780
1E0380
1C0380
1C03C0
3C03C0
3801C0
3801E0
7801E0
7801E0
7000E0
7000F0
F000F0
FFFFF0
FFFFF0
FFFFF8
ENDCHAR
STARTCHAR 0395
ENCODING 917
SWIDTH 495 0
DWIDTH 22 0
BBX 16 28 4 0
BITMAP
FFFE
FFFE
FFFE
FFFE
F000
F000
F000
F000
F000
F000
F000
F000
FFFC
FFFC
FFFC
F000
F000
F000
F000
F000
F000
F000
F000
F000
F000
FFFF
FFFF
FFFF
ENDCHAR
STARTCHAR 0396
ENCODING 918
SWIDTH 495 0
DWIDTH 22 0
BBX 18 28 2 0
BITMAP
7FFFC0
7FFFC0
7FFFC0
7FFFC0
000780
000F00
000F00
001E00
003C00
003C00
007800
00F800
00F000
01E000
01E000
03C000
078000
078000
0F0000
0F0000
1E0000
3C0000
3C0000
780000
780000
FFFFC0
FFFFC0
FFFFC0
ENDCHAR
STARTCHAR 0397
ENCODING 919
SWIDTH 495 0
DWIDTH 22 0
BBX 18 28 2 0
BITMAP
F001C0
F001C0
F001C0
F001C0
F001C0
F001C0
F001C0
F001C0
F001C0
F001C0
F001C0
F001C0
FFFFC0
FFFFC0
FFFFC0
F001C0
F001C0
F001C0
F001C0
F001C0
F001C0
F001C0
F001C0
F001C0
F001C0
F001C0
F001C0
F001C0
ENDCHAR
STARTCHAR 0398
ENCODING 920
SWIDTH 495 0
DWIDTH 22 0
BBX 20 29 1 -1
BITMAP
01FC00
07FE00
0FFF80
1F0F80
3E03C0
3C03C0
7801E0
7801E0
7800E0
7000F0
F000F0
F000F0
F000F0
F1FCF0
F1FCF0
F1FCF0
F000F0
F000F0
7000F0
7000E0
7801E0
7801E0
3801E0
3C03C0
1E07C0
1FFF80
0FFF00
03FE00
007000
ENDCHAR
STARTCHAR 0399
ENCODING 921
SWIDTH 495 0
DWIDTH 22 0
BBX 14 28 4 0
BITMAP
FFFC
FFFC
FFFC
FFFC
0780
0780
0780
0780
0780
0780
0780
0780
0780
0780
0780
0780
0780
0780
0780
0780
0780
0780
0780
0780
0780
FFFC
FFFC
FFFC
ENDCHAR
STARTCHAR 039A
ENCODING 922
SWIDTH 495 0
DWIDTH 22 0
BBX 17 28 3 0
BITMAP
E00F80
E00F00
E01E00
E01E00
E03C00
E07800
E07800
E0F000
E1E000
E3C000
E7C000
E78000
EF0000
FE0000
FF0000
EF8000
E3C000
E1E000
E1F000
E0F800
E07800
E03C00
E03E00
E01E00
E00F00
E00F00
E00780
E00780
ENDCHAR
STARTCHAR 039B
ENCODING 923
SWIDTH 495 0
DWIDTH 22 0
BBX 21 28 1 0
BITMAP
00F000
00F800
01F800
01FC00
03FC00
039C00
039E00
079E00
070E00
070F00
0F0F00
0E0700
0E0700
1E0780
1E0380
1C0380
1C03C0
3C03C0
3801C0
3801E0
7801E0
7801E0
7000E0
7000F0
F000F0
F000F0
E00070
E00078
ENDCHAR
STARTCHAR 039C
ENCODING 924
SWIDTH 495 0
DWIDTH 22 0
BBX 19 28 2 0
BITMAP
780780
780780
7C0780
7C0F80
7C0FC0
6E0DC0
6E1DC0
EE1DC0
E61DC0
E739C0
E739C0
E739C0
E3B1C0
E3F1C0
E3F1C0
E1F1C0
E1E1C0
E1E1C0
E001C0
E001C0
E001C0
E001C0
E001E0
E001E0
E001E0
E001E0
E001E0
E001E0
ENDCHAR
STARTCHAR 039D
ENCODING 925
SWIDTH 495 0
DWIDTH 22 0
BBX 18 28 2 0
BITMAP
F003C0
F803C0
F803C0
FC03C0
FC03C0
FE03C0
FE03C0
FF03C0
F703C0
F783C0
F383C0
F3C3C0
F1C3C0
F1E3C0
F0E3C0
F0F3C0
F073C0
F07BC0
F03BC0
F03FC0
F01FC0
F01FC0
F00FC0
F00FC0
F007C0
F007C0
F007C0
F003C0
ENDCHAR
STARTCHAR 039E
ENCODING 926
SWIDTH 495 0
DWIDTH 22 0
BBX 19 28 2 0
BITMAP
FFFFC0
FFFFC0
FFFFC0
FFFFC0
000000
000000
000000
000000
000000
000000
000000
000000
3FFF00
3FFF00
3FFF00
000000
000000
000000
000000
000000
000000
000000
000000
000000
000000
FFFFE0
FFFFE0
FFFFE0
ENDCHAR
STARTCHAR 039F
ENCODING 927
SWIDTH 495 0
DWIDTH 22 0
BBX 20 29 1 -1
BITMAP
01FC00
07FE00
0FFF80
1F0F80
3E03C0
3C03C0
7801E0
7801E0
7800E0
7000F0
F000F0
F000F0
F000F0
F000F0
F000F0
F000F0
F000F0
F000F0
7000F0
7000E0
7801E0
7801E0
3801E0
3C03C0
1E07C0
1FFF80
0FFF00
03FE00
007000
ENDCHAR
STARTCHAR 03A0
ENCODING 928
SWIDTH 495 0
DWIDTH 22 0
BBX 18 28 2 0
BITMAP
FFFFC0
FFFFC0
FFFFC0
FFFFC0
F001C0
F001C0
F001C0
F001C0
F001C0
F001C0
F001C0
F001C0
F001C0
F001C0
F001C0
F001C0
F001C0
F001C0
F001C0
F001C0
F001C0
F001C0
F001C0
F001C0
F001C0
F001C0
F001C0
F001C0
ENDCHAR
STARTCHAR 03A1
ENCODING 929
SWIDTH 495 0
DWIDTH 22 0
BBX 17 28 3 0
BITMAP
1FC000
FFF800
FFFE00
F87F00
F00F00
F00780
F00780
F00780
F00780
F00780
F00780
F00780
F00780
F00F00
F07F00
FFFE00
FFF800
FFC000
F00000
F00000
F00000
F00000
F00000
F00000
F00000
F00000
F00000
F00000
ENDCHAR
STARTCHAR 03A3
ENCODING 931
SWIDTH 495 0
DWIDTH 22 0
BBX 18 28 2 0
BITMAP
FFFFC0
FFFFC0
FFFFC0
7FFFC0
780000
3C0000
1E0000
0F0000
0F0000
078000
03C000
01E000
01F000
00F000
00F000
01E000
03C000
078000
078000
0F0000
1E0000
3C0000
380000
780000
F00000
FFFFC0
FFFFC0
FFFFC0
ENDCHAR
STARTCHAR 03A4
ENCODING 932
SWIDTH 495 0
DWIDTH 22 0
BBX 19 28 2 0
BITMAP
FFFFE0
FFFFE0
FFFFE0
FFFFE0
01E000
01E000
01E000
01E000
01E000
01E000
01E000
01E000
01E000
01E000
01E000
01E000
01E000
01E000
01E000
01E000
01E000
01E000
01E000
01E000
01E000
01E000
01E000
01E000
ENDCHAR
STARTCHAR 03A5
ENCODING 933
SWIDTH 495 0
DWIDTH 22 0
BBX 21 28 1 0
BITMAP
F00078
F000F0
F000F0
7800E0
7801E0
3C01E0
3C03C0
1E03C0
1E0780
0F0780
0F0F00
078E00
079E00
03DC00
03FC00
01F800
00F800
00F000
00F000
00F000
00F000
00F000
00F000
00F000
00F000
00F000
00F000
00F000
ENDCHAR
STARTCHAR 03A6
ENCODING 934
SWIDTH 495 0
DWIDTH 22 0
BBX 19 29 2 0
BITMAP
00E000
00E000
00E000
03F800
0FFE00
1FFF00
3EEF80
78E780
78E3C0
F0E3C0
F0E1C0
F0E1E0
F0E1E0
F0E1E0
F0E1E0
F0E1E0
F0E1E0
F0E1E0
F0E1C0
70E3C0
78E3C0
7CE780
3FFF00
1FFF00
07FC00
01E000
00E000
00E000
00E000
ENDCHAR
STARTCHAR 03A7
ENCODING 935
SWIDTH 495 0
DWIDTH 22 0
BBX 20 28 1 0
BITMAP
F000F0
7801E0
3C01C0
3C03C0
1E0780
1E0780
0F0F00
0F0F00
079E00
079C00
03FC00
03F800
01F800
00F000
01F800
03FC00
03FC00
079E00
071E00
0F0F00
0E0700
1E0780
1C0780
3C03C0
3C03C0
7801E0
7801E0
F000F0
ENDCHAR
STARTCHAR 03A8
ENCODING 936
SWIDTH 495 0
DWIDTH 22 0
BBX 18 28 2 0
BITMAP
F001C0
F001C0
F001C0
F001C0
F001C0
F001C0
F001C0
F1E1C0
F1E1C0
F1E1C0
F1E1C0
F1E1C0
F1E1C0
F1E3C0
F1E3C0
71E3C0
79E380
7DEF80
3FFF00
1FFE00
07FC00
01E000
01E000
01E000
01E000
01E000
01E000
01E000
ENDCHAR
STARTCHAR 03A9
ENCODING 937
SWIDTH 495 0
DWIDTH 22 0
BBX 20 28 1 0
BITMAP
01FC00
07FE00
0FFF00
1F0F80
3E03C0
3C03E0
7801E0
7801E0
7800E0
7000F0
7000F0
F000F0
F000F0
F000F0
7000F0
7000F0
7800E0
7800E0
7801E0
3801E0
3C01C0
1C03C0
1E0380
0E0780
0F0F00
FF8FF0
FF8FF0
FF8FF0
ENDCHAR
STARTCHAR 03AA
ENCODING 938
SWIDTH 495 0
DWIDTH 22 0
BBX 14 35 4 0
BITMAP
3878
7C78
7C78
3878
0000
0000
0000
FFFC
FFFC
FFFC
FFFC
0780
0780
0780
0780
0780
0780
0780
0780
0780
0780
0780
0780
0780
0780
0780
0780
0780
0780
0780
0780
0780
FFFC
FFFC
FFFC
ENDCHAR
STARTCHAR 03AB
ENCODING 939
SWIDTH 495 0
DWIDTH 22 0
BBX 21 35 1 0
BITMAP
070F00
0F8F00
0F8F00
070F00
000000
000000
000000
F00078
F000F0
F000F0
7800E0
7801E0
3C01E0
3C03C0
1E03C0
1E0780
0F0780
0F0F00
078E00
079E00
03DC00
03FC00
01F800
00F800
00F000
00F000
00F000
00F000
00F000
00F000
00F000
00F000
00F000
00F000
00F000
ENDCHAR
STARTCHAR 03AC
ENCODING 940
SWIDTH 495 0
DWIDTH 22 0
BBX 19 31 2 0
BITMAP
001000
003800
007800
007800
00F000
01E000
01C000
008000
000000
000000
03FE00
0FFF80
1FFF80
3F0780
3C0780
780780
780780
F00780
F00780
F00780
F00780
F00780
F00780
F00780
700780
780780
780780
3E0FC0
3FFFE0
1FFFE0
07F8E0
ENDCHAR
STARTCHAR 03AD
ENCODING 941
SWIDTH 495 0
DWIDTH 22 0
BBX 18 31 3 0
BITMAP
003000
003800
007800
00F000
00E000
01E000
03C000
018000
000000
000000
07FE00
1FFF00
3FFF00
7C0300
780000
780000
780000
780000
3E0000
1FF800
1FF800
3FF800
780000
F00000
F00000
F00000
F00000
F80180
7FFF80
3FFFC0
1FFF00
ENDCHAR
STARTCHAR 03AE
ENCODING 942
SWIDTH 495 0
DWIDTH 22 0
BBX 16 38 3 -7
BITMAP
0060
0070
00F0
01E0
01C0
03C0
0780
0300
0000
0000
3FF0
FFF8
FFFC
F03E
F01F
F00F
F00F
F00F
F007
F007
F007
F007
F007
F007
F007
F007
F007
F007
F007
F007
F007
0007
0007
0007
0007
0007
0007
0007
ENDCHAR
STARTCHAR 03AF
ENCODING 943
SWIDTH 495 0
DWIDTH 22 0
BBX 18 31 2 0
BITMAP
002000
007000
00F800
00F000
01E000
03C000
038000
010000
000000
000000
FFC000
FFC000
FFC000
03C000
03C000
03C000
03C000
03C000
03C000
03C000
03C000
03C000
03C000
03C000
03C000
03C000
01C000
01E040
01FFC0
00FFC0
007FC0
ENDCHAR
STARTCHAR 03B0
ENCODING 944
SWIDTH 495 0
DWIDTH 22 0
BBX 16 31 3 0
BITMAP
0080
00E0
71EE
F1CF
FB8F
738F
0700
0200
0000
0000
F00F
F00F
F00F
F00F
F00F
F00F
F00F
F00F
F00F
F00F
F00F
F00F
F00F
F00F
F00F
700F
781E
7C1E
3FFC
3FFC
0FF0
ENDCHAR
STARTCHAR 03B1
ENCODING 945
SWIDTH 495 0
DWIDTH 22 0
BBX 19 21 2 0
BITMAP
03FE00
0FFF80
1FFF80
3F0780
3C0780
780780
780780
F00780
F00780
F00780
F00780
F00780
F00780
F00780
700780
780780
780780
3E0FC0
3FFFE0
1FFFE0
07F8E0
ENDCHAR
STARTCHAR 03B2
ENCODING 946
SWIDTH 495 0
DWIDTH 22 0
BBX 17 38 3 -7
BITMAP
03C000
0FF800
3FFC00
3E7C00
781E00
781E00
F00E00
F00E00
F00E00
F00E00
F01E00
F03C00
F0FC00
F1F000
F1F800
F1FE00
F01F00
F00F00
F00780
F00780
F00780
F00380
F00380
F00380
F00780
F00780
F00F80
F81F00
FFFE00
FFFC00
F7F800
F00000
F00000
F00000
F00000
F00000
F00000
F00000
ENDCHAR
STARTCHAR 03B3
ENCODING 947
SWIDTH 495 0
DWIDTH 22 0
BBX 20 28 1 -7
BITMAP
F000F0
7800F0
7800E0
3C01E0
3C01E0
3C01C0
1E03C0
1E03C0
0E0380
0F0780
0F0780
070700
078F00
078E00
039E00
03DC00
03FC00
03F800
01F800
01F000
01E000
01E000
00E000
00E000
00E000
00F000
00F000
00F000
ENDCHAR
STARTCHAR 03B4
ENCODING 948
SWIDTH 495 0
DWIDTH 22 0
BBX 18 31 2 -1
BITMAP
00F800
07FF00
0FFF00
1F0700
1E0000
1E0000
1E0000
1F0000
0F8000
07E000
03F000
07F800
0FFE00
1F3F00
3C0F00
780780
7807C0
F003C0
F003C0
F001C0
E001C0
E001C0
F001C0
F003C0
F003C0
F003C0
780780
7C0F80
3FFF00
1FFE00
0FFC00
ENDCHAR
STARTCHAR 03B5
ENCODING 949
SWIDTH 495 0
DWIDTH 22 0
BBX 18 21 3 0
BITMAP
07FE00
1FFF00
3FFF00
7C0300
780000
780000
780000
780000
3E0000
1FF800
1FF800
3FF800
780000
F00000
F00000
F00000
F00000
F80180
7FFF80
3FFFC0
1FFF00
ENDCHAR
STARTCHAR 03B6
ENCODING 950
SWIDTH 495 0
DWIDTH 22 0
BBX 17 38 3 -7
BITMAP
7FFF00
7FFF00
7FFF00
7FFF00
003E00
007C00
00F800
01F000
03E000
07C000
078000
0F0000
1E0000
3C0000
3C0000
780000
780000
F00000
F00000
F00000
F00000
F00000
F00000
F00000
F00000
F80000
7C0000
7FC000
3FFC00
0FFE00
01FF00
000F80
000780
000780
000780
000700
000F00
000F00
ENDCHAR
STARTCHAR 03B7
ENCODING 951
SWIDTH 495 0
DWIDTH 22 0
BBX 16 28 3 -7
BITMAP
3FF0
FFF8
FFFC
F03E
F01F
F00F
F00F
F00F
F007
F007
F007
F007
F007
F007
F007
F007
F007
F007
F007
F007
F007
0007
0007
0007
0007
0007
0007
0007
ENDCHAR
STARTCHAR 03B8
ENCODING 952
SWIDTH 495 0
DWIDTH 22 0
BBX 18 32 2 -1
BITMAP
01E000
07F800
0FFC00
1F3E00
3C0F00
3C0F00
780780
780780
780380
7003C0
7003C0
F003C0
F003C0
F003C0
FFFFC0
FFFFC0
FFFFC0
F003C0
F003C0
F003C0
F003C0
7003C0
700380
780380
780780
780780
3C0F00
3E0F00
1FFE00
0FFC00
07F800
00C000
ENDCHAR
STARTCHAR 03B9
ENCODING 953
SWIDTH 495 0
DWIDTH 22 0
BBX 18 21 2 0
BITMAP
FFC000
FFC000
FFC000
03C000
03C000
03C000
03C000
03C000
03C000
03C000
03C000
03C000
03C000
03C000
03C000
03C000
01C000
01E040
01FFC0
00FFC0
007FC0
ENDCHAR
STARTCHAR 03BA
ENCODING 954
SWIDTH 495 0
DWIDTH 22 0
BBX 18 21 3 0
BITMAP
F00780
F00F00
F01F00
F03C00
F07800
F0F000
F1E000
F3C000
FF8000
FF0000
FF8000
FFC000
F3E000
F1F000
F0F800
F07C00
F03E00
F01F00
F00F80
F00780
F003C0
ENDCHAR
STARTCHAR 03BB
ENCODING 955
SWIDTH 495 0
DWIDTH 22 0
BBX 20 31 1 0
BITMAP
3C0000
3F0000
3F8000
07C000
03C000
01E000
01E000
00F000
00F000
007000
007800
00F800
00FC00
01FC00
01DC00
03DE00
039E00
078E00
070F00
0F0F00
0E0780
0E0780
1E0780
1C03C0
3C03C0
3C03C0
3803C0
7801E0
7801E0
7001E0
F000F0
ENDCHAR
STARTCHAR 03BC
ENCODING 956
SWIDTH 495 0
DWIDTH 22 0
BBX 16 28 3 -7
BITMAP
F00F
F00F
F00F
F00F
F00F
F00F
F00F
F00F
F00F
F00F
F00F
F00F
F00F
F00F
F00F
F00F
F80F
FC0F
FFFF
FFFF
FFFF
F000
F000
F000
F000
F000
F000
F000
ENDCHAR
STARTCHAR 03BD
ENCODING 957
SWIDTH 495 0
DWIDTH 22 0
BBX 20 21 1 0
BITMAP
F000F0
7800F0
7801E0
7801E0
3C01E0
3C03C0
3C03C0
1E03C0
1E0780
1E0780
0F0700
0F0F00
0F0F00
079E00
079E00
03DC00
03FC00
01F800
01F800
00F000
00F000
ENDCHAR
STARTCHAR 03BE
ENCODING 958
SWIDTH 495 0
DWIDTH 22 0
BBX 17 38 3 -7
BITMAP
00FC00
07FF00
0FFF00
1FCF00
3E0000
3C0000
780000
780000
780000
780000
3C0000
3E0000
1F0000
0FFE00
03FE00
0FFE00
3F8000
3E0000
780000
F00000
F00000
F00000
F00000
F00000
F00000
F80000
7C0000
3FC000
1FFC00
0FFF00
00FF00
000F80
000780
000780
000780
000780
000F00
000F00
ENDCHAR
STARTCHAR 03BF
ENCODING 959
SWIDTH 495 0
DWIDTH 22 0
BBX 18 21 2 0
BITMAP
03F000
0FFC00
1FFE00
3E1F00
7C0780
780780
F003C0
F003C0
F003C0
F001C0
F001C0
F001C0
F001C0
F003C0
F003C0
7803C0
780780
3C0F80
3FFF00
1FFE00
07F800
ENDCHAR
STARTCHAR 03C0
ENCODING 960
SWIDTH 495 0
DWIDTH 22 0
BBX 16 21 3 0
BITMAP
FFFF
FFFF
FFFF
F00F
F00F
F00F
F00F
F00F
F00F
F00F
F00F
F00F
F00F
F00F
F00F
F00F
F00F
F00F
F00F
F00F
F00F
ENDCHAR
STARTCHAR 03C1
ENCODING 961
SWIDTH 495 0
DWIDTH 22 0
BBX 17 28 3 -7
BITMAP
07F000
1FFC00
3FFE00
7E1F00
780F00
780780
F00780
F00780
F00780
F00380
F00380
F00380
F00380
F00780
F00780
F00780
F00F00
F81F00
FFFE00
FFFC00
F7F800
F00000
F00000
F00000
F00000
F00000
F00000
F00000
ENDCHAR
STARTCHAR 03C2
ENCODING 962
SWIDTH 495 0
DWIDTH 22 0
BBX 17 28 3 -7
BITMAP
01FF00
07FF80
1FFF00
3F0100
7C0000
780000
780000
F00000
F00000
F00000
E00000
F00000
F00000
F00000
F00000
780000
7C0000
3F8000
1FFC00
07FE00
00FF00
000F80
000780
000780
000780
000700
000F00
000F00
ENDCHAR
STARTCHAR 03C3
ENCODING 963
SWIDTH 495 0
DWIDTH 22 0
BBX 19 21 2 -1
BITMAP
00FFE0
07FFE0
1FFFE0
3FDE00
3C0F00
780F00
780780
F00780
F00380
F003C0
F003C0
F003C0
F003C0
F003C0
F003C0
F00780
780F80
7C1F00
3FFF00
1FFE00
07F800
ENDCHAR
STARTCHAR 03C4
ENCODING 964
SWIDTH 495 0
DWIDTH 22 0
BBX 17 21 3 0
BITMAP
FFFF00
FFFF00
FFFF00
0F0000
0F0000
0F0000
0F0000
0F0000
0F0000
0F0000
0F0000
0F0000
0F0000
0F0000
0F0000
0F0000
0F0000
078080
07FF80
03FF80
01FF80
ENDCHAR
STARTCHAR 03C5
ENCODING 965
SWIDTH 495 0
DWIDTH 22 0
BBX 16 21 3 0
BITMAP
F00F
F00F
F00F
F00F
F00F
F00F
F00F
F00F
F00F
F00F
F00F
F00F
F00F
F00F
F00F
700F
781E
7C1E
3FFC
3FFC
0FF0
ENDCHAR
STARTCHAR 03C6
ENCODING 966
SWIDTH 495 0
DWIDTH 22 0
BBX 20 28 1 -7
BITMAP
01F800
07FF00
1FFF80
3FFFC0
3CF3E0
78F1E0
78F0E0
F0F0F0
F0F0F0
F0F0F0
F0F0F0
F0F0F0
F0F0F0
F0F0F0
70F0F0
78F1E0
78F1E0
3EF7C0
1FFF80
0FFF00
07FE00
00F000
00F000
00F000
00F000
00F000
00F000
00F000
ENDCHAR
STARTCHAR 03C7
ENCODING 967
SWIDTH 495 0
DWIDTH 22 0
BBX 19 21 2 0
BITMAP
F003C0
F803C0
780780
3C0F00
1E1E00
1F1E00
0F3C00
07F800
03F800
01F000
01F000
03F800
07F800
0F3C00
0F1E00
1E1F00
3C0F00
780780
7807C0
F003C0
E001E0
ENDCHAR
STARTCHAR 03C8
ENCODING 968
SWIDTH 495 0
DWIDTH 22 0
BBX 19 28 2 -7
BITMAP
E001E0
E001E0
E001E0
E001E0
E001E0
E1E1E0
E1E1E0
E1E1E0
E1E1E0
E1E1E0
E1E1E0
E1E1E0
E1E1C0
E1E1C0
F1E3C0
F1E3C0
71E3C0
79E780
3FFF80
1FFF00
0FFC00
01E000
01E000
01E000
01E000
01E000
01E000
01E000
ENDCHAR
STARTCHAR 03C9
ENCODING 969
SWIDTH 495 0
DWIDTH 22 0
BBX 19 21 2 0
BITMAP
180600
3E0F00
3C0F00
780780
780780
7803C0
F003C0
F003C0
F001C0
F0E1C0
E0E1E0
E0E1E0
E0E1E0
E1E1E0
E1E1E0
E1E1E0
F1E1C0
F3F3C0
7FFFC0
7F3F80
3F1F00
ENDCHAR
STARTCHAR 03CA
ENCODING 970
SWIDTH 495 0
DWIDTH 22 0
BBX 18 29 2 0
BITMAP
383800
3C7C00
7C7C00
3C7800
101000
000000
000000
000000
FFC000
FFC000
FFC000
03C000
03C000
03C000
03C000
03C000
03C000
03C000
03C000
03C000
03C000
03C000
03C000
03C000
01C000
01E040
01FFC0
00FFC0
007FC0
ENDCHAR
STARTCHAR 03CB
ENCODING 971
SWIDTH 495 0
DWIDTH 22 0
BBX 16 29 3 0
BITMAP
1C38
3E3C
3E3C
3C3C
0800
0000
0000
0000
F00F
F00F
F00F
F00F
F00F
F00F
F00F
F00F
F00F
F00F
F00F
F00F
F00F
F00F
F00F
700F
781E
7C1E
3FFC
3FFC
0FF0
ENDCHAR
STARTCHAR 03CC
ENCODING 972
SWIDTH 495 0
DWIDTH 22 0
BBX 18 31 2 0
BITMAP
003000
003800
007800
00F000
00E000
01E000
03C000
018000
000000
000000
03F000
0FFC00
1FFE00
3E1F00
7C0780
780780
F003C0
F003C0
F003C0
F001C0
F001C0
F001C0
F001C0
F003C0
F003C0
7803C0
780780
3C0F80
3FFF00
1FFE00
07F800
ENDCHAR
STARTCHAR 03CD
ENCODING 973
SWIDTH 495 0
DWIDTH 22 0
BBX 16 31 3 0
BITMAP
0060
0070
00F0
01E0
01C0
03C0
0780
0300
0000
0000
F00F
F00F
F00F
F00F
F00F
F00F
F00F
F00F
F00F
F00F
F00F
F00F
F00F
F00F
F00F
700F
781E
7C1E
3FFC
3FFC
0FF0
ENDCHAR
STARTCHAR 03CE
ENCODING 974
SWIDTH 495 0
DWIDTH 22 0
BBX 19 31 2 0
BITMAP
001000
003800
007800
007000
00F000
01E000
01C000
008000
000000
000000
180600
3E0F00
3C0F00
780780
780780
7803C0
F003C0
F003C0
F001C0
F0E1C0
E0E1E0
E0E1E0
E0E1E0
E1E1E0
E1E1E0
E1E1E0
F1E1C0
F3F3C0
7FFFC0
7F3F80
3F1F00
ENDCHAR
STARTCHAR 0400
ENCODING 1024
SWIDTH 495 0
DWIDTH 22 0
BBX 16 37 4 0
BITMAP
0200
0600
0F00
0780
03C0
01E0
00E0
0040
0000
FFFE
FFFE
FFFE
FFFE
F000
F000
F000
F000
F000
F000
F000
F000
FFFC
FFFC
FFFC
F000
F000
F000
F000
F000
F000
F000
F000
F000
F000
FFFF
FFFF
FFFF
ENDCHAR
STARTCHAR 0401
ENCODING 1025
SWIDTH 495 0
DWIDTH 22 0
BBX 16 35 4 0
BITMAP
3C38
3C7C
3C7C
3C38
0000
0000
0000
FFFE
FFFE
FFFE
FFFE
F000
F000
F000
F000
F000
F000
F000
F000
FFFC
FFFC
FFFC
F000
F000
F000
F000
F000
F000
F000
F000
F000
F000
FFFF
FFFF
FFFF
ENDCHAR
STARTCHAR 0402
ENCODING 1026
SWIDTH 495 0
DWIDTH 22 0
BBX 19 28 1 0
BITMAP
FFFF00
FFFF00
FFFF00
FFFF00
0E0000
0E0000
0E0000
0E0000
0E0000
0E0000
0E0000
0FFE00
0FFF80
0FFFC0
0E03C0
0E01E0
0E01E0
0E01E0
0E00E0
0E00E0
0E00E0
0E01E0
0E01E0
0E01E0
0E03C0
0E3FC0
0E3F80
0E3E00
ENDCHAR
STARTCHAR 0403
ENCODING 1027
SWIDTH 495 0
DWIDTH 22 0
BBX 18 37 2 0
BITMAP
000400
000600
000F00
001E00
003C00
007800
007000
002000
000000
0FFFC0
0FFFC0
0FFFC0
0FFFC0
0F0000
0F0000
0F0000
0F0000
0F0000
0F0000
0F0000
0F0000
0F0000
0F0000
0F0000
0F0000
0F0000
0F0000
0F0000
0F0000
0F0000
0F0000
0F0000
0F0000
0F0000
FFFC00
FFFC00
FFFC00
ENDCHAR
STARTCHAR 0404
ENCODING 1028
SWIDTH 495 0
DWIDTH 22 0
BBX 18 29 2 -1
BITMAP
01FF00
07FFC0
0FFFC0
1F81C0
3E0000
3C0000
780000
700000
F00000
F00000
F00000
E00000
FFF800
FFF800
FFF800
FFF800
E00000
F00000
F00000
F00000
700000
780000
7C0000
3C0000
1F00C0
1FFFC0
07FFC0
03FF80
003000
ENDCHAR
STARTCHAR 0405
ENCODING 1029
SWIDTH 495 0
DWIDTH 22 0
BBX 18 29 2 -1
BITMAP
03FC00
0FFF80
1FFF00
3E0700
3C0100
780000
780000
780000
780000
7C0000
3C0000
3F0000
1FC000
0FF000
03FC00
007F00
001F00
000F80
000780
0003C0
0003C0
0003C0
0003C0
000780
700F80
7FFF80
FFFF00
3FFC00
038000
ENDCHAR
STARTCHAR 0406
ENCODING 1030
SWIDTH 495 0
DWIDTH 22 0
BBX 14 28 4 0
BITMAP
FFFC
FFFC
FFFC
FFFC
0780
0780
0780
0780
0780
0780
0780
0780
0780
0780
0780
0780
0780
0780
0780
0780
0780
0780
0780
0780
0780
FFFC
FFFC
FFFC
ENDCHAR
STARTCHAR 0407
ENCODING 1031
SWIDTH 495 0
DWIDTH 22 0
BBX 14 35 4 0
BITMAP
3878
7C78
7C78
3878
0000
0000
0000
FFFC
FFFC
FFFC
FFFC
0780
0780
0780
0780
0780
0780
0780
0780
0780
0780
0780
0780
0780
0780
0780
0780
0780
0780
0780
0780
0780
FFFC
FFFC
FFFC
ENDCHAR
STARTCHAR 0408
ENCODING 1032
SWIDTH 495 0
DWIDTH 22 0
BBX 16 29 3 -1
BITMAP
1FFF
1FFF
1FFF
1FFF
000F
000F
000F
000F
000F
000F
000F
000F
000F
000F
000F
000F
000F
000F
000F
000F
000F
000E
001E
001E
E03E
FFFC
FFF8
7FF0
0300
ENDCHAR
STARTCHAR 0409
ENCODING 1033
SWIDTH 495 0
DWIDTH 22 0
BBX 21 28 0 0
BITMAP
0FFC00
0FFC00
0FFC00
0FFC00
0E3C00
0E3C00
0E3C00
0E3C00
0E3C00
0E3C00
0E3F00
0E3FE0
0E3FF0
0E3FF0
0E3C78
0E3C78
0E3C38
0E3C38
0E3C38
0E3C38
1E3C38
1E3C38
1C3C38
1C3C78
3C3C70
F83FF0
783FE0
603FC0
ENDCHAR
STARTCHAR 040A
ENCODING 1034
SWIDTH 495 0
DWIDTH 22 0
BBX 19 28 2 0
BITMAP
E0F000
E0F000
E0F000
E0F000
E0F000
E0F000
E0F000
E0F000
E0F000
E0F000
E0F000
FFFF00
FFFF80
FFFFC0
E0F1E0
E0F1E0
E0F0E0
E0F0E0
E0F0E0
E0F0E0
E0F0E0
E0F0E0
E0F0E0
E0F1E0
E0F1C0
E0FFC0
E0FF80
E0FF00
ENDCHAR
STARTCHAR 040B
ENCODING 1035
SWIDTH 495 0
DWIDTH 22 0
BBX 19 28 1 0
BITMAP
FFFF00
FFFF00
FFFF00
FFFF00
0E0000
0E0000
0E0000
0E0000
0E0000
0E0000
0E0000
0FFE00
0FFF80
0FFFC0
0E03C0
0E03C0
0E01E0
0E01E0
0E01E0
0E01E0
0E01E0
0E01E0
0E01E0
0E01E0
0E01E0
0E01E0
0E01E0
0E01E0
ENDCHAR
STARTCHAR 040C
ENCODING 1036
SWIDTH 495 0
DWIDTH 22 0
BBX 19 37 3 0
BITMAP
004000
00E000
00F000
01E000
03C000
078000
070000
020000
000000
E003C0
E00780
E00F00
E01F00
E01E00
E03C00
E07800
E0F800
E1F000
E3E000
E3C000
E78000
EF0000
FF0000
FF8000
EFC000
E3E000
E1F000
E0F800
E07C00
E03C00
E03E00
E01F00
E00F00
E00780
E007C0
E003C0
E003E0
ENDCHAR
STARTCHAR 040D
ENCODING 1037
SWIDTH 495 0
DWIDTH 22 0
BBX 18 37 2 0
BITMAP
010000
038000
07C000
03E000
01E000
007000
003800
000000
000000
F003C0
F007C0
F007C0
F00FC0
F00FC0
F01FC0
F01FC0
F03FC0
F03BC0
F07BC0
F073C0
F0F3C0
F0E3C0
F1E3C0
F1C3C0
F3C3C0
F383C0
F783C0
F703C0
F703C0
FE03C0
FE03C0
FE03C0
FC03C0
FC03C0
F803C0
F803C0
F003C0
ENDCHAR
STARTCHAR 040E
ENCODING 1038
SWIDTH 495 0
DWIDTH 22 0
BBX 22 36 0 0
BITMAP
010200
070380
038780
03FF00
01FE00
007800
000000
000000
F0003C
78003C
780078
3C0078
3C0078
1E0070
1E00F0
0E00F0
0F00E0
0701E0
0781C0
0383C0
03C3C0
01C380
01E780
00E700
00F700
007F00
007E00
003E00
001C00
003C00
003800
007800
00F000
3FE000
3FC000
3F8000
ENDCHAR
STARTCHAR 040F
ENCODING 1039
SWIDTH 495 0
DWIDTH 22 0
BBX 18 35 2 -7
BITMAP
F003C0
F003C0
F003C0
F003C0
F003C0
F003C0
F003C0
F003C0
F003C0
F003C0
F003C0
F003C0
F003C0
F003C0
F003C0
F003C0
F003C0
F003C0
F003C0
F003C0
F003C0
F003C0
F003C0
F003C0
F003C0
FFFFC0
FFFFC0
FFFFC0
01E000
01E000
01E000
01E000
01E000
01E000
01E000
ENDCHAR
STARTCHAR 0410
ENCODING 1040
SWIDTH 495 0
DWIDTH 22 0
BBX 21 28 1 0
BITMAP
00F000
00F800
01F800
01FC00
03FC00
039C00
039E00
079E00
070E00
070F00
0F0F00
0E0700
0E0780
1E0780
1E0380
1C0380
1C03C0
3C03C0
3FFFC0
3FFFE0
7FFFE0
7801E0
7000E0
7000F0
F000F0
F000F0
E00070
E00078
ENDCHAR
STARTCHAR 0411
ENCODING 1041
SWIDTH 495 0
DWIDTH 22 0
BBX 18 28 2 0
BITMAP
FFFF00
FFFF00
FFFF00
FFFF00
F00000
F00000
F00000
F00000
F00000
F00000
F00000
FFF000
FFFE00
FFFF00
F01F80
F00780
F003C0
F003C0
F003C0
F003C0
F003C0
F003C0
F003C0
F00780
F01F80
FFFF00
FFFE00
FFF000
ENDCHAR
STARTCHAR 0412
ENCODING 1042
SWIDTH 495 0
DWIDTH 22 0
BBX 18 28 2 0
BITMAP
1FC000
FFF800
FFFE00
F07F00
F00F00
F00F80
F00780
F00780
F00780
F00700
F00F00
F03E00
FFFC00
FFF800
FFFE00
F01F00
F00780
F003C0
F003C0
F003C0
F003C0
F003C0
F003C0
F00780
F01F80
FFFF00
FFFE00
FFF800
ENDCHAR
STARTCHAR 0413
ENCODING 1043
SWIDTH 495 0
DWIDTH 22 0
BBX 18 28 2 0
BITMAP
0FFFC0
0FFFC0
0FFFC0
0FFFC0
0F0000
0F0000
0F0000
0F0000
0F0000
0F0000
0F0000
0F0000
0F0000
0F0000
0F0000
0F0000
0F0000
0F0000
0F0000
0F0000
0F0000
0F0000
0F0000
0F0000
0F0000
FFFC00
FFFC00
FFFC00
ENDCHAR
STARTCHAR 0414
ENCODING 1044
SWIDTH 495 0
DWIDTH 22 0
BBX 20 35 1 -7
BITMAP
03FFC0
03FFC0
03FFC0
03FFC0
0381C0
0381C0
0381C0
0781C0
0781C0
0781C0
0781C0
0781C0
0781C0
0781C0
0781C0
0781C0
0701C0
0F01C0
0F01C0
0F01C0
0F01C0
1E01C0
1E01C0
3C01C0
3C01C0
FFFFF0
FFFFF0
FFFFF0
E00070
E00070
E00070
E00070
E00070
E00070
E00070
ENDCHAR
STARTCHAR 0415
ENCODING 1045
SWIDTH 495 0
DWIDTH 22 0
BBX 16 28 4 0
BITMAP
FFFE
FFFE
FFFE
FFFE
F000
F000
F000
F000
F000
F000
F000
F000
FFFC
FFFC
FFFC
F000
F000
F000
F000
F000
F000
F000
F000
F000
F000
FFFF
FFFF
FFFF
ENDCHAR
STARTCHAR 0416
ENCODING 1046
SWIDTH 495 0
DWIDTH 22 0
BBX 22 28 0 0
BITMAP
70783C
787838
787878
387870
3C78F0
1C78E0
1E79E0
0E79C0
0F79C0
077B80
077B80
03FF00
03FF00
01FF00
03FF00
07FF80
077B80
0F7BC0
0E79C0
1E79E0
1C78E0
3C78F0
3C7870
387878
787878
787838
70783C
F0783C
ENDCHAR
STARTCHAR 0417
ENCODING 1047
SWIDTH 495 0
DWIDTH 22 0
BBX 19 29 2 -1
BITMAP
0FF000
7FFE00
7FFF00
781F80
000780
000780
000380
000380
000380
000780
000F00
003F00
0FFC00
0FFC00
0FFF00
001F80
0007C0
0003C0
0001C0
0001E0
0001E0
0001E0
0001C0
0003C0
E007C0
FFFF80
FFFF00
3FFC00
004000
ENDCHAR
STARTCHAR 0418
ENCODING 1048
SWIDTH 495 0
DWIDTH 22 0
BBX 18 28 2 0
BITMAP
F003C0
F007C0
F007C0
F00FC0
F00FC0
F01FC0
F01FC0
F03FC0
F03BC0
F07BC0
F073C0
F0F3C0
F0E3C0
F1E3C0
F1C3C0
F3C3C0
F383C0
F783C0
F703C0
F703C0
FE03C0
FE03C0
FE03C0
FC03C0
FC03C0
F803C0
F803C0
F003C0
ENDCHAR
STARTCHAR 0419
ENCODING 1049
SWIDTH 495 0
DWIDTH 22 0
BBX 18 36 2 0
BITMAP
040800
1C0E00
0E1E00
0FFC00
07F800
01E000
000000
000000
F003C0
F007C0
F007C0
F00FC0
F00FC0
F01FC0
F01FC0
F03FC0
F03BC0
F07BC0
F073C0
F0F3C0
F0E3C0
F1E3C0
F1C3C0
F3C3C0
F383C0
F783C0
F703C0
F703C0
FE03C0
FE03C0
FE03C0
FC03C0
FC03C0
F803C0
F803C0
F003C0
ENDCHAR
STARTCHAR 041A
ENCODING 1050
SWIDTH 495 0
DWIDTH 22 0
BBX 19 28 3 0
BITMAP
E003C0
E00780
E00F00
E01F00
E01E00
E03C00
E07800
E0F800
E1F000
E3E000
E3C000
E78000
EF0000
FF0000
FF8000
EFC000
E3E000
E1F000
E0F800
E07C00
E03C00
E03E00
E01F00
E00F00
E00780
E007C0
E003C0
E003E0
ENDCHAR
STARTCHAR 041B
ENCODING 1051
SWIDTH 495 0
DWIDTH 22 0
BBX 19 28 1 0
BITMAP
03FFE0
03FFE0
03FFE0
03FFE0
03C0E0
03C0E0
0380E0
0380E0
0380E0
0380E0
0380E0
0380E0
0380E0
0780E0
0780E0
0780E0
0780E0
0700E0
0700E0
0F00E0
0F00E0
0E00E0
1E00E0
1E00E0
7C00E0
F800E0
F800E0
E000E0
ENDCHAR
STARTCHAR 041C
ENCODING 1052
SWIDTH 495 0
DWIDTH 22 0
BBX 20 28 1 0
BITMAP
3C03C0
3C03C0
3C03C0
3E07C0
3E07C0
3607C0
3706E0
370EE0
330EE0
738CE0
739CE0
719CE0
71D8E0
71F8E0
70F8E0
70F0E0
70F0E0
7070E0
7000E0
7000E0
7000E0
7000E0
7000F0
7000F0
7000F0
F000F0
F000F0
F000F0
ENDCHAR
STARTCHAR 041D
ENCODING 1053
SWIDTH 495 0
DWIDTH 22 0
BBX 18 28 2 0
BITMAP
F001C0
F001C0
F001C0
F001C0
F001C0
F001C0
F001C0
F001C0
F001C0
F001C0
F001C0
F001C0
FFFFC0
FFFFC0
FFFFC0
F001C0
F001C0
F001C0
F001C0
F001C0
F001C0
F001C0
F001C0
F001C0
F001C0
F001C0
F001C0
F001C0
ENDCHAR
STARTCHAR 041E
ENCODING 1054
SWIDTH 495 0
DWIDTH 22 0
BBX 20 29 1 -1
BITMAP
01FC00
07FE00
0FFF80
1F0F80
3E03C0
3C03C0
7801E0
7801E0
7800E0
7000F0
F000F0
F000F0
F000F0
F000F0
F000F0
F000F0
F000F0
F000F0
7000F0
7000E0
7801E0
7801E0
3801E0
3C03C0
1E07C0
1FFF80
0FFF00
03FE00
007000
ENDCHAR
STARTCHAR 041F
ENCODING 1055
SWIDTH 495 0
DWIDTH 22 0
BBX 18 28 2 0
BITMAP
FFFFC0
FFFFC0
FFFFC0
FFFFC0
F001C0
F001C0
F001C0
F001C0
F001C0
F001C0
F001C0
F001C0
F001C0
F001C0
F001C0
F001C0
F001C0
F001C0
F001C0
F001C0
F001C0
F001C0
F001C0
F001C0
F001C0
F001C0
F001C0
F001C0
ENDCHAR
STARTCHAR 0420
ENCODING 1056
SWIDTH 495 0
DWIDTH 22 0
BBX 17 28 3 0
BITMAP
1FC000
FFF800
FFFE00
F07F00
F00F00
F00780
F00780
F00780
F00780
F00780
F00780
F00780
F00780
F00F00
F0FE00
FFFE00
FFF800
FFC000
F00000
F00000
F00000
F00000
F00000
F00000
F00000
F00000
F00000
F00000
ENDCHAR
STARTCHAR 0421
ENCODING 1057
SWIDTH 495 0
DWIDTH 22 0
BBX 18 29 2 -1
BITMAP
00FE00
03FFC0
0FFFC0
1F83C0
1E0000
3C0000
3C0000
780000
780000
700000
F00000
F00000
F00000
F00000
F00000
F00000
F00000
F00000
F00000
700000
780000
780000
3C0000
3E0000
1F00C0
0FFFC0
07FFC0
03FF80
003000
ENDCHAR
STARTCHAR 0422
ENCODING 1058
SWIDTH 495 0
DWIDTH 22 0
BBX 18 28 2 0
BITMAP
FFFFC0
FFFFC0
FFFFC0
FFFFC0
01E000
01E000
01E000
01E000
01E000
01E000
01E000
01E000
01E000
01E000
01E000
01E000
01E000
01E000
01E000
01E000
01E000
01E000
01E000
01E000
01E000
01E000
01E000
01E000
ENDCHAR
STARTCHAR 0423
ENCODING 1059
SWIDTH 495 0
DWIDTH 22 0
BBX 22 28 0 0
BITMAP
F0003C
78003C
780078
3C0078
3C0078
1E0070
1E00F0
0E00F0
0F00E0
0701E0
0781C0
0383C0
03C3C0
01C380
01E780
00E700
00F700
007F00
007E00
003E00
001C00
003C00
003800
007800
00F000
3FE000
3FC000
3F8000
ENDCHAR
STARTCHAR 0424
ENCODING 1060
SWIDTH 495 0
DWIDTH 22 0
BBX 19 29 2 0
BITMAP
00E000
00E000
00E000
03F800
0FFE00
1FFF00
3EEF80
78E780
78E3C0
F0E3C0
F0E1C0
F0E1E0
F0E1E0
F0E1E0
F0E1E0
F0E1E0
F0E1E0
F0E1E0
F0E1C0
70E3C0
78E3C0
7CE780
3FFF00
1FFF00
07FC00
01E000
00E000
00E000
00E000
ENDCHAR
STARTCHAR 0425
ENCODING 1061
SWIDTH 495 0
DWIDTH 22 0
BBX 20 28 1 0
BITMAP
7800F0
7801E0
3C01E0
3C03C0
1E0380
1E0780
0F0F00
0F0F00
079E00
039E00
03FC00
01F800
01F800
00F800
01F800
03FC00
03FC00
079E00
078E00
0F0F00
0F0780
1E0780
1E03C0
3C03C0
3C01E0
7801E0
7801E0
F000F0
ENDCHAR
STARTCHAR 0426
ENCODING 1062
SWIDTH 495 0
DWIDTH 22 0
BBX 19 35 2 -7
BITMAP
F00380
F00380
F00380
F00380
F00380
F00380
F00380
F00380
F00380
F00380
F00380
F00380
F00380
F00380
F00380
F00380
F00380
F00380
F00380
F00380
F00380
F00380
F00380
F00380
F00380
FFFFE0
FFFFE0
FFFFE0
0000E0
0000E0
0000E0
0000E0
0000E0
0000E0
0000E0
ENDCHAR
STARTCHAR 0427
ENCODING 1063
SWIDTH 495 0
DWIDTH 22 0
BBX 18 28 2 0
BITMAP
F003C0
F003C0
F003C0
F003C0
F003C0
F003C0
F003C0
F003C0
F003C0
F003C0
F003C0
7003C0
7803C0
7803C0
7C03C0
3FFFC0
1FFFC0
0FFFC0
0003C0
0003C0
0003C0
0003C0
0003C0
0003C0
0003C0
0003C0
0003C0
0003C0
ENDCHAR
STARTCHAR 0428
ENCODING 1064
SWIDTH 495 0
DWIDTH 22 0
BBX 18 28 2 0
BITMAP
E001C0
E001C0
E001C0
E001C0
E001C0
E001C0
E001C0
E001C0
E001C0
E001C0
E001C0
E1E1C0
E1E1C0
E1E1C0
E1E1C0
E1E1C0
E1E1C0
E1E1C0
E1E1C0
E1E1C0
E1E1C0
E1E1C0
E1E1C0
E1E1C0
E1E1C0
FFFFC0
FFFFC0
FFFFC0
ENDCHAR
STARTCHAR 0429
ENCODING 1065
SWIDTH 495 0
DWIDTH 22 0
BBX 19 35 2 -7
BITMAP
E00380
E00380
E00380
E00380
E00380
E00380
E00380
E00380
E00380
E00380
E00380
E1C380
E1C380
E1C380
E1C380
E1C380
E1C380
E1C380
E1C380
E1C380
E1C380
E1C380
E1C380
E1C380
E1C380
FFFFE0
FFFFE0
FFFFE0
0000E0
0000E0
0000E0
0000E0
0000E0
0000E0
0000E0
ENDCHAR
STARTCHAR 042A
ENCODING 1066
SWIDTH 495 0
DWIDTH 22 0
BBX 19 28 1 0
BITMAP
FF0000
FF0000
FF0000
FF0000
0F0000
0F0000
0F0000
0F0000
0F0000
0F0000
0FE000
0FFE00
0FFF80
0FFFC0
0F03C0
0F01E0
0F01E0
0F01E0
0F00E0
0F00E0
0F00E0
0F01E0
0F01E0
0F03E0
0F07C0
0FFF80
0FFF00
0FFE00
ENDCHAR
STARTCHAR 042B
ENCODING 1067
SWIDTH 495 0
DWIDTH 22 0
BBX 19 28 2 0
BITMAP
E001E0
E001E0
E001E0
E001E0
E001E0
E001E0
E001E0
E001E0
E001E0
E001E0
EC01E0
FF81E0
FFC1E0
FFE1E0
E1F1E0
E0F1E0
E071E0
E071E0
E079E0
E079E0
E071E0
E071E0
E071E0
E0F1E0
E1F1E0
FFE1E0
FFC1E0
FF81E0
ENDCHAR
STARTCHAR 042C
ENCODING 1068
SWIDTH 495 0
DWIDTH 22 0
BBX 18 28 2 0
BITMAP
F00000
F00000
F00000
F00000
F00000
F00000
F00000
F00000
F00000
F00000
FF8000
FFFC00
FFFE00
F9FF80
F00F80
F007C0
F003C0
F003C0
F001C0
F001C0
F001C0
F003C0
F003C0
F007C0
F01F80
FFFF00
FFFE00
FFF800
ENDCHAR
STARTCHAR 042D
ENCODING 1069
SWIDTH 495 0
DWIDTH 22 0
BBX 19 29 2 -1
BITMAP
1FE000
FFF800
FFFE00
703F00
000F00
000780
000780
0003C0
0003C0
0001C0
0001E0
0001E0
07FFE0
07FFE0
07FFE0
07FFE0
0001E0
0001E0
0001C0
0001C0
0003C0
0003C0
000780
000F80
401F00
FFFE00
FFFC00
7FF000
030000
ENDCHAR
STARTCHAR 042E
ENCODING 1070
SWIDTH 495 0
DWIDTH 22 0
BBX 19 29 2 -1
BITMAP
E03E00
E07F00
E0FF80
E0E380
E1E3C0
E1C1C0
E1C1C0
E1C1E0
E3C1E0
E3C1E0
E3C1E0
E3C1E0
FFC0E0
FFC0E0
FFC0E0
E3C0E0
E3C1E0
E3C1E0
E3C1E0
E3C1E0
E3C1E0
E1C1C0
E1C1C0
E1E3C0
E1E3C0
E0FF80
E0FF80
E07F00
001800
ENDCHAR
STARTCHAR 042F
ENCODING 1071
SWIDTH 495 0
DWIDTH 22 0
BBX 17 28 3 0
BITMAP
00FE00
07FF80
1FFF80
3F8780
3C0380
780380
780380
700380
700380
700380
780380
780380
780380
3E0380
1FFF80
0FFF80
03FF80
078380
0F0380
0F0380
1E0380
1E0380
3C0380
3C0380
780380
780380
F00380
F00380
ENDCHAR
STARTCHAR 0430
ENCODING 1072
SWIDTH 495 0
DWIDTH 22 0
BBX 16 21 3 0
BITMAP
1FF0
3FFC
3FFE
203E
000F
000F
000F
0007
00C7
1FFF
3FFF
7F7F
F807
F007
E007
E007
F007
F807
7FFF
7FFF
1FFF
ENDCHAR
STARTCHAR 0431
ENCODING 1073
SWIDTH 495 0
DWIDTH 22 0
BBX 18 31 2 -1
BITMAP
000180
007F80
01FF80
07FF80
0FC000
1F0000
3E0000
3C0000
780000
780000
700000
73FC00
FFFE00
FFFF00
FC0F80
F80780
F003C0
F003C0
F003C0
F001C0
F001C0
F001C0
F001C0
F003C0
7003C0
7803C0
780780
3C0F80
3FFF00
1FFE00
07FC00
ENDCHAR
STARTCHAR 0432
ENCODING 1074
SWIDTH 495 0
DWIDTH 22 0
BBX 17 21 3 0
BITMAP
FFF000
FFFC00
FFFE00
F01F00
F00F00
F00F00
F00F00
F00F00
F03E00
FFFC00
FFFE00
FFFF00
F00F80
F00780
F00780
F00780
F00780
F00F80
FFFF00
FFFE00
FFF800
ENDCHAR
STARTCHAR 0433
ENCODING 1075
SWIDTH 495 0
DWIDTH 22 0
BBX 15 21 5 0
BITMAP
FFFE
FFFE
FFFE
E000
E000
E000
E000
E000
E000
E000
E000
E000
E000
E000
E000
E000
E000
E000
E000
E000
E000
ENDCHAR
STARTCHAR 0434
ENCODING 1076
SWIDTH 495 0
DWIDTH 22 0
BBX 20 27 1 -6
BITMAP
03FFC0
03FFC0
03FFC0
0383C0
0383C0
0783C0
0783C0
0783C0
0783C0
0783C0
0783C0
0703C0
0F03C0
0F03C0
0E03C0
1E03C0
1C03C0
3C03C0
FFFFF0
FFFFF0
FFFFF0
F000F0
F000F0
F000F0
F000F0
F000F0
F000F0
ENDCHAR
STARTCHAR 0435
ENCODING 1077
SWIDTH 495 0
DWIDTH 22 0
BBX 18 21 2 0
BITMAP
03F800
0FFE00
1FFF00
3E0F80
7C0780
7803C0
F003C0
F003C0
F003C0
FFFFC0
FFFFC0
FFFFC0
F00000
F00000
F00000
780000
7C0000
3E0000
1FFF80
0FFF80
07FF00
ENDCHAR
STARTCHAR 0436
ENCODING 1078
SWIDTH 495 0
DWIDTH 22 0
BBX 21 21 1 0
BITMAP
F0F0F0
70F0E0
78F1E0
38F1C0
1CF380
1CF380
0EF700
07F700
07FE00
03FC00
03FC00
07FE00
0FFF00
0EF780
1CF380
3CF3C0
38F1C0
78F1E0
70F0F0
F0F070
E0F078
ENDCHAR
STARTCHAR 0437
ENCODING 1079
SWIDTH 495 0
DWIDTH 22 0
BBX 17 21 3 0
BITMAP
3FF000
7FFC00
7FFE00
701F00
000F00
000F00
000F00
000F00
003E00
0FFC00
0FFC00
0FFE00
000F00
000780
000780
000780
000780
400F00
7FFF00
FFFE00
7FF800
ENDCHAR
STARTCHAR 0438
ENCODING 1080
SWIDTH 495 0
DWIDTH 22 0
BBX 16 21 3 0
BITMAP
E007
E00F
E01F
E01F
E03F
E07F
E077
E0E7
E1E7
E1C7
E387
E387
E707
EE07
EE07
FC07
FC07
F807
F807
F007
E007
ENDCHAR
STARTCHAR 0439
ENCODING 1081
SWIDTH 495 0
DWIDTH 22 0
BBX 16 29 3 1
BITMAP
1C1E
1E1C
1FFC
0FF8
03F0
0000
0000
0000
E007
E00F
E01F
E01F
E03F
E07F
E077
E0E7
E1E7
E1C7
E387
E387
E707
EE07
EE07
FC07
FC07
F807
F807
F007
E007
ENDCHAR
STARTCHAR 043A
ENCODING 1082
SWIDTH 495 0
DWIDTH 22 0
BBX 18 21 3 0
BITMAP
F00780
F00F00
F01F00
F03C00
F07800
F0F000
F1E000
F3C000
FF8000
FF0000
FF8000
FFC000
F3E000
F1F000
F0F800
F07C00
F03E00
F01F00
F00F80
F00780
F003C0
ENDCHAR
STARTCHAR 043B
ENCODING 1083
SWIDTH 495 0
DWIDTH 22 0
BBX 18 21 1 0
BITMAP
03FFC0
03FFC0
03FFC0
0383C0
0383C0
0383C0
0383C0
0383C0
0383C0
0383C0
0783C0
0783C0
0783C0
0703C0
0F03C0
0F03C0
1E03C0
3E03C0
FC03C0
F803C0
E003C0
ENDCHAR
STARTCHAR 043C
ENCODING 1084
SWIDTH 495 0
DWIDTH 22 0
BBX 20 21 1 0
BITMAP
3801E0
3C01E0
7C03E0
7C03E0
7E07E0
7E07E0
7607E0
770EE0
770EE0
738CE0
739CE0
739CF0
71F8F0
71F8F0
F1F8F0
F0F0F0
F0F0F0
F000F0
F000F0
F000F0
F000F0
ENDCHAR
STARTCHAR 043D
ENCODING 1085
SWIDTH 495 0
DWIDTH 22 0
BBX 16 21 3 0
BITMAP
F00F
F00F
F00F
F00F
F00F
F00F
F00F
F00F
F00F
FFFF
FFFF
FFFF
F00F
F00F
F00F
F00F
F00F
F00F
F00F
F00F
F00F
ENDCHAR
STARTCHAR 043E
ENCODING 1086
SWIDTH 495 0
DWIDTH 22 0
BBX 18 21 2 0
BITMAP
03F000
0FFC00
1FFE00
3E1F00
7C0780
780780
F003C0
F003C0
F003C0
F001C0
F001C0
F001C0
F001C0
F003C0
F003C0
7803C0
780780
3C0F80
3FFF00
1FFE00
07F800
ENDCHAR
STARTCHAR 043F
ENCODING 1087
SWIDTH 495 0
DWIDTH 22 0
BBX 16 21 3 0
BITMAP
FFFF
FFFF
FFFF
F00F
F00F
F00F
F00F
F00F
F00F
F00F
F00F
F00F
F00F
F00F
F00F
F00F
F00F
F00F
F00F
F00F
F00F
ENDCHAR
STARTCHAR 0440
ENCODING 1088
SWIDTH 495 0
DWIDTH 22 0
BBX 17 28 3 -7
BITMAP
3FE000
FFF800
FFFC00
F07E00
F01F00
F00F00
F00780
F00780
F00780
F00380
F00380
F00380
F00380
F00780
F00780
F00780
F00F00
F81F00
FFFE00
FFFC00
FFF800
F00000
F00000
F00000
F00000
F00000
F00000
F00000
ENDCHAR
STARTCHAR 0441
ENCODING 1089
SWIDTH 495 0
DWIDTH 22 0
BBX 18 21 2 0
BITMAP
01FF80
07FFC0
0FFF80
1F8180
3E0000
7C0000
780000
F00000
F00000
F00000
F00000
F00000
F00000
F00000
780000
780000
7C0000
3F0040
1FFFC0
0FFFC0
03FFC0
ENDCHAR
STARTCHAR 0442
ENCODING 1090
SWIDTH 495 0
DWIDTH 22 0
BBX 17 21 3 0
BITMAP
FFFF80
FFFF80
FFFF80
03C000
03C000
03C000
03C000
03C000
03C000
03C000
03C000
03C000
03C000
03C000
03C000
03C000
03C000
03C000
03C000
03C000
03C000
ENDCHAR
STARTCHAR 0443
ENCODING 1091
SWIDTH 495 0
DWIDTH 22 0
BBX 18 28 2 -7
BITMAP
F001C0
F003C0
7803C0
7803C0
780380
3C0780
3C0780
3C0780
1E0700
1E0F00
1E0F00
0F0E00
0F1E00
071E00
079C00
03BC00
03FC00
03F800
01F800
01F000
00F000
00F000
00E000
01E000
03C000
FF8000
FF0000
FE0000
ENDCHAR
STARTCHAR 0444
ENCODING 1092
SWIDTH 495 0
DWIDTH 22 0
BBX 20 38 1 -7
BITMAP
003000
00F000
00F000
00F000
00F000
00F000
00F000
00F000
00F000
00F000
01FC00
0FFF00
1FFF80
3FFFC0
3CF3E0
78F1E0
78F0E0
F0F0F0
F0F0F0
F0F0F0
F0F0F0
F0F0F0
F0F0F0
F0F0F0
70F0F0
78F1E0
78F1E0
3EF7C0
1FFF80
0FFF00
07FE00
00F000
00F000
00F000
00F000
00F000
00F000
00F000
ENDCHAR
STARTCHAR 0445
ENCODING 1093
SWIDTH 495 0
DWIDTH 22 0
BBX 19 21 2 0
BITMAP
F003C0
F803C0
780780
3C0F00
1E1E00
1F1E00
0F3C00
07F800
03F800
01F000
01F000
03F800
07F800
0F3C00
0F1E00
1E1F00
3C0F00
780780
7807C0
F003C0
E001E0
ENDCHAR
STARTCHAR 0446
ENCODING 1094
SWIDTH 495 0
DWIDTH 22 0
BBX 18 27 3 -6
BITMAP
F00F00
F00F00
F00F00
F00F00
F00F00
F00F00
F00F00
F00F00
F00F00
F00F00
F00F00
F00F00
F00F00
F00F00
F00F00
F00F00
F00F00
F00F00
FFFFC0
FFFFC0
FFFFC0
0003C0
0003C0
0003C0
0003C0
0003C0
0003C0
ENDCHAR
STARTCHAR 0447
ENCODING 1095
SWIDTH 495 0
DWIDTH 22 0
BBX 17 21 2 0
BITMAP
F00780
F00780
F00780
F00780
F00780
F00780
F00780
F00780
700780
780780
7F1F80
3FFF80
1FFF80
03E780
000780
000780
000780
000780
000780
000780
000780
ENDCHAR
STARTCHAR 0448
ENCODING 1096
SWIDTH 495 0
DWIDTH 22 0
BBX 18 21 2 0
BITMAP
E001C0
E001C0
E001C0
E001C0
E001C0
E1E1C0
E1E1C0
E1E1C0
E1E1C0
E1E1C0
E1E1C0
E1E1C0
E1E1C0
E1E1C0
E1E1C0
E1E1C0
E1E1C0
E1E1C0
FFFFC0
FFFFC0
FFFFC0
ENDCHAR
STARTCHAR 0449
ENCODING 1097
SWIDTH 495 0
DWIDTH 22 0
BBX 19 27 2 -6
BITMAP
E00380
E00380
E00380
E00380
E00380
E1C380
E1C380
E1C380
E1C380
E1C380
E1C380
E1C380
E1C380
E1C380
E1C380
E1C380
E1C380
E1C380
FFFFE0
FFFFE0
FFFFE0
0001E0
0001E0
0001E0
0001E0
0001E0
0001E0
ENDCHAR
STARTCHAR 044A
ENCODING 1098
SWIDTH 495 0
DWIDTH 22 0
BBX 20 21 1 0
BITMAP
FE0000
FE0000
FE0000
0E0000
0E0000
0E0000
0E0000
0E0000
0FFF00
0FFF80
0FFFC0
0E03E0
0E01E0
0E00F0
0E00F0
0E00F0
0E01E0
0E01E0
0FFFE0
0FFFC0
0FFF00
ENDCHAR
STARTCHAR 044B
ENCODING 1099
SWIDTH 495 0
DWIDTH 22 0
BBX 18 21 2 0
BITMAP
E001C0
E001C0
E001C0
E001C0
E001C0
E001C0
E001C0
E001C0
FFC1C0
FFE1C0
FFF1C0
E0F1C0
E079C0
E079C0
E079C0
E079C0
E079C0
E0F1C0
FFF1C0
FFE1C0
FFC1C0
ENDCHAR
STARTCHAR 044C
ENCODING 1100
SWIDTH 495 0
DWIDTH 22 0
BBX 17 21 3 0
BITMAP
F00000
F00000
F00000
F00000
F00000
F00000
F00000
F00000
FFF800
FFFE00
FFFF00
F00F80
F00780
F00380
F00380
F00380
F00780
F00F80
FFFF00
FFFE00
FFFC00
ENDCHAR
STARTCHAR 044D
ENCODING 1101
SWIDTH 495 0
DWIDTH 22 0
BBX 17 21 3 0
BITMAP
7FC000
FFF800
FFFC00
407E00
001F00
000F00
000780
000780
000380
0FFF80
0FFF80
0FFF80
000380
000780
000780
000F80
001F00
803E00
FFFE00
FFF800
FFF000
ENDCHAR
STARTCHAR 044E
ENCODING 1102
SWIDTH 495 0
DWIDTH 22 0
BBX 19 21 2 0
BITMAP
F03E00
F07F80
F0FF80
F0F3C0
F1E1C0
F1E1C0
F1C1E0
F1C1E0
F1C1E0
FFC0E0
FFC0E0
FFC0E0
F1C1E0
F1C1E0
F1C1E0
F1E1E0
F1E1C0
F0E3C0
F0FFC0
F07F80
F03F00
ENDCHAR
STARTCHAR 044F
ENCODING 1103
SWIDTH 495 0
DWIDTH 22 0
BBX 17 21 2 0
BITMAP
03FF80
0FFF80
3FFF80
3E0780
780780
780780
780780
780780
780780
3C0780
3FFF80
1FFF80
07FF80
0F0780
1E0780
1C0780
3C0780
780780
780780
F00780
F00780
ENDCHAR
STARTCHAR 0450
ENCODING 1104
SWIDTH 495 0
DWIDTH 22 0
BBX 18 31 2 0
BITMAP
010000
038000
07C000
03C000
01E000
00F000
007800
002000
000000
000000
03F800
0FFE00
1FFF00
3E0F80
7C0780
7803C0
F003C0
F003C0
F003C0
FFFFC0
FFFFC0
FFFFC0
F00000
F00000
F00000
780000
7C0000
3E0000
1FFF80
0FFF80
07FF00
ENDCHAR
STARTCHAR 0451
ENCODING 1105
SWIDTH 495 0
DWIDTH 22 0
BBX 18 29 2 0
BITMAP
0E0E00
0F1F00
0F1F00
0F0E00
000400
000000
000000
000000
03F800
0FFE00
1FFF00
3E0F80
7C0780
7803C0
F003C0
F003C0
F003C0
FFFFC0
FFFFC0
FFFFC0
F00000
F00000
F00000
780000
7C0000
3E0000
1FFF80
0FFF80
07FF00
ENDCHAR
STARTCHAR 0452
ENCODING 1106
SWIDTH 495 0
DWIDTH 22 0
BBX 18 38 1 -7
BITMAP
040000
1C0000
1C0000
1C0000
FFFC00
FFFC00
FFFC00
1C0000
1C0000
1C0000
1DFC00
1FFF00
1FFF00
1F0F80
1C0780
1C03C0
1C03C0
1C03C0
1C03C0
1C01C0
1C01C0
1C01C0
1C01C0
1C01C0
1C01C0
1C01C0
1C01C0
1C01C0
1C01C0
1C01C0
1C01C0
0001C0
0003C0
0003C0
0003C0
003FC0
003F80
003F00
ENDCHAR
STARTCHAR 0453
ENCODING 1107
SWIDTH 495 0
DWIDTH 22 0
BBX 15 30 5 1
BITMAP
0060
00F0
01E0
03C0
0380
0700
0200
0000
0000
FFFE
FFFE
FFFE
E000
E000
E000
E000
E000
E000
E000
E000
E000
E000
E000
E000
E000
E000
E000
E000
E000
E000
ENDCHAR
STARTCHAR 0454
ENCODING 1108
SWIDTH 495 0
DWIDTH 22 0
BBX 18 21 2 0
BITMAP
01FF80
07FFC0
0FFF80
1F8180
3E0000
7C0000
780000
700000
F00000
FFF800
FFF800
FFF800
F00000
F00000
780000
780000
3C0000
3F0040
1FFFC0
0FFFC0
03FFC0
ENDCHAR
STARTCHAR 0455
ENCODING 1109
SWIDTH 495 0
DWIDTH 22 0
BBX 16 21 3 0
BITMAP
0FFC
3FFE
7FFE
7C06
F000
F000
F000
7800
7E00
3FC0
0FF0
03FC
007E
001F
000F
0007
000F
E00F
FFFF
FFFE
7FF8
ENDCHAR
STARTCHAR 0456
ENCODING 1110
SWIDTH 495 0
DWIDTH 22 0
BBX 18 30 2 0
BITMAP
038000
07C000
0FC000
0FC000
07C000
078000
000000
000000
000000
FFC000
FFC000
FFC000
03C000
03C000
03C000
03C000
03C000
03C000
03C000
03C000
03C000
03C000
03C000
03C000
03C000
01C000
01E040
01FFC0
00FFC0
007FC0
ENDCHAR
STARTCHAR 0457
ENCODING 1111
SWIDTH 495 0
DWIDTH 22 0
BBX 18 29 2 0
BITMAP
383800
3C7800
7C7C00
3C7800
101000
000000
000000
000000
FFC000
FFC000
FFC000
03C000
03C000
03C000
03C000
03C000
03C000
03C000
03C000
03C000
03C000
03C000
03C000
03C000
01C000
01E040
01FFC0
00FFC0
007FC0
ENDCHAR
STARTCHAR 0458
ENCODING 1112
SWIDTH 495 0
DWIDTH 22 0
BBX 14 38 3 -8
BITMAP
0070
00F8
00F8
00FC
00F8
0078
0000
0000
0000
3FFC
3FFC
3FFC
003C
003C
003C
003C
003C
003C
003C
003C
003C
003C
003C
003C
003C
003C
003C
003C
003C
003C
003C
003C
003C
6078
7FF8
FFF0
7FE0
0200
ENDCHAR
STARTCHAR 0459
ENCODING 1113
SWIDTH 495 0
DWIDTH 22 0
BBX 20 21 1 0
BITMAP
1FF800
1FF800
1FF800
1E3800
1E3800
1E3800
1E3800
1E3800
1E3FC0
1E3FE0
1E3FE0
1E38F0
1C3870
1C3870
1C3870
1C3870
3C3870
7838F0
F83FE0
F03FE0
E03FC0
ENDCHAR
STARTCHAR 045A
ENCODING 1114
SWIDTH 495 0
DWIDTH 22 0
BBX 19 21 2 0
BITMAP
F07000
F07000
F07000
F07000
F07000
F07000
F07000
F07000
F07F80
FFFFC0
FFFFC0
FFF1E0
F070E0
F070E0
F070E0
F070E0
F070E0
F071E0
F07FC0
F07FC0
F07F80
ENDCHAR
STARTCHAR 045B
ENCODING 1115
SWIDTH 495 0
DWIDTH 22 0
BBX 18 31 1 0
BITMAP
040000
1C0000
1C0000
1C0000
FFFC00
FFFC00
FFFC00
1C0000
1C0000
1C0000
1DFC00
1FFF00
1FFF00
1F0F80
1C0780
1C03C0
1C03C0
1C03C0
1C03C0
1C01C0
1C01C0
1C01C0
1C01C0
1C01C0
1C01C0
1C01C0
1C01C0
1C01C0
1C01C0
1C01C0
1C01C0
ENDCHAR
STARTCHAR 045C
ENCODING 1116
SWIDTH 495 0
DWIDTH 22 0
BBX 18 30 3 1
BITMAP
003000
007800
00F800
00F000
01E000
038000
010000
000000
000000
F00780
F00F00
F01F00
F03C00
F07800
F0F000
F1E000
F3C000
FF8000
FF0000
FF8000
FFC000
F3E000
F1F000
F0F800
F07C00
F03E00
F01F00
F00F80
F00780
F003C0
ENDCHAR
STARTCHAR 045D
ENCODING 1117
SWIDTH 495 0
DWIDTH 22 0
BBX 16 31 3 0
BITMAP
0200
0700
0F80
07C0
03C0
01E0
00F0
0060
0000
0000
E007
E00F
E01F
E01F
E03F
E07F
E077
E0E7
E1E7
E1C7
E387
E387
E707
EE07
EE07
FC07
FC07
F807
F807
F007
E007
ENDCHAR
STARTCHAR 045E
ENCODING 1118
SWIDTH 495 0
DWIDTH 22 0
BBX 18 36 2 -6
BITMAP
0E0700
0F0F00
07FE00
03FC00
01F800
000000
000000
000000
F001C0
F003C0
7803C0
7803C0
780380
3C0780
3C0780
3C0780
1E0700
1E0F00
1E0F00
0F0E00
0F1E00
071E00
079C00
03BC00
03FC00
03F800
01F800
01F000
00F000
00F000
00E000
01E000
03C000
FF8000
FF0000
FE0000
ENDCHAR
STARTCHAR 045F
ENCODING 1119
SWIDTH 495 0
DWIDTH 22 0
BBX 16 27 3 -6
BITMAP
F00F
F00F
F00F
F00F
F00F
F00F
F00F
F00F
F00F
F00F
F00F
F00F
F00F
F00F
F00F
F00F
F00F
F00F
FFFF
FFFF
FFFF
03C0
03C0
03C0
03C0
03C0
03C0
ENDCHAR
STARTCHAR 0462
ENCODING 1122
SWIDTH 495 0
DWIDTH 22 0
BBX 20 29 1 0
BITMAP
0E0000
0E0000
0E0000
FFFE00
FFFE00
FFFE00
0E0000
0E0000
0E0000
0E0000
0E0000
0E0000
0FFC00
0FFF80
0FFFC0
0E07E0
0E01E0
0E00E0
0E00F0
0E00F0
0E00F0
0E00F0
0E00F0
0E00E0
0E01E0
0E03E0
0FFFC0
0FFF80
0FFE00
ENDCHAR
STARTCHAR 0463
ENCODING 1123
SWIDTH 495 0
DWIDTH 22 0
BBX 19 31 1 0
BITMAP
020000
0E0000
0E0000
0E0000
0E0000
0E0000
0E0000
0E0000
0E0000
0E0000
FFFC00
FFFC00
FFFC00
0E0000
0E0000
0E0000
0E0000
0E0000
0FFF00
0FFF80
0FFFC0
0E03E0
0E01E0
0E00E0
0E00E0
0E00E0
0E01E0
0E01E0
0FFFC0
0FFFC0
0FFF00
ENDCHAR
STARTCHAR 0472
ENCODING 1138
SWIDTH 495 0
DWIDTH 22 0
BBX 20 29 1 -1
BITMAP
01FC00
07FE00
0FFF80
1F0F80
3E03C0
3C03C0
7801E0
7801E0
7800E0
7000F0
F000F0
F000F0
F7C0F0
FFF0F0
FFFFF0
F83FF0
F01FF0
F000F0
7000F0
7000F0
7801E0
7801E0
3C01E0
3C03C0
1E07C0
1FFF80
0FFF00
03FE00
006000
ENDCHAR
STARTCHAR 0473
ENCODING 1139
SWIDTH 495 0
DWIDTH 22 0
BBX 18 21 2 0
BITMAP
03F000
0FFC00
1FFE00
3E1F00
7C0780
780780
F003C0
F003C0
F703C0
FFC3C0
FFFFC0
F0FFC0
F01FC0
F003C0
F003C0
7803C0
780780
3C0F80
3FFF00
1FFE00
07F800
ENDCHAR
STARTCHAR 0474
ENCODING 1140
SWIDTH 495 0
DWIDTH 22 0
BBX 22 28 1 0
BITMAP
F000F0
F001FC
F003F8
F003D0
700380
780380
780780
780780
380700
380700
3C0F00
3C0F00
1C0E00
1C0E00
1E1E00
1E1E00
0E1C00
0E1C00
0F1C00
073C00
073800
073800
07B800
03F800
03F000
03F000
01F000
01F000
ENDCHAR
STARTCHAR 0475
ENCODING 1141
SWIDTH 495 0
DWIDTH 22 0
BBX 21 21 1 0
BITMAP
F001F8
7803F8
7807F0
780780
780700
3C0F00
3C0F00
3C0E00
1C1E00
1E1C00
1E1C00
0E3C00
0E3800
0F3800
073800
077000
07F000
03F000
03E000
01E000
01E000
ENDCHAR
STARTCHAR 048A
ENCODING 1162
SWIDTH 495 0
DWIDTH 22 0
BBX 19 43 2 -8
BITMAP
040800
1C0E00
1E1E00
0FFC00
07F800
01F000
000000
000000
F003C0
F007C0
F007C0
F00FC0
F00FC0
F01FC0
F01FC0
F03BC0
F03BC0
F073C0
F073C0
F0F3C0
F0E3C0
F1E3C0
F1C3C0
F3C3C0
F383C0
F383C0
F703C0
F703C0
FE03C0
FE03C0
FE03C0
FC03C0
FC03C0
F803E0
F803E0
F003E0
0001E0
0001C0
0003C0
0003C0
000780
000F00
000700
ENDCHAR
STARTCHAR 048B
ENCODING 1163
SWIDTH 495 0
DWIDTH 22 0
BBX 18 35 3 -6
BITMAP
1C1E00
1E1C00
0FFC00
0FF800
03E000
000000
000000
000000
E00780
E00F80
E00F80
E01F80
E03F80
E07F80
E07780
E0E780
E1E780
E1C780
E38780
E38780
E70780
EF0780
EE0780
FC0780
FC0780
F80780
F807C0
F007C0
E007C0
0003C0
0003C0
000780
000780
000F00
000E00
ENDCHAR
STARTCHAR 048C
ENCODING 1164
SWIDTH 495 0
DWIDTH 22 0
BBX 20 28 1 0
BITMAP
1E0000
1E0000
1E0000
1E0000
FFF000
FFF000
1E0000
1E0000
1E0000
1E0000
1E0000
1FFC00
1FFF00
1FFFC0
1E07E0
1E01E0
1E01E0
1E00F0
1E00F0
1E00F0
1E00F0
1E00F0
1E00E0
1E01E0
1E07E0
1FFFC0
1FFF80
1FFC00
ENDCHAR
STARTCHAR 048D
ENCODING 1165
SWIDTH 495 0
DWIDTH 22 0
BBX 19 22 1 0
BITMAP
1E0000
1E0000
1E0000
FFFC00
FFFC00
FFFC00
1E0000
1E0000
1E0000
1FFE00
1FFF80
1FFFC0
1E03E0
1E01E0
1E00E0
1E00E0
1E00E0
1E01E0
1E03E0
1FFFC0
1FFF80
1FFF00
ENDCHAR
STARTCHAR 048E
ENCODING 1166
SWIDTH 495 0
DWIDTH 22 0
BBX 17 28 3 0
BITMAP
1FC000
FFF800
FFFE00
F07F00
F00F00
F00780
F00780
F00780
F00780
F00780
F08780
F1C780
F1E780
F0EF00
F0FE00
FFFC00
FFF800
FFBC00
F01C00
F01E00
F00E00
F00E00
F00000
F00000
F00000
F00000
F00000
F00000
ENDCHAR
STARTCHAR 048F
ENCODING 1167
SWIDTH 495 0
DWIDTH 22 0
BBX 17 28 3 -7
BITMAP
3FE000
FFF800
FFFC00
F07E00
F01F00
F00F00
F00780
F00780
F00780
F00380
F00380
F00380
F00380
F0C780
F1E780
F0E780
F07F00
F87F00
FFFE00
FFFC00
FFFC00
F00E00
F00E00
F00700
F00400
F00000
F00000
F00000
ENDCHAR
STARTCHAR 0490
ENCODING 1168
SWIDTH 495 0
DWIDTH 22 0
BBX 18 33 2 0
BITMAP
0001C0
0001C0
0001C0
0001C0
0001C0
0FFFC0
0FFFC0
0FFFC0
0FFFC0
0F0000
0F0000
0F0000
0F0000
0F0000
0F0000
0F0000
0F0000
0F0000
0F0000
0F0000
0F0000
0F0000
0F0000
0F0000
0F0000
0F0000
0F0000
0F0000
0F0000
0F0000
FFFC00
FFFC00
FFFC00
ENDCHAR
STARTCHAR 0491
ENCODING 1169
SWIDTH 495 0
DWIDTH 22 0
BBX 15 26 5 0
BITMAP
001E
001E
001E
001E
001E
FFFE
FFFE
FFFE
E000
E000
E000
E000
E000
E000
E000
E000
E000
E000
E000
E000
E000
E000
E000
E000
E000
E000
ENDCHAR
STARTCHAR 0492
ENCODING 1170
SWIDTH 495 0
DWIDTH 22 0
BBX 18 28 2 0
BITMAP
0FFFC0
0FFFC0
0FFFC0
0FFFC0
0F0000
0F0000
0F0000
0F0000
0F0000
0F0000
0F0000
0F0000
FFFC00
FFFC00
FFFC00
0F0000
0F0000
0F0000
0F0000
0F0000
0F0000
0F0000
0F0000
0F0000
0F0000
FFFC00
FFFC00
FFFC00
ENDCHAR
STARTCHAR 0493
ENCODING 1171
SWIDTH 495 0
DWIDTH 22 0
BBX 19 21 1 0
BITMAP
0FFFE0
0FFFE0
0FFFE0
0E0000
0E0000
0E0000
0E0000
0E0000
0E0000
0E0000
FFFC00
FFFC00
FFFC00
0E0000
0E0000
0E0000
0E0000
0E0000
0E0000
0E0000
0E0000
ENDCHAR
STARTCHAR 0494
ENCODING 1172
SWIDTH 495 0
DWIDTH 22 0
BBX 19 35 2 -7
BITMAP
FFFF00
FFFF00
FFFF00
FFFF00
F00000
F00000
F00000
F00000
F00000
F00000
F00000
FFF800
FFFC00
FFFF00
F01F00
F00F80
F007C0
F003C0
F003C0
F001C0
F001C0
F001E0
F001E0
F001E0
F001E0
F001C0
F003C0
F003C0
0003C0
000780
000F80
001F00
03FE00
03FC00
03F800
ENDCHAR
STARTCHAR 0495
ENCODING 1173
SWIDTH 495 0
DWIDTH 22 0
BBX 18 28 3 -7
BITMAP
FFFE00
FFFE00
FFFE00
F00000
F00000
F00000
F00000
F00000
F3E000
FFFC00
FFFE00
FC7F00
F00F00
F00780
F00780
F00380
F00380
F003C0
F003C0
F003C0
F00380
000380
000780
000780
000F00
00FE00
01FC00
01F800
ENDCHAR
STARTCHAR 0496
ENCODING 1174
SWIDTH 495 0
DWIDTH 22 0
BBX 22 35 0 -7
BITMAP
707070
7870F0
7870F0
3870E0
3C71E0
1C71C0
1C71C0
1E7380
0E7380
0E7700
077700
077E00
03FE00
03FE00
07FE00
077700
0F7700
0E7380
1E7380
1C73C0
3C71C0
3C71E0
3870E0
7870F0
7870F0
70707C
70707C
F0707C
00003C
00003C
00003C
00003C
00003C
00003C
00003C
ENDCHAR
STARTCHAR 0497
ENCODING 1175
SWIDTH 495 0
DWIDTH 22 0
BBX 21 27 0 -6
BITMAP
7870F0
3870E0
3C71E0
1C71C0
1E73C0
0E7380
077780
077700
03FE00
03FE00
03FE00
03FE00
077700
0F7780
0E73C0
1C71C0
3C71E0
3870E0
7870F8
787078
F07078
000038
000038
000038
000038
000038
000038
ENDCHAR
STARTCHAR 0498
ENCODING 1176
SWIDTH 495 0
DWIDTH 22 0
BBX 19 36 2 -8
BITMAP
0FF000
7FFE00
7FFF00
781F80
000780
000780
000380
000380
000380
000780
000F00
003F00
0FFC00
0FFC00
0FFF00
001F80
0007C0
0003C0
0001C0
0001E0
0001E0
0001E0
0001C0
0003C0
E007C0
FFFF80
FFFF00
3FFC00
01C000
018000
03E000
00E000
00E000
0FE000
0FE000
030000
ENDCHAR
STARTCHAR 0499
ENCODING 1177
SWIDTH 495 0
DWIDTH 22 0
BBX 17 29 3 -8
BITMAP
3FF000
7FFC00
7FFE00
701F00
000F00
000F00
000F00
000F00
003E00
0FFC00
0FFC00
0FFE00
000F00
000780
000780
000780
000780
400F00
7FFF00
FFFE00
7FF800
038000
030000
07C000
01C000
01C000
1FC000
1FC000
060000
ENDCHAR
STARTCHAR 049A
ENCODING 1178
SWIDTH 495 0
DWIDTH 22 0
BBX 18 35 3 -7
BITMAP
E003C0
E00780
E00F00
E01F00
E01E00
E03C00
E07800
E0F800
E1F000
E3E000
E3C000
E78000
EF0000
FF0000
FF8000
EFC000
E3E000
E1E000
E1F000
E0F800
E07C00
E03C00
E03E00
E01E00
E00F00
E00FC0
E007C0
E007C0
0001C0
0001C0
0001C0
0001C0
0001C0
0001C0
0001C0
ENDCHAR
ENDFONT
